STARTFONT 2.1
COMMENT
COMMENT Converted from OpenType font "NimbusSans-Regular.otf" by "otf2bdf 3.0".
COMMENT
FONT -FreeType-Nimbus Sans-Medium-R-Normal--64-460-100-100-P-332-ISO10646-1
SIZE 46 100 100
FONTBOUNDINGBOX 79 88 -13 -19
STARTPROPERTIES 19
FOUNDRY "FreeType"
FAMILY_NAME "Nimbus Sans"
WEIGHT_NAME "Medium"
SLANT "R"
SETWIDTH_NAME "Normal"
ADD_STYLE_NAME ""
PIXEL_SIZE 64
POINT_SIZE 460
RESOLUTION_X 100
RESOLUTION_Y 100
SPACING "P"
AVERAGE_WIDTH 332
CHARSET_REGISTRY "ISO10646"
CHARSET_ENCODING "1"
FONT_ASCENT 46
FONT_DESCENT 17
COPYRIGHT "(URW)++,Copyright 2014 by (URW)++ Design & Development"
_OTF_FONTFILE "NimbusSans-Regular.otf"
_OTF_PSNAME "NimbusSans-Regular"
ENDPROPERTIES
CHARS 854
STARTCHAR 0020
ENCODING 32
SWIDTH 281 0
DWIDTH 18 0
BBX 0 0 0 0
BITMAP
ENDCHAR
STARTCHAR 0021
ENCODING 33
SWIDTH 281 0
DWIDTH 18 0
BBX 5 47 8 0
BITMAP
F8
F8
F8
F8
F8
F8
F8
F8
F8
F8
F8
F8
F8
F8
F8
F8
F8
F8
F8
F8
F8
F8
F8
F8
F8
F8
F8
78
78
78
70
70
70
70
70
70
00
00
00
00
F8
F8
F8
F8
F8
F8
F8
ENDCHAR
STARTCHAR 0022
ENCODING 34
SWIDTH 360 0
DWIDTH 23 0
BBX 16 15 3 30
BITMAP
FC1F
FC1F
FC1F
FC1F
FC1F
FC1F
FC1F
FC1F
7C1F
7C1F
7C1F
781F
780E
380E
380E
ENDCHAR
STARTCHAR 0023
ENCODING 35
SWIDTH 563 0
DWIDTH 36 0
BBX 34 46 1 -1
BITMAP
000F807C00
000F807C00
000F807C00
000F80F800
001F00F800
001F00F800
001F00F800
001F00F800
001F00F000
001E01F000
003E01F000
003E01F000
003E01F000
3FFFFFFFC0
3FFFFFFFC0
3FFFFFFFC0
3FFFFFFFC0
007C03E000
007C03E000
007C03C000
007807C000
00F807C000
00F807C000
00F807C000
00F8078000
00F00F8000
01F00F8000
01F00F8000
FFFFFFFF00
FFFFFFFF00
FFFFFFFF00
FFFFFFFF00
03E01F0000
03E01F0000
03E01F0000
03E01F0000
03E03E0000
07C03E0000
07C03E0000
07C03E0000
07C03E0000
07C03C0000
07807C0000
0F807C0000
0F807C0000
0F807C0000
ENDCHAR
STARTCHAR 0024
ENCODING 36
SWIDTH 563 0
DWIDTH 36 0
BBX 31 57 3 -8
BITMAP
00078000
00078000
00078000
000FC000
00FFFC00
03FFFF00
07FFFF80
1FFFFFC0
1FC78FE0
3F0787F0
3E0783F0
7E0781F8
7C0781F8
7C0780F8
FC0780F8
FC0780F8
FC078000
FC078000
7C078000
7E078000
7F078000
3F878000
3FE78000
1FFF8000
0FFFF000
07FFFE00
01FFFF80
007FFFC0
000FFFF0
0007FFF0
00078FF8
000783FC
000780FC
000780FC
0007807C
0007807E
F807807E
F807807E
F807807C
F807807C
F807807C
FC0780FC
FC0780F8
7E0781F8
7F8783F0
3FE78FF0
1FFFFFE0
0FFFFFC0
03FFFF00
00FFFC00
00078000
00078000
00078000
00078000
00078000
00078000
00078000
ENDCHAR
STARTCHAR 0025
ENCODING 37
SWIDTH 892 0
DWIDTH 57 0
BBX 53 47 2 -1
BITMAP
00000000078000
000000000F8000
00FC00000F0000
07FF00001E0000
0FFFC0001E0000
1FFFE0003C0000
3FFFF0003C0000
7E03F000780000
7C01F800780000
F800F800F00000
F8007801F00000
F0007C01E00000
F0007C03E00000
F0007C03C00000
F0007C07800000
F8007807800000
F800F80F000000
7C01F80F000000
7E03F01E000000
3FDFF01E000000
1FFFE03C000000
0FFFC03C000000
07FF0078000000
01FC00F8000000
000000F0000000
000001F001F800
000001E007FF00
000003C01FFF80
000003C03FFFC0
000007807FFFE0
000007807C07F0
00000F00F801F0
00000F00F801F0
00001E01F000F8
00003E01F000F8
00003C01F000F8
00007C01F000F8
00007801F000F8
0000F001F000F8
0000F000F800F0
0001E000F801F0
0001E0007E03E0
0003C0007FFFE0
0003C0003FFFC0
000780001FFF80
000F80000FFE00
000F000001F800
ENDCHAR
STARTCHAR 0026
ENCODING 38
SWIDTH 673 0
DWIDTH 43 0
BBX 37 46 3 -1
BITMAP
0007F00000
001FFC0000
007FFF0000
00FFFF8000
01FFFF8000
01F80FC000
03F007C000
03E007E000
03E003E000
03E003E000
03E003E000
03E003E000
03E007E000
03F007C000
01F80FC000
01F83F8000
00FC7F0000
007EFE0000
007FFC0000
003FF00000
003FE00000
00FFE00000
01FFE00000
07FBF00000
0FE1F80FC0
1FC1FC0FC0
3F80FE0F80
3F007F0F80
7E003F0F80
7C001F9F80
7C001FDF00
FC000FFF00
FC0007FF00
FC0003FE00
FC0001FC00
FC0001FC00
7E0001FE00
7E0003FF00
7F0007FF00
3F801FFF80
3FE07FDFC0
1FFFFF8FE0
0FFFFF07F0
07FFFC03F0
01FFF003F8
007FC00000
ENDCHAR
STARTCHAR 0027
ENCODING 39
SWIDTH 187 0
DWIDTH 12 0
BBX 6 15 3 30
BITMAP
FC
FC
FC
FC
FC
FC
FC
FC
FC
7C
78
78
78
78
38
ENDCHAR
STARTCHAR 0028
ENCODING 40
SWIDTH 328 0
DWIDTH 21 0
BBX 13 60 5 -13
BITMAP
0038
0078
00F0
00F0
01E0
01E0
03C0
07C0
0780
0F80
0F00
0F00
1F00
1E00
3E00
3E00
3E00
3C00
7C00
7C00
7C00
7C00
F800
F800
F800
F800
F800
F800
F800
F800
F800
F800
F800
F800
F800
F800
F800
F800
7C00
7C00
7C00
7C00
7C00
3E00
3E00
3E00
1E00
1F00
0F00
0F00
0F80
0780
07C0
03C0
03E0
01E0
00F0
00F0
0078
0038
ENDCHAR
STARTCHAR 0029
ENCODING 41
SWIDTH 328 0
DWIDTH 21 0
BBX 13 60 3 -13
BITMAP
E000
F000
7800
7800
3C00
3E00
1E00
1F00
0F00
0F80
0780
07C0
07C0
03C0
03E0
03E0
03E0
01F0
01F0
01F0
01F0
01F8
00F8
00F8
00F8
00F8
00F8
00F8
00F8
00F8
00F8
00F8
00F8
00F8
00F8
00F8
00F8
00F8
00F8
01F0
01F0
01F0
01F0
03E0
03E0
03E0
03C0
07C0
07C0
0780
0F80
0F00
1F00
1E00
1E00
3C00
3800
7800
F000
E000
ENDCHAR
STARTCHAR 002A
ENCODING 42
SWIDTH 391 0
DWIDTH 25 0
BBX 19 18 3 29
BITMAP
01E000
01E000
01E000
01E000
01E000
61E0C0
FDE7C0
FFFFE0
FFFFE0
1FFE00
03F000
03F800
07FC00
0FBC00
1F1E00
1E1F00
1E0F00
0C0600
ENDCHAR
STARTCHAR 002B
ENCODING 43
SWIDTH 579 0
DWIDTH 37 0
BBX 31 31 3 -1
BITMAP
0007C000
0007C000
0007C000
0007C000
0007C000
0007C000
0007C000
0007C000
0007C000
0007C000
0007C000
0007C000
0007C000
0007C000
FFFFFFFE
FFFFFFFE
FFFFFFFE
FFFFFFFE
0007C000
0007C000
0007C000
0007C000
0007C000
0007C000
0007C000
0007C000
0007C000
0007C000
0007C000
0007C000
0007C000
ENDCHAR
STARTCHAR 002C
ENCODING 44
SWIDTH 281 0
DWIDTH 18 0
BBX 6 16 6 -10
BITMAP
FC
FC
FC
FC
FC
FC
FC
1C
1C
1C
1C
1C
1C
38
F0
E0
ENDCHAR
STARTCHAR 002D
ENCODING 45
SWIDTH 328 0
DWIDTH 21 0
BBX 15 5 3 15
BITMAP
FFFE
FFFE
FFFE
FFFE
FFFE
ENDCHAR
STARTCHAR 002E
ENCODING 46
SWIDTH 281 0
DWIDTH 18 0
BBX 6 7 6 0
BITMAP
FC
FC
FC
FC
FC
FC
FC
ENDCHAR
STARTCHAR 002F
ENCODING 47
SWIDTH 281 0
DWIDTH 18 0
BBX 18 48 0 -1
BITMAP
0003C0
0003C0
000380
000380
000780
000700
000700
000F00
000E00
000E00
001E00
001E00
001C00
003C00
003C00
003800
007800
007800
007000
00F000
00F000
00E000
00E000
01E000
01C000
01C000
03C000
038000
038000
078000
078000
070000
0F0000
0F0000
0E0000
1E0000
1E0000
1C0000
3C0000
3C0000
380000
380000
780000
700000
700000
F00000
E00000
E00000
ENDCHAR
STARTCHAR 0030
ENCODING 48
SWIDTH 563 0
DWIDTH 36 0
BBX 29 47 3 -1
BITMAP
001FC000
00FFF800
01FFFC00
03FFFF00
07FFFF80
0FF07F80
1FC01FC0
1F800FE0
3F0007E0
3F0007E0
7E0003F0
7E0003F0
7E0003F0
7C0001F8
7C0001F8
FC0001F8
FC0001F8
FC0001F8
FC0001F8
FC0000F8
FC0000F8
FC0000F8
FC0000F8
F80000F8
FC0000F8
FC0000F8
FC0000F8
FC0000F8
FC0001F8
FC0001F8
FC0001F8
FC0001F8
FC0001F8
7C0001F8
7E0001F0
7E0003F0
7E0003F0
3F0003E0
3F0007E0
1F800FC0
1FC01FC0
0FE03F80
07FFFF80
07FFFF00
01FFFC00
00FFF800
001FC000
ENDCHAR
STARTCHAR 0031
ENCODING 49
SWIDTH 563 0
DWIDTH 36 0
BBX 15 46 7 0
BITMAP
001E
001E
001E
003E
003E
007E
00FE
01FE
1FFE
FFFE
FFFE
FFFE
FFFE
003E
003E
003E
003E
003E
003E
003E
003E
003E
003E
003E
003E
003E
003E
003E
003E
003E
003E
003E
003E
003E
003E
003E
003E
003E
003E
003E
003E
003E
003E
003E
003E
003E
ENDCHAR
STARTCHAR 0032
ENCODING 50
SWIDTH 563 0
DWIDTH 36 0
BBX 31 46 2 0
BITMAP
000FF800
007FFE00
01FFFF80
03FFFFC0
07FFFFE0
0FF81FF0
1FE007F8
1FC003F8
3F8001FC
3F0000FC
3F0000FC
3E00007E
7E00007E
7E00007E
7E00007E
7E00007E
000000FC
000000FC
000001FC
000001F8
000003F8
000007F0
00001FE0
00007FC0
0000FF80
0003FF00
000FFC00
001FF800
007FE000
00FF8000
01FE0000
03FC0000
07F00000
0FE00000
1FC00000
1F800000
3F000000
3E000000
7E000000
7E000000
7C000000
7FFFFFFC
FFFFFFFC
FFFFFFFC
FFFFFFFC
FFFFFFFC
ENDCHAR
STARTCHAR 0033
ENCODING 51
SWIDTH 563 0
DWIDTH 36 0
BBX 30 47 2 -1
BITMAP
001FF000
00FFFE00
03FFFF00
07FFFF80
0FFFFFC0
1FF01FE0
1FC00FF0
3F8003F0
3F0003F0
3E0001F8
7E0001F8
7E0001F8
7E0001F8
7E0001F8
7E0001F8
000001F8
000003F0
000003F0
000007E0
00003FC0
000FFF80
000FFF00
000FFF00
000FFFC0
000FFFE0
00000FF0
000003F8
000001F8
000000FC
000000FC
000000FC
000000FC
FC00007C
FC00007C
FC0000FC
FC0000FC
7C0000FC
7E0000FC
7E0001F8
3F0003F8
3F8007F0
1FF01FF0
1FFFFFE0
0FFFFFC0
03FFFF00
01FFFC00
003FE000
ENDCHAR
STARTCHAR 0034
ENCODING 52
SWIDTH 563 0
DWIDTH 36 0
BBX 31 46 2 0
BITMAP
00000F80
00001F80
00001F80
00003F80
00007F80
0000FF80
0000FF80
0001FF80
0003FF80
0003FF80
0007DF80
000FDF80
000F9F80
001F1F80
003E1F80
007E1F80
007C1F80
00F81F80
01F81F80
01F01F80
03E01F80
07E01F80
0FC01F80
0F801F80
1F001F80
3F001F80
3E001F80
7C001F80
FC001F80
F8001F80
FFFFFFFE
FFFFFFFE
FFFFFFFE
FFFFFFFE
FFFFFFFE
00001F80
00001F80
00001F80
00001F80
00001F80
00001F80
00001F80
00001F80
00001F80
00001F80
00001F80
ENDCHAR
STARTCHAR 0035
ENCODING 53
SWIDTH 563 0
DWIDTH 36 0
BBX 31 46 2 -1
BITMAP
07FFFFF0
07FFFFF0
07FFFFF0
07FFFFF0
0FFFFFF0
0FFFFFF0
0F800000
0F800000
0F800000
0F800000
0F800000
1F800000
1F800000
1F000000
1F000000
1F07F000
1F3FFE00
1FFFFF80
3FFFFFC0
3FFFFFE0
3FF01FF0
3FC007F8
3F0003F8
3E0001FC
000000FC
000000FC
000000FC
0000007E
0000007E
0000007E
0000007E
0000007E
0000007E
0000007C
FC00007C
7E0000FC
7E0000FC
7F0001F8
3F0003F8
3FC007F0
1FF01FE0
0FFFFFC0
07FFFF80
03FFFF00
00FFFC00
001FE000
ENDCHAR
STARTCHAR 0036
ENCODING 54
SWIDTH 563 0
DWIDTH 36 0
BBX 30 47 3 -1
BITMAP
000FF000
003FFC00
00FFFF00
01FFFF80
07FFFFC0
07F83FE0
0FE00FE0
1FC007F0
1F8003F0
3F0001F0
3F0001F8
7E0001F8
7E000000
7C000000
7C000000
FC000000
FC000000
FC0FF000
FC3FFC00
FCFFFF00
FDFFFF80
FFFFFFC0
FFF03FE0
FFC00FF0
FF8007F0
FF0003F8
FE0001F8
FE0001F8
FC0000FC
FC0000FC
FC0000FC
FC0000FC
FC0000FC
FC0000FC
7C0000FC
7C0000F8
7E0001F8
3E0001F8
3F0003F0
1F8007F0
1FC00FE0
0FF03FE0
0FFFFFC0
07FFFF80
01FFFE00
00FFFC00
001FE000
ENDCHAR
STARTCHAR 0037
ENCODING 55
SWIDTH 563 0
DWIDTH 36 0
BBX 30 45 3 0
BITMAP
FFFFFFFC
FFFFFFFC
FFFFFFFC
FFFFFFFC
FFFFFFFC
FFFFFFFC
000000F8
000001F0
000003E0
000003E0
000007C0
00000F80
00000F80
00001F00
00001F00
00003E00
00007C00
00007C00
0000F800
0000F800
0001F000
0003F000
0003E000
0007E000
0007C000
000FC000
000F8000
001F8000
001F0000
001F0000
003F0000
003E0000
007E0000
007E0000
007C0000
00FC0000
00FC0000
00F80000
00F80000
01F80000
01F80000
01F80000
03F00000
03F00000
03F00000
ENDCHAR
STARTCHAR 0038
ENCODING 56
SWIDTH 563 0
DWIDTH 36 0
BBX 31 47 2 -1
BITMAP
000FF000
007FFE00
01FFFF00
03FFFFC0
07FFFFE0
0FF01FE0
1FC007F0
1F8003F0
1F8001F8
3F0001F8
3F0001F8
3F0001F8
3F0001F8
3F0001F8
3F0001F8
3F8001F8
1F8003F0
1FC007F0
0FF00FE0
07FFFFC0
01FFFF00
00FFFE00
03FFFF80
07FFFFC0
0FF01FE0
1FC007F0
3F8003F8
3F0001FC
7E0000FC
7E0000FC
7C00007E
FC00007E
FC00007E
FC00007E
FC00007E
7C00007E
7E0000FC
7E0000FC
7F0001FC
3F8003F8
1FC007F8
1FF01FF0
0FFFFFE0
07FFFFC0
03FFFF80
00FFFE00
001FF000
ENDCHAR
STARTCHAR 0039
ENCODING 57
SWIDTH 563 0
DWIDTH 36 0
BBX 31 47 2 -1
BITMAP
001FE000
007FFC00
01FFFF00
03FFFF80
0FFFFFC0
0FF03FE0
1FC00FE0
3F8007F0
3F0003F0
7F0001F8
7E0001F8
7E0000F8
7C0000FC
7C0000FC
FC0000FC
FC0000FC
FC0000FC
7C0000FC
7E0000FC
7E0000FC
7E0001FE
3F0001FE
3F8003FE
1FC00FFE
1FF03FFE
0FFFFF7C
07FFFE7C
03FFFC7C
00FFF87C
003FC0FC
000000FC
000000FC
000000FC
000000F8
000001F8
7E0001F8
3E0001F8
3F0003F0
3F0003F0
1F8007E0
1FC00FC0
0FF03FC0
0FFFFF80
07FFFF00
03FFFC00
00FFF800
003FC000
ENDCHAR
STARTCHAR 003A
ENCODING 58
SWIDTH 281 0
DWIDTH 18 0
BBX 7 33 7 0
BITMAP
FE
FE
FE
FE
FE
FE
FE
00
00
00
00
00
00
00
00
00
00
00
00
00
00
00
00
00
00
00
FE
FE
FE
FE
FE
FE
FE
ENDCHAR
STARTCHAR 003B
ENCODING 59
SWIDTH 281 0
DWIDTH 18 0
BBX 7 42 7 -10
BITMAP
FE
FE
FE
FE
FE
FE
FE
00
00
00
00
00
00
00
00
00
00
00
00
00
00
00
00
00
00
00
FE
FE
FE
FE
FE
FE
FE
0E
0E
0E
0E
0C
1C
3C
F8
F0
ENDCHAR
STARTCHAR 003C
ENCODING 60
SWIDTH 579 0
DWIDTH 37 0
BBX 31 31 3 -1
BITMAP
00000002
0000000E
0000003E
000001FE
000007FE
00003FFC
0000FFF0
0003FF80
001FFE00
007FF800
01FFC000
0FFF0000
3FF80000
FFE00000
FF000000
FC000000
FF000000
FFE00000
3FF80000
0FFF0000
03FFC000
007FF000
001FFE00
0007FF80
0000FFF0
00003FFC
00000FFE
000001FE
0000007E
0000000E
00000002
ENDCHAR
STARTCHAR 003D
ENCODING 61
SWIDTH 579 0
DWIDTH 37 0
BBX 31 15 3 7
BITMAP
FFFFFFFE
FFFFFFFE
FFFFFFFE
FFFFFFFE
00000000
00000000
00000000
00000000
00000000
00000000
00000000
FFFFFFFE
FFFFFFFE
FFFFFFFE
FFFFFFFE
ENDCHAR
STARTCHAR 003E
ENCODING 62
SWIDTH 579 0
DWIDTH 37 0
BBX 31 31 3 -1
BITMAP
80000000
E0000000
FC000000
FF000000
FFC00000
7FF80000
1FFE0000
03FFC000
00FFF000
001FFC00
0007FF80
0001FFE0
00003FF8
00000FFE
000001FE
0000007E
000001FE
000007FE
00003FFC
0000FFE0
0003FF80
001FFE00
007FF000
03FFC000
0FFF0000
7FF80000
FFE00000
FF000000
FC000000
F0000000
80000000
ENDCHAR
STARTCHAR 003F
ENCODING 63
SWIDTH 563 0
DWIDTH 36 0
BBX 28 48 5 0
BITMAP
003FC000
01FFF800
07FFFE00
0FFFFF00
1FFFFF80
3FC07FC0
3F001FC0
7E000FE0
7E0007E0
7C0007E0
FC0003E0
FC0003F0
F80003F0
F80003F0
F80003E0
000007E0
000007E0
00000FC0
00001FC0
00001F80
00003F80
0000FF00
0001FE00
0003FC00
0007F800
0007F000
000FE000
001FC000
001F8000
001F8000
003F0000
003F0000
003F0000
003F0000
003F0000
00000000
00000000
00000000
00000000
00000000
00000000
003F0000
003F0000
003F0000
003F0000
003F0000
003F0000
003F0000
ENDCHAR
STARTCHAR 0040
ENCODING 64
SWIDTH 1017 0
DWIDTH 65 0
BBX 59 57 2 -9
BITMAP
0000003FF8000000
000003FFFF800000
00000FFFFFF00000
00007FFFFFFC0000
0000FFFFFFFE0000
0003FFC00FFF8000
000FFC0001FFC000
001FF000003FE000
003FC000001FF000
007F80000007F800
00FE00000003FC00
01FC00000001FE00
01F800000000FE00
03F0000000007F00
07E0000FC0003F80
07C0007FF0FC1F80
0FC001FFF8F81F80
1F8003FFFCF80FC0
1F8007F87FF80FC0
1F000FE01FF00FC0
3F001F800FF007E0
3E003F000FF007E0
3E003F0007F007E0
7E007E0007E007E0
7C007C0007E007E0
7C00FC0007E007E0
7C00FC0007C007E0
FC00F80007C007C0
FC01F8000FC007C0
FC01F8000F8007C0
FC01F8000F800FC0
FC01F8001F800F80
FC01F8001F000F80
FC01F8001F001F80
FC01F8003F003F00
7C01F8003F003F00
7E00FC007E007E00
7E00FC00FE00FC00
7E00FE01FF01F800
3F007F87FF87F800
3F003FFF9FFFF000
3F801FFF1FFFC000
1FC00FFE0FFF8000
0FC003F007FE0000
0FE0000000000000
07F0000000000000
03F8000000000000
01FE000000000000
01FF000000000000
007FC00000000000
003FF00000C00000
001FFF000FE00000
0007FFFFFFE00000
0003FFFFFFE00000
0000FFFFFFE00000
00001FFFFF000000
000001FFE0000000
ENDCHAR
STARTCHAR 0041
ENCODING 65
SWIDTH 673 0
DWIDTH 43 0
BBX 41 47 1 0
BITMAP
00007F800000
0000FF800000
0000FF800000
0001FFC00000
0001FFC00000
0001FFC00000
0003FFE00000
0003F7E00000
0003F7E00000
0007E7F00000
0007E3F00000
0007E3F00000
000FC3F80000
000FC1F80000
000FC1F80000
001F81FC0000
001F80FC0000
001F80FC0000
003F00FE0000
003F007E0000
007E007F0000
007E007F0000
007E003F0000
00FC003F8000
00FC003F8000
00FC001F8000
01F8001FC000
01F8001FC000
01FFFFFFC000
03FFFFFFE000
03FFFFFFE000
03FFFFFFE000
07FFFFFFF000
07E00007F000
07E00003F000
0FC00003F800
0FC00003F800
1FC00001F800
1F800001FC00
1F800001FC00
3F800000FC00
3F000000FE00
3F0000007E00
7F0000007F00
7E0000007F00
7E0000003F00
FE0000003F80
ENDCHAR
STARTCHAR 0042
ENCODING 66
SWIDTH 673 0
DWIDTH 43 0
BBX 35 47 5 0
BITMAP
FFFFFF0000
FFFFFFE000
FFFFFFF000
FFFFFFF800
FFFFFFFC00
FC000FFE00
FC0000FF00
FC00007F00
FC00003F00
FC00003F80
FC00001F80
FC00001F80
FC00001F80
FC00001F80
FC00001F80
FC00003F00
FC00003F00
FC00007E00
FC0000FE00
FC0003FC00
FFFFFFF800
FFFFFFE000
FFFFFFF000
FFFFFFFC00
FFFFFFFE00
FC0001FF00
FC00007F80
FC00001FC0
FC00001FC0
FC00000FC0
FC00000FE0
FC000007E0
FC000007E0
FC000007E0
FC000007E0
FC000007E0
FC00000FE0
FC00000FC0
FC00000FC0
FC00001FC0
FC00003F80
FC0001FF80
FFFFFFFF00
FFFFFFFE00
FFFFFFFC00
FFFFFFF000
FFFFFF8000
ENDCHAR
STARTCHAR 0043
ENCODING 67
SWIDTH 720 0
DWIDTH 46 0
BBX 40 49 3 -1
BITMAP
0000FFE000
0007FFFC00
001FFFFF00
007FFFFF80
00FFFFFFC0
01FFC0FFE0
03FE001FF0
07F80007F8
07F00003F8
0FE00001FC
1FC00000FC
1F800000FC
3F8000007E
3F0000007E
3F0000007E
7E00000000
7E00000000
7E00000000
7E00000000
FC00000000
FC00000000
FC00000000
FC00000000
FC00000000
FC00000000
FC00000000
FC00000000
FC00000000
FC00000000
FC00000000
7E0000003F
7E0000003F
7E0000003F
7E0000003F
3F0000007F
3F0000007E
3F8000007E
1F800000FE
1FC00000FC
0FE00001FC
0FF00003F8
07F80007F8
03FE001FF0
01FFE0FFE0
00FFFFFFC0
007FFFFF80
003FFFFF00
0007FFFC00
0000FFC000
ENDCHAR
STARTCHAR 0044
ENCODING 68
SWIDTH 720 0
DWIDTH 46 0
BBX 37 47 6 0
BITMAP
FFFFFC0000
FFFFFF8000
FFFFFFE000
FFFFFFF800
FFFFFFFC00
FC001FFE00
FC0001FF00
FC00007F80
FC00003F80
FC00001FC0
FC00000FC0
FC00000FE0
FC000007E0
FC000007E0
FC000007F0
FC000003F0
FC000003F0
FC000003F0
FC000003F0
FC000003F0
FC000001F8
FC000001F8
FC000001F8
FC000001F8
FC000001F8
FC000001F8
FC000001F8
FC000001F0
FC000003F0
FC000003F0
FC000003F0
FC000003F0
FC000003F0
FC000007E0
FC000007E0
FC00000FE0
FC00000FC0
FC00001FC0
FC00003F80
FC00007F00
FC0001FF00
FC000FFE00
FFFFFFFC00
FFFFFFF800
FFFFFFE000
FFFFFF8000
FFFFFC0000
ENDCHAR
STARTCHAR 0045
ENCODING 69
SWIDTH 673 0
DWIDTH 43 0
BBX 33 47 6 0
BITMAP
FFFFFFFF00
FFFFFFFF00
FFFFFFFF00
FFFFFFFF00
FFFFFFFF00
FC00000000
FC00000000
FC00000000
FC00000000
FC00000000
FC00000000
FC00000000
FC00000000
FC00000000
FC00000000
FC00000000
FC00000000
FC00000000
FC00000000
FC00000000
FFFFFFFE00
FFFFFFFE00
FFFFFFFE00
FFFFFFFE00
FFFFFFFE00
FC00000000
FC00000000
FC00000000
FC00000000
FC00000000
FC00000000
FC00000000
FC00000000
FC00000000
FC00000000
FC00000000
FC00000000
FC00000000
FC00000000
FC00000000
FC00000000
FC00000000
FFFFFFFF80
FFFFFFFF80
FFFFFFFF80
FFFFFFFF80
FFFFFFFF80
ENDCHAR
STARTCHAR 0046
ENCODING 70
SWIDTH 610 0
DWIDTH 39 0
BBX 31 47 6 0
BITMAP
FFFFFFFE
FFFFFFFE
FFFFFFFE
FFFFFFFE
FFFFFFFE
FC000000
FC000000
FC000000
FC000000
FC000000
FC000000
FC000000
FC000000
FC000000
FC000000
FC000000
FC000000
FC000000
FC000000
FC000000
FFFFFFF0
FFFFFFF0
FFFFFFF0
FFFFFFF0
FFFFFFF0
FC000000
FC000000
FC000000
FC000000
FC000000
FC000000
FC000000
FC000000
FC000000
FC000000
FC000000
FC000000
FC000000
FC000000
FC000000
FC000000
FC000000
FC000000
FC000000
FC000000
FC000000
FC000000
ENDCHAR
STARTCHAR 0047
ENCODING 71
SWIDTH 782 0
DWIDTH 50 0
BBX 42 49 3 -1
BITMAP
00007FF00000
0007FFFE0000
001FFFFF8000
003FFFFFE000
00FFFFFFF000
01FFE07FF800
03FF0007FC00
07FC0003FE00
07F00000FE00
0FE000007F00
1FC000003F00
1F8000003F80
3F8000001F80
3F0000001F80
7F0000001FC0
7E0000000000
7E0000000000
7E0000000000
FC0000000000
FC0000000000
FC0000000000
FC0000000000
FC0000000000
FC0001FFFFC0
FC0001FFFFC0
FC0001FFFFC0
FC0001FFFFC0
FC0001FFFFC0
FC00000007C0
FC00000007C0
FE00000007C0
7E00000007C0
7E00000007C0
7E00000007C0
7F0000000FC0
3F0000000FC0
3F8000001FC0
1FC000001FC0
1FC000003FC0
0FE000007FC0
0FF00000FFC0
07FC0001FFC0
03FF0007F7C0
01FFF07FE7C0
00FFFFFFC3C0
007FFFFF83C0
001FFFFE03C0
0007FFF803C0
0000FFC00000
ENDCHAR
STARTCHAR 0048
ENCODING 72
SWIDTH 720 0
DWIDTH 46 0
BBX 36 47 5 0
BITMAP
FC000003F0
FC000003F0
FC000003F0
FC000003F0
FC000003F0
FC000003F0
FC000003F0
FC000003F0
FC000003F0
FC000003F0
FC000003F0
FC000003F0
FC000003F0
FC000003F0
FC000003F0
FC000003F0
FC000003F0
FC000003F0
FC000003F0
FC000003F0
FFFFFFFFF0
FFFFFFFFF0
FFFFFFFFF0
FFFFFFFFF0
FFFFFFFFF0
FC000003F0
FC000003F0
FC000003F0
FC000003F0
FC000003F0
FC000003F0
FC000003F0
FC000003F0
FC000003F0
FC000003F0
FC000003F0
FC000003F0
FC000003F0
FC000003F0
FC000003F0
FC000003F0
FC000003F0
FC000003F0
FC000003F0
FC000003F0
FC000003F0
FC000003F0
ENDCHAR
STARTCHAR 0049
ENCODING 73
SWIDTH 281 0
DWIDTH 18 0
BBX 6 47 6 0
BITMAP
FC
FC
FC
FC
FC
FC
FC
FC
FC
FC
FC
FC
FC
FC
FC
FC
FC
FC
FC
FC
FC
FC
FC
FC
FC
FC
FC
FC
FC
FC
FC
FC
FC
FC
FC
FC
FC
FC
FC
FC
FC
FC
FC
FC
FC
FC
FC
ENDCHAR
STARTCHAR 004A
ENCODING 74
SWIDTH 500 0
DWIDTH 32 0
BBX 26 48 1 -1
BITMAP
00000FC0
00000FC0
00000FC0
00000FC0
00000FC0
00000FC0
00000FC0
00000FC0
00000FC0
00000FC0
00000FC0
00000FC0
00000FC0
00000FC0
00000FC0
00000FC0
00000FC0
00000FC0
00000FC0
00000FC0
00000FC0
00000FC0
00000FC0
00000FC0
00000FC0
00000FC0
00000FC0
00000FC0
00000FC0
00000FC0
00000FC0
00000FC0
FC000FC0
FC000FC0
FC000FC0
FC000FC0
FC000FC0
FC000FC0
FE000FC0
7E001FC0
7F001F80
7F803F80
3FC0FF00
1FFFFF00
1FFFFE00
07FFF800
03FFF000
007F8000
ENDCHAR
STARTCHAR 004B
ENCODING 75
SWIDTH 673 0
DWIDTH 43 0
BBX 37 47 5 0
BITMAP
FC000007F0
FC00000FE0
FC00001FC0
FC00003F80
FC00007F00
FC0000FE00
FC0001FC00
FC0003F800
FC0007F000
FC000FE000
FC001FC000
FC003F8000
FC007F0000
FC00FE0000
FC01FC0000
FC03F80000
FC07F00000
FC0FF00000
FC1FE00000
FC3FC00000
FC7FE00000
FCFFE00000
FDFFF00000
FFFBF80000
FFF1FC0000
FFE1FC0000
FFC0FE0000
FF807F0000
FF007F0000
FE003F8000
FC001FC000
FC001FC000
FC000FE000
FC0007F000
FC0007F000
FC0003F800
FC0001FC00
FC0000FE00
FC0000FE00
FC00007F00
FC00003F80
FC00003F80
FC00001FC0
FC00000FE0
FC00000FE0
FC000007F0
FC000003F8
ENDCHAR
STARTCHAR 004C
ENCODING 76
SWIDTH 563 0
DWIDTH 36 0
BBX 29 47 5 0
BITMAP
FC000000
FC000000
FC000000
FC000000
FC000000
FC000000
FC000000
FC000000
FC000000
FC000000
FC000000
FC000000
FC000000
FC000000
FC000000
FC000000
FC000000
FC000000
FC000000
FC000000
FC000000
FC000000
FC000000
FC000000
FC000000
FC000000
FC000000
FC000000
FC000000
FC000000
FC000000
FC000000
FC000000
FC000000
FC000000
FC000000
FC000000
FC000000
FC000000
FC000000
FC000000
FC000000
FFFFFFF8
FFFFFFF8
FFFFFFF8
FFFFFFF8
FFFFFFF8
ENDCHAR
STARTCHAR 004D
ENCODING 77
SWIDTH 829 0
DWIDTH 53 0
BBX 44 47 5 0
BITMAP
FF0000001FF0
FF8000001FF0
FF8000001FF0
FF8000003FF0
FFC000003FF0
FFC000003FF0
FFC000007FF0
FFE000007FF0
FBE000007FF0
FBE00000FBF0
FBF00000FBF0
F9F00000FBF0
F9F00001F3F0
F9F80001F3F0
F8F80001F3F0
F8F80003E3F0
F8FC0003E3F0
F87C0003E3F0
F87C0007C3F0
F87E0007C3F0
F83E0007C3F0
F83E000F83F0
F83F000F83F0
F81F000F83F0
F81F001F03F0
F81F801F03F0
F80F801F03F0
F80F803E03F0
F80FC03E03F0
F807C03E03F0
F807C07C03F0
F807E07C03F0
F803E07C03F0
F803E0F803F0
F803F0F803F0
F801F0F803F0
F801F1F003F0
F801F9F003F0
F800F9F003F0
F800FBE003F0
F800FFE003F0
F8007FE003F0
F8007FC003F0
F8007FC003F0
F8003FC003F0
F8003F8003F0
F8003F8003F0
ENDCHAR
STARTCHAR 004E
ENCODING 78
SWIDTH 720 0
DWIDTH 46 0
BBX 36 47 5 0
BITMAP
FE000001F0
FE000001F0
FF000001F0
FF800001F0
FF800001F0
FFC00001F0
FFC00001F0
FFE00001F0
FFF00001F0
FBF00001F0
FBF80001F0
F9FC0001F0
F8FC0001F0
F8FE0001F0
F87E0001F0
F83F0001F0
F83F8001F0
F81F8001F0
F80FC001F0
F80FE001F0
F807E001F0
F807F001F0
F803F801F0
F801F801F0
F801FC01F0
F800FC01F0
F8007E01F0
F8007F01F0
F8003F01F0
F8003F81F0
F8001FC1F0
F8000FC1F0
F8000FE1F0
F80007F1F0
F80003F1F0
F80003F9F0
F80001F9F0
F80000FDF0
F80000FFF0
F800007FF0
F800007FF0
F800003FF0
F800001FF0
F800001FF0
F800000FF0
F8000007F0
F8000007F0
ENDCHAR
STARTCHAR 004F
ENCODING 79
SWIDTH 782 0
DWIDTH 50 0
BBX 45 49 2 -1
BITMAP
00003FF00000
0003FFFF0000
000FFFFFC000
001FFFFFF000
007FFFFFF800
00FFF07FFC00
01FF0007FE00
03FC0001FF00
07F800007F80
07F000003F80
0FE000001FC0
1FC000000FE0
1F8000000FE0
3F80000007E0
3F00000007F0
3F00000003F0
7F00000003F0
7E00000001F8
7E00000001F8
7E00000001F8
7E00000001F8
7E00000001F8
7C00000001F8
FC00000001F8
FC00000001F8
FC00000001F8
7C00000001F8
7E00000001F8
7E00000001F8
7E00000001F8
7E00000001F8
7E00000001F8
7F00000003F0
3F00000003F0
3F00000007F0
3F80000007E0
1FC000000FE0
1FC000000FC0
0FE000001FC0
0FF000003F80
07F800007F80
03FE0001FF00
01FF0007FE00
00FFF03FFC00
007FFFFFF800
003FFFFFE000
000FFFFFC000
0003FFFE0000
00003FF00000
ENDCHAR
STARTCHAR 0050
ENCODING 80
SWIDTH 673 0
DWIDTH 43 0
BBX 33 47 6 0
BITMAP
FFFFFF0000
FFFFFFE000
FFFFFFF000
FFFFFFFC00
FFFFFFFE00
FC0007FE00
FC0001FF00
FC00007F00
FC00003F80
FC00003F80
FC00001F80
FC00001F80
FC00001F80
FC00001F80
FC00001F80
FC00001F80
FC00001F80
FC00003F80
FC00003F80
FC00007F00
FC0000FF00
FC0007FE00
FFFFFFFE00
FFFFFFFC00
FFFFFFF000
FFFFFFE000
FFFFFF0000
FC00000000
FC00000000
FC00000000
FC00000000
FC00000000
FC00000000
FC00000000
FC00000000
FC00000000
FC00000000
FC00000000
FC00000000
FC00000000
FC00000000
FC00000000
FC00000000
FC00000000
FC00000000
FC00000000
FC00000000
ENDCHAR
STARTCHAR 0051
ENCODING 81
SWIDTH 782 0
DWIDTH 50 0
BBX 45 51 2 -3
BITMAP
00003FF00000
0003FFFF0000
000FFFFFC000
001FFFFFF000
007FFFFFF800
00FFF07FFC00
01FF0007FE00
03FC0001FF00
07F800007F80
07F000003F80
0FE000001FC0
1FC000000FE0
1F8000000FE0
3F80000007E0
3F00000007F0
3F00000003F0
7F00000003F0
7E00000001F8
7E00000001F8
7E00000001F8
7E00000001F8
7E00000001F8
7C00000001F8
FC00000001F8
FC00000001F8
FC00000001F8
7C00000001F8
7E00000001F8
7E00000001F8
7E00000001F8
7E00000001F8
7E00000001F8
7F00000003F0
3F00000003F0
3F00000003F0
3F80000C07E0
1FC0001E0FE0
1FC0003F8FC0
0FE0003FDFC0
0FF0000FFF80
07F80007FF80
03FE0003FF00
01FF0007FE00
00FFF07FFF00
007FFFFFFF80
003FFFFFFFC0
000FFFFFCFE0
0003FFFE07F8
00003FF003F0
0000000000E0
000000000040
ENDCHAR
STARTCHAR 0052
ENCODING 82
SWIDTH 720 0
DWIDTH 46 0
BBX 37 47 6 0
BITMAP
FFFFFFC000
FFFFFFF800
FFFFFFFE00
FFFFFFFF00
FFFFFFFF80
FC0001FFC0
FC00003FC0
FC00001FE0
FC00000FE0
FC000007E0
FC000007F0
FC000007F0
FC000007F0
FC000007F0
FC000007F0
FC000007E0
FC000007E0
FC000007E0
FC00000FC0
FC00000FC0
FC00003F80
FC0001FF00
FFFFFFFE00
FFFFFFF800
FFFFFFF800
FFFFFFFE00
FFFFFFFF00
FC00007F80
FC00003FC0
FC00001FC0
FC00000FC0
FC00000FC0
FC000007C0
FC000007E0
FC000007E0
FC000007E0
FC000007E0
FC000007E0
FC000007E0
FC000007E0
FC000007E0
FC000007E0
FC000007E0
FC000007F0
FC000007F0
FC000003F8
FC000003F8
ENDCHAR
STARTCHAR 0053
ENCODING 83
SWIDTH 673 0
DWIDTH 43 0
BBX 37 49 3 -1
BITMAP
0007FE0000
003FFFE000
00FFFFF800
03FFFFFC00
07FFFFFE00
0FFC03FF00
1FE0007F80
1FC0003FC0
3F80001FC0
3F00000FC0
3F000007E0
3F000007E0
3E000007E0
7E000007E0
7F00000000
3F00000000
3F80000000
3FC0000000
3FE0000000
1FFC000000
0FFFC00000
0FFFF80000
03FFFF8000
01FFFFF800
003FFFFE00
0003FFFF00
00003FFF80
000007FFC0
0000007FE0
0000001FF0
0000000FF0
00000007F0
00000003F8
FC000003F8
FC000001F8
FC000001F8
FC000001F8
7E000003F0
7E000003F0
7F000003F0
3F800007E0
3FC0000FE0
1FF0003FC0
0FFE03FF80
07FFFFFF80
03FFFFFE00
01FFFFFC00
003FFFF000
0007FF0000
ENDCHAR
STARTCHAR 0054
ENCODING 84
SWIDTH 610 0
DWIDTH 39 0
BBX 37 47 1 0
BITMAP
FFFFFFFFF8
FFFFFFFFF8
FFFFFFFFF8
FFFFFFFFF8
FFFFFFFFF8
0000FC0000
0000FC0000
0000FC0000
0000FC0000
0000FC0000
0000FC0000
0000FC0000
0000FC0000
0000FC0000
0000FC0000
0000FC0000
0000FC0000
0000FC0000
0000FC0000
0000FC0000
0000FC0000
0000FC0000
0000FC0000
0000FC0000
0000FC0000
0000FC0000
0000FC0000
0000FC0000
0000FC0000
0000FC0000
0000FC0000
0000FC0000
0000FC0000
0000FC0000
0000FC0000
0000FC0000
0000FC0000
0000FC0000
0000FC0000
0000FC0000
0000FC0000
0000FC0000
0000FC0000
0000FC0000
0000FC0000
0000FC0000
0000FC0000
ENDCHAR
STARTCHAR 0055
ENCODING 85
SWIDTH 720 0
DWIDTH 46 0
BBX 36 48 5 -1
BITMAP
FC000003F0
FC000003F0
FC000003F0
FC000003F0
FC000003F0
FC000003F0
FC000003F0
FC000003F0
FC000003F0
FC000003F0
FC000003F0
FC000003F0
FC000003F0
FC000003F0
FC000003F0
FC000003F0
FC000003F0
FC000003F0
FC000003F0
FC000003F0
FC000003F0
FC000003F0
FC000003F0
FC000003F0
FC000003F0
FC000003F0
FC000003F0
FC000003F0
FC000003F0
FC000003F0
FC000003F0
FC000003F0
FC000003F0
FC000003F0
7E000003F0
7E000003F0
7E000003F0
7E000007F0
7F000007E0
3F80000FE0
3FC0001FC0
1FF0007FC0
0FFE03FF80
07FFFFFF00
03FFFFFC00
01FFFFF800
003FFFE000
0007FE0000
ENDCHAR
STARTCHAR 0056
ENCODING 86
SWIDTH 673 0
DWIDTH 43 0
BBX 39 47 2 0
BITMAP
FC0000007E
FE000000FE
7E000000FC
7F000000FC
7F000001FC
3F000001F8
3F800001F8
1F800003F8
1F800003F0
1FC00003F0
0FC00007F0
0FC00007E0
0FE00007E0
07E00007E0
07E0000FC0
07F0000FC0
03F0000FC0
03F0001F80
03F8001F80
01F8001F00
01F8003F00
00FC003F00
00FC003E00
00FC007E00
007E007E00
007E007C00
007E00FC00
003F00FC00
003F00F800
003F01F800
001F81F800
001F81F000
001F83F000
000FC3F000
000FC3E000
0007E7E000
0007E7E000
0007E7C000
0003FFC000
0003FFC000
0003FF8000
0001FF8000
0001FF8000
0001FF0000
0000FF0000
0000FF0000
0000FE0000
ENDCHAR
STARTCHAR 0057
ENCODING 87
SWIDTH 939 0
DWIDTH 60 0
BBX 57 47 2 0
BITMAP
FC00007F00001F80
FC00007F00003F80
FE0000FF00003F80
FE0000FF80003F00
7E0000FF80003F00
7E0000FF80007F00
7F0001FF80007F00
7F0001FFC0007E00
3F0001FFC0007E00
3F0001F7C0007E00
3F0003F7C000FE00
3F8003E7E000FC00
1F8003E7E000FC00
1F8007E3E000FC00
1F8007E3F001FC00
1FC007C3F001F800
0FC007C1F001F800
0FC00FC1F001F800
0FC00FC1F801F800
0FE00F81F803F000
07E00F80F803F000
07E01F80FC03F000
07E01F00FC03F000
07E01F00FC07E000
03F03F007C07E000
03F03F007E07E000
03F03E007E07E000
03F03E003E07C000
01F87E003E0FC000
01F87E003F0FC000
01F87C003F0FC000
01F87C001F0F8000
00FCFC001F9F8000
00FCFC001F9F8000
00FCF8000F9F8000
00FCF8000F9F0000
007DF8000FDF0000
007FF0000FFF0000
007FF00007FF0000
007FF00007FE0000
003FF00007FE0000
003FE00007FE0000
003FE00003FE0000
003FE00003FC0000
001FE00003FC0000
001FC00001FC0000
001FC00001FC0000
ENDCHAR
STARTCHAR 0058
ENCODING 88
SWIDTH 673 0
DWIDTH 43 0
BBX 39 47 2 0
BITMAP
7F000001FC
7F800001FC
3F800003F8
1FC00007F0
1FE00007F0
0FE0000FE0
07F0001FC0
07F8001FC0
03F8003F80
01FC007F00
00FC007E00
00FE00FE00
007F01FC00
003F01F800
003F83F800
001FC3F000
000FC7E000
000FEFE000
0007FFC000
0003FF8000
0003FF8000
0001FF0000
0000FE0000
0001FE0000
0001FF0000
0003FF8000
0007FF8000
0007FFC000
000FEFE000
001FC7F000
001F87F000
003F83F800
007F01FC00
007E01FC00
00FE00FE00
01FC007F00
01F8007F00
03F8003F80
07F0001FC0
07F0001FC0
0FE0000FE0
1FC00007F0
3FC00007F0
3F800003F8
7F000003FC
FF000001FC
FE000000FE
ENDCHAR
STARTCHAR 0059
ENCODING 89
SWIDTH 673 0
DWIDTH 43 0
BBX 41 47 1 0
BITMAP
FE0000003F80
7F0000007F00
7F8000007F00
3F800000FE00
1FC00000FC00
1FC00001FC00
0FE00003F800
07F00003F800
07F00007F000
03F80007E000
03F8000FE000
01FC001FC000
00FE001FC000
00FE003F8000
007F003F0000
003F007F0000
003F807E0000
001FC0FE0000
001FC1FC0000
000FE1F80000
0007E3F80000
0007F3F00000
0003FFE00000
0001FFE00000
0001FFC00000
0000FFC00000
0000FF800000
00007F000000
00003F000000
00003F000000
00003F000000
00003F000000
00003F000000
00003F000000
00003F000000
00003F000000
00003F000000
00003F000000
00003F000000
00003F000000
00003F000000
00003F000000
00003F000000
00003F000000
00003F000000
00003F000000
00003F000000
ENDCHAR
STARTCHAR 005A
ENCODING 90
SWIDTH 610 0
DWIDTH 39 0
BBX 35 47 2 0
BITMAP
3FFFFFFFE0
3FFFFFFFE0
3FFFFFFFE0
3FFFFFFFE0
3FFFFFFFE0
0000000FE0
0000001FC0
0000003F80
0000007F80
0000007F00
000000FE00
000001FC00
000003FC00
000007F800
000007F000
00000FE000
00001FE000
00003FC000
00003F8000
00007F0000
0000FF0000
0001FE0000
0001FC0000
0003F80000
0007F00000
000FF00000
001FE00000
001FC00000
003F800000
007F800000
00FF000000
00FE000000
01FC000000
03FC000000
07F8000000
07F0000000
0FE0000000
1FE0000000
3FC0000000
3F80000000
7F00000000
FE00000000
FFFFFFFFE0
FFFFFFFFE0
FFFFFFFFE0
FFFFFFFFE0
FFFFFFFFE0
ENDCHAR
STARTCHAR 005B
ENCODING 91
SWIDTH 281 0
DWIDTH 18 0
BBX 12 61 4 -14
BITMAP
FFF0
FFF0
FFF0
FFF0
FFF0
F800
F800
F800
F800
F800
F800
F800
F800
F800
F800
F800
F800
F800
F800
F800
F800
F800
F800
F800
F800
F800
F800
F800
F800
F800
F800
F800
F800
F800
F800
F800
F800
F800
F800
F800
F800
F800
F800
F800
F800
F800
F800
F800
F800
F800
F800
F800
F800
F800
F800
F800
FFF0
FFF0
FFF0
FFF0
FFF0
ENDCHAR
STARTCHAR 005C
ENCODING 92
SWIDTH 281 0
DWIDTH 18 0
BBX 18 48 0 -1
BITMAP
E00000
E00000
F00000
700000
700000
780000
380000
380000
3C0000
3C0000
1C0000
1E0000
1E0000
0E0000
0F0000
0F0000
070000
078000
078000
038000
038000
03C000
01C000
01C000
01E000
00E000
00E000
00F000
00F000
007000
007800
007800
003800
003C00
003C00
001C00
001E00
001E00
000E00
000E00
000F00
000700
000700
000780
000380
000380
0003C0
0003C0
ENDCHAR
STARTCHAR 005D
ENCODING 93
SWIDTH 281 0
DWIDTH 18 0
BBX 12 61 1 -14
BITMAP
FFF0
FFF0
FFF0
FFF0
FFF0
01F0
01F0
01F0
01F0
01F0
01F0
01F0
01F0
01F0
01F0
01F0
01F0
01F0
01F0
01F0
01F0
01F0
01F0
01F0
01F0
01F0
01F0
01F0
01F0
01F0
01F0
01F0
01F0
01F0
01F0
01F0
01F0
01F0
01F0
01F0
01F0
01F0
01F0
01F0
01F0
01F0
01F0
01F0
01F0
01F0
01F0
01F0
01F0
01F0
01F0
01F0
FFF0
FFF0
FFF0
FFF0
FFF0
ENDCHAR
STARTCHAR 005E
ENCODING 94
SWIDTH 469 0
DWIDTH 30 0
BBX 24 24 3 21
BITMAP
007E00
007E00
00FE00
00FF00
00FF00
01FF80
01E780
03E780
03C7C0
03C3C0
07C3E0
0781E0
0F81E0
0F01F0
0F00F0
1F00F8
1E0078
3E007C
3C007C
3C003C
7C003E
78001E
F8001F
F0000F
ENDCHAR
STARTCHAR 005F
ENCODING 95
SWIDTH 563 0
DWIDTH 36 0
BBX 38 3 -1 -11
BITMAP
FFFFFFFFFC
FFFFFFFFFC
FFFFFFFFFC
ENDCHAR
STARTCHAR 0060
ENCODING 96
SWIDTH 328 0
DWIDTH 21 0
BBX 12 9 2 39
BITMAP
FE00
7F00
3F00
1F80
0FC0
07C0
03E0
01E0
00F0
ENDCHAR
STARTCHAR 0061
ENCODING 97
SWIDTH 563 0
DWIDTH 36 0
BBX 31 35 3 -1
BITMAP
003FF000
01FFFE00
07FFFF00
0FFFFF80
1FFFFFC0
3FC03FE0
3F800FE0
3F0007E0
7E0003E0
7E0003E0
7E0003E0
000003E0
000003E0
000007E0
00007FE0
003FFFE0
03FFFFE0
0FFFFFE0
1FFFC3E0
3FF003E0
7F0003E0
FE0003E0
FC0003E0
F80003E0
F80003E0
F80007E0
F80007E0
FC000FE0
FE003FE0
7F00FFF0
7FFFFFFE
3FFFF3FE
1FFFE1FE
0FFF81FE
01FC007E
ENDCHAR
STARTCHAR 0062
ENCODING 98
SWIDTH 563 0
DWIDTH 36 0
BBX 30 48 3 -1
BITMAP
FC000000
FC000000
FC000000
FC000000
FC000000
FC000000
FC000000
FC000000
FC000000
FC000000
FC000000
FC000000
FC000000
FC0FF000
FC3FFE00
FCFFFF00
FDFFFFC0
FDFFFFC0
FFF03FE0
FFC00FF0
FF8007F0
FF0003F8
FF0001F8
FE0001FC
FE0000FC
FC0000FC
FC0000FC
FC00007C
FC00007C
FC00007C
FC00007C
FC00007C
FC00007C
FC00007C
FC00007C
FC0000FC
FE0000FC
FE0001F8
FF0001F8
FF0003F8
FF8007F0
FFC00FF0
FFF03FE0
FBFFFFC0
F9FFFF80
F8FFFF00
F87FFC00
000FF000
ENDCHAR
STARTCHAR 0063
ENCODING 99
SWIDTH 500 0
DWIDTH 32 0
BBX 28 35 2 -1
BITMAP
001FE000
00FFFC00
01FFFE00
07FFFF80
0FFFFFC0
0FF03FC0
1FC00FE0
3F8007E0
3F0003F0
7E0003F0
7E0003F0
7C0001F0
7C000000
FC000000
FC000000
FC000000
FC000000
FC000000
FC000000
FC000000
FC000000
FC000000
FC0001F0
7C0001F0
7E0001F0
7E0003F0
3F0003F0
3F8007E0
1FC00FE0
1FF03FC0
0FFFFF80
07FFFF80
03FFFE00
00FFFC00
001FE000
ENDCHAR
STARTCHAR 0064
ENCODING 100
SWIDTH 563 0
DWIDTH 36 0
BBX 30 48 2 -1
BITMAP
000000FC
000000FC
000000FC
000000FC
000000FC
000000FC
000000FC
000000FC
000000FC
000000FC
000000FC
000000FC
000000FC
003FC0FC
00FFF0FC
03FFFCFC
07FFFEFC
0FFFFFFC
1FF03FFC
3FC00FFC
3F8007FC
7F0003FC
7E0003FC
7E0001FC
FC0001FC
FC0000FC
FC0000FC
F80000FC
F80000FC
F80000FC
F80000FC
F80000FC
F80000FC
FC0000FC
FC0000FC
FC0000FC
FC0001FC
7E0001FC
7E0001FC
7F0003FC
3F8007FC
3FC00FFC
1FF03FFC
0FFFFF7C
07FFFE7C
03FFFC7C
00FFF07C
003FC000
ENDCHAR
STARTCHAR 0065
ENCODING 101
SWIDTH 563 0
DWIDTH 36 0
BBX 30 35 3 -1
BITMAP
001FE000
00FFFC00
03FFFF00
07FFFF80
0FFFFFC0
1FE03FE0
1F800FE0
3F0007F0
7E0003F0
7E0001F8
7C0001F8
FC0000F8
FC0000F8
F80000FC
F80000FC
FFFFFFFC
FFFFFFFC
FFFFFFFC
FFFFFFFC
F8000000
F8000000
F8000000
F8000000
FC000000
FC0001F8
7E0001F8
7E0003F0
3F0007F0
3FC00FE0
1FF01FE0
0FFFFFC0
07FFFF80
03FFFF00
00FFFC00
001FE000
ENDCHAR
STARTCHAR 0066
ENCODING 102
SWIDTH 281 0
DWIDTH 18 0
BBX 15 47 1 0
BITMAP
007E
01FE
03FE
03FE
07FE
07E0
07C0
07C0
07C0
07C0
07C0
07C0
07C0
07C0
FFFE
FFFE
FFFE
FFFE
07C0
07C0
07C0
07C0
07C0
07C0
07C0
07C0
07C0
07C0
07C0
07C0
07C0
07C0
07C0
07C0
07C0
07C0
07C0
07C0
07C0
07C0
07C0
07C0
07C0
07C0
07C0
07C0
07C0
ENDCHAR
STARTCHAR 0067
ENCODING 103
SWIDTH 563 0
DWIDTH 36 0
BBX 29 47 2 -13
BITMAP
001F8000
00FFF0F8
01FFF8F8
03FFFCF8
07FFFEF8
0FE03FF8
1FC01FF8
1F800FF8
3F0007F8
3E0003F8
7E0003F8
7E0001F8
7C0001F8
7C0001F8
FC0001F8
FC0001F8
FC0001F8
FC0001F8
FC0001F8
FC0001F8
FC0001F8
FC0001F8
7C0001F8
7E0001F8
7E0003F8
7E0003F8
3F0007F8
3F800FF8
1FC01FF8
0FE03FF8
0FFFFDF8
07FFF9F8
01FFF1F8
00FFE1F8
003F81F0
000001F0
000001F0
7E0001F0
7E0003F0
3E0003E0
3F0007E0
3F800FC0
1FE03FC0
0FFFFF80
07FFFF00
03FFFC00
00FFF000
ENDCHAR
STARTCHAR 0068
ENCODING 104
SWIDTH 563 0
DWIDTH 36 0
BBX 27 47 4 0
BITMAP
FC000000
FC000000
FC000000
FC000000
FC000000
FC000000
FC000000
FC000000
FC000000
FC000000
FC000000
FC000000
FC000000
FC07F000
FC3FFE00
FC7FFF00
FCFFFF80
FDFFFFC0
FFE01FC0
FF800FE0
FF0007E0
FF0007E0
FE0003E0
FE0003E0
FC0003E0
FC0003E0
FC0003E0
FC0003E0
FC0003E0
FC0003E0
FC0003E0
FC0003E0
FC0003E0
FC0003E0
FC0003E0
FC0003E0
FC0003E0
FC0003E0
FC0003E0
FC0003E0
FC0003E0
FC0003E0
FC0003E0
FC0003E0
FC0003E0
FC0003E0
FC0003E0
ENDCHAR
STARTCHAR 0069
ENCODING 105
SWIDTH 219 0
DWIDTH 14 0
BBX 6 47 4 0
BITMAP
FC
FC
FC
FC
FC
FC
FC
00
00
00
00
00
00
00
FC
FC
FC
FC
FC
FC
FC
FC
FC
FC
FC
FC
FC
FC
FC
FC
FC
FC
FC
FC
FC
FC
FC
FC
FC
FC
FC
FC
FC
FC
FC
FC
FC
ENDCHAR
STARTCHAR 006A
ENCODING 106
SWIDTH 219 0
DWIDTH 14 0
BBX 11 61 -1 -14
BITMAP
07E0
07E0
07E0
07E0
07E0
07E0
07E0
0000
0000
0000
0000
0000
0000
0000
07E0
07E0
07E0
07E0
07E0
07E0
07E0
07E0
07E0
07E0
07E0
07E0
07E0
07E0
07E0
07E0
07E0
07E0
07E0
07E0
07E0
07E0
07E0
07E0
07E0
07E0
07E0
07E0
07E0
07E0
07E0
07E0
07E0
07E0
07E0
07E0
07E0
07E0
07E0
07E0
07E0
0FE0
FFC0
FFC0
FF80
FF00
FC00
ENDCHAR
STARTCHAR 006B
ENCODING 107
SWIDTH 500 0
DWIDTH 32 0
BBX 28 47 4 0
BITMAP
F8000000
F8000000
F8000000
F8000000
F8000000
F8000000
F8000000
F8000000
F8000000
F8000000
F8000000
F8000000
F8000000
F8000000
F8001FC0
F8003F00
F8007E00
F800FC00
F801F800
F803F000
F807E000
F80FC000
F81F8000
F83F0000
F87E0000
F8FC0000
F9FE0000
FBFF0000
FFFF0000
FFFF8000
FF9FC000
FF0FC000
FE0FE000
FC07F000
F803F000
F803F800
F801F800
F801FC00
F800FE00
F8007E00
F8007F00
F8003F80
F8001F80
F8001FC0
F8000FC0
F80007E0
F80007F0
ENDCHAR
STARTCHAR 006C
ENCODING 108
SWIDTH 219 0
DWIDTH 14 0
BBX 6 47 4 0
BITMAP
FC
FC
FC
FC
FC
FC
FC
FC
FC
FC
FC
FC
FC
FC
FC
FC
FC
FC
FC
FC
FC
FC
FC
FC
FC
FC
FC
FC
FC
FC
FC
FC
FC
FC
FC
FC
FC
FC
FC
FC
FC
FC
FC
FC
FC
FC
FC
ENDCHAR
STARTCHAR 006D
ENCODING 109
SWIDTH 829 0
DWIDTH 53 0
BBX 45 34 4 0
BITMAP
000FE001FE00
F83FFC07FF80
F8FFFE1FFFC0
F9FFFF3FFFE0
FBFFFF7FFFF0
FBC07FFC0FF0
FF803FF003F0
FF001FE003F8
FE001FE001F8
FE000FC001F8
FC000FC001F8
FC000F8001F8
FC000F8001F8
FC000F8001F8
FC000F8001F8
FC000F8001F8
FC000F8001F8
FC000F8001F8
FC000F8001F8
FC000F8001F8
FC000F8001F8
FC000F8001F8
FC000F8001F8
FC000F8001F8
FC000F8001F8
FC000F8001F8
FC000F8001F8
FC000F8001F8
FC000F8001F8
FC000F8001F8
FC000F8001F8
FC000F8001F8
FC000F8001F8
FC000F8001F8
ENDCHAR
STARTCHAR 006E
ENCODING 110
SWIDTH 563 0
DWIDTH 36 0
BBX 27 34 4 0
BITMAP
0007F000
F83FFE00
F87FFF00
F8FFFF80
F9FFFFC0
FBE01FC0
FFC00FE0
FF0007E0
FF0007E0
FE0003E0
FE0003E0
FC0003E0
FC0003E0
FC0003E0
FC0003E0
FC0003E0
FC0003E0
FC0003E0
FC0003E0
FC0003E0
FC0003E0
FC0003E0
FC0003E0
FC0003E0
FC0003E0
FC0003E0
FC0003E0
FC0003E0
FC0003E0
FC0003E0
FC0003E0
FC0003E0
FC0003E0
FC0003E0
ENDCHAR
STARTCHAR 006F
ENCODING 111
SWIDTH 563 0
DWIDTH 36 0
BBX 31 35 2 -1
BITMAP
001FF000
007FFE00
01FFFF00
03FFFFC0
07FFFFE0
0FF01FE0
1FC007F0
3F8003F8
3F0001F8
3F0001F8
7E0000FC
7E0000FC
7C0000FC
7C00007C
FC00007C
FC00007E
FC00007E
FC00007E
FC00007E
FC00007E
FC00007C
7C00007C
7C0000FC
7E0000FC
7E0000FC
3F0001F8
3F0001F8
3F8003F0
1FC007F0
0FF01FE0
0FFFFFC0
07FFFF80
01FFFF00
00FFFC00
001FE000
ENDCHAR
STARTCHAR 0070
ENCODING 112
SWIDTH 563 0
DWIDTH 36 0
BBX 30 47 3 -13
BITMAP
0007F000
F83FFE00
F87FFF00
F9FFFF80
F9FFFFC0
FBF03FE0
FFC00FF0
FF8007F0
FF0003F8
FF0001F8
FE0001F8
FE0000FC
FC0000FC
FC0000FC
FC00007C
FC00007C
FC00007C
FC00007C
FC00007C
FC00007C
FC00007C
FC00007C
FC0000FC
FE0000FC
FE0000FC
FF0001F8
FF0003F8
FF8007F0
FFC00FF0
FFF03FE0
FFFFFFC0
FDFFFF80
FCFFFF00
FC3FFC00
FC0FF000
FC000000
FC000000
FC000000
FC000000
FC000000
FC000000
FC000000
FC000000
FC000000
FC000000
FC000000
FC000000
ENDCHAR
STARTCHAR 0071
ENCODING 113
SWIDTH 563 0
DWIDTH 36 0
BBX 30 48 2 -14
BITMAP
001FC000
00FFF87C
03FFFC7C
07FFFE7C
0FFFFF7C
1FF03FFC
1FC00FFC
3F8007FC
3F0003FC
7E0003FC
7E0001FC
FC0001FC
FC0000FC
FC0000FC
F80000FC
F80000FC
F80000FC
F80000FC
F80000FC
F80000FC
FC0000FC
FC0000FC
FC0000FC
FC0001FC
7E0001FC
7E0001FC
7F0003FC
3F8007FC
3FC00FFC
1FF03FFC
0FFFFFFC
07FFFEFC
03FFFCFC
01FFF0FC
003FC0FC
000000FC
000000FC
000000FC
000000FC
000000FC
000000FC
000000FC
000000FC
000000FC
000000FC
000000FC
000000FC
000000FC
ENDCHAR
STARTCHAR 0072
ENCODING 114
SWIDTH 328 0
DWIDTH 21 0
BBX 17 34 4 0
BITMAP
000F80
F83F80
F87F80
F8FF80
F9FF80
FBFF80
FBE000
FF8000
FF0000
FE0000
FE0000
FE0000
FC0000
FC0000
FC0000
FC0000
FC0000
FC0000
FC0000
FC0000
FC0000
FC0000
FC0000
FC0000
FC0000
FC0000
FC0000
FC0000
FC0000
FC0000
FC0000
FC0000
FC0000
FC0000
ENDCHAR
STARTCHAR 0073
ENCODING 115
SWIDTH 500 0
DWIDTH 32 0
BBX 27 35 2 -1
BITMAP
003FC000
01FFF800
07FFFE00
0FFFFF00
1FFFFF00
3FC07F80
3F001F80
7E000FC0
7E000FC0
7E000FC0
7E000000
7E000000
7F000000
3FC00000
3FF80000
1FFF8000
0FFFF800
03FFFE00
00FFFF80
000FFFC0
0000FFC0
00001FE0
000007E0
000003E0
FC0003E0
FC0003E0
FC0003E0
7E0007E0
7F000FE0
3FC03FC0
3FFFFF80
1FFFFF00
0FFFFE00
03FFF800
00FFC000
ENDCHAR
STARTCHAR 0074
ENCODING 116
SWIDTH 281 0
DWIDTH 18 0
BBX 15 43 1 -1
BITMAP
0FC0
0FC0
0FC0
0FC0
0FC0
0FC0
0FC0
0FC0
0FC0
FFFE
FFFE
FFFE
FFFE
0FC0
0FC0
0FC0
0FC0
0FC0
0FC0
0FC0
0FC0
0FC0
0FC0
0FC0
0FC0
0FC0
0FC0
0FC0
0FC0
0FC0
0FC0
0FC0
0FC0
0FC0
0FC0
0FC0
0FC0
0FC0
0FFE
07FE
07FE
03FE
00FE
ENDCHAR
STARTCHAR 0075
ENCODING 117
SWIDTH 563 0
DWIDTH 36 0
BBX 27 34 4 -1
BITMAP
F80007E0
F80007E0
F80007E0
F80007E0
F80007E0
F80007E0
F80007E0
F80007E0
F80007E0
F80007E0
F80007E0
F80007E0
F80007E0
F80007E0
F80007E0
F80007E0
F80007E0
F80007E0
F80007E0
F80007E0
F80007E0
F80007E0
F80007E0
FC0007E0
FC000FE0
FC000FE0
FC001FE0
FE003FE0
7F80FFE0
7FFFFBE0
3FFFF3E0
1FFFE3E0
0FFFC3E0
01FF0000
ENDCHAR
STARTCHAR 0076
ENCODING 118
SWIDTH 500 0
DWIDTH 32 0
BBX 30 33 1 0
BITMAP
FC0000FC
FC0000F8
FC0001F8
7E0001F8
7E0003F0
3E0003F0
3F0003F0
3F0007E0
1F0007E0
1F8007C0
1F800FC0
0F800FC0
0FC00F80
0FC01F80
07C01F00
07E01F00
07E03F00
03E03E00
03F03E00
01F07C00
01F07C00
01F8FC00
00F8F800
00F8F800
00FDF800
007DF000
007DF000
007FE000
003FE000
003FE000
003FC000
001FC000
001F8000
ENDCHAR
STARTCHAR 0077
ENCODING 119
SWIDTH 720 0
DWIDTH 46 0
BBX 44 33 1 0
BITMAP
F8003F8003F0
FC003F8003F0
FC003FC003E0
FC003FC007E0
7C007FC007E0
7E007FC007E0
7E007FE007C0
3E007BE00FC0
3F00FBE00FC0
3F00FBE00F80
3F00FBF00F80
1F00F1F01F80
1F81F1F01F80
1F81F1F01F00
0F81F1F83F00
0F81E0F83F00
0FC3E0F83E00
07C3E0F83E00
07C3E07C7E00
07C3C07C7C00
07E7C07C7C00
03E7C07E7C00
03E7C03EFC00
03F7803EF800
01FF803EF800
01FF803FF800
01FF801FF000
01FF001FF000
00FF001FF000
00FF001FE000
00FF000FE000
007E000FE000
007E000FE000
ENDCHAR
STARTCHAR 0078
ENCODING 120
SWIDTH 500 0
DWIDTH 32 0
BBX 29 33 1 0
BITMAP
7E0001F8
3F0003F0
3F0007E0
1F8007C0
0FC00FC0
0FC01F80
07E01F00
03F03F00
01F87E00
01F87C00
00FCF800
007FF800
007FF000
003FE000
001FE000
001FC000
000FC000
001FE000
003FE000
003FF000
007FF800
00FDF800
01F8FC00
01F87E00
03F07E00
07E03F00
07C01F80
0FC01F80
1F800FC0
1F0007E0
3F0007F0
7E0003F0
FC0001F8
ENDCHAR
STARTCHAR 0079
ENCODING 121
SWIDTH 500 0
DWIDTH 32 0
BBX 29 47 1 -14
BITMAP
FC0000F8
7C0001F8
7E0001F8
7E0001F0
3E0003F0
3F0003E0
3F0007E0
1F0007E0
1F8007C0
1F800FC0
0F800FC0
0FC00F80
0FC01F80
07C01F80
07E01F00
03E03F00
03E03E00
03F03E00
01F07E00
01F07C00
01F8FC00
00F8FC00
00F8F800
00FDF800
007DF000
007DF000
007FF000
003FE000
003FE000
003FE000
001FC000
001FC000
001F8000
001F8000
001F8000
001F0000
003F0000
003F0000
003E0000
007E0000
007C0000
21FC0000
3FFC0000
3FF80000
3FF00000
3FE00000
1F800000
ENDCHAR
STARTCHAR 007A
ENCODING 122
SWIDTH 500 0
DWIDTH 32 0
BBX 27 33 2 0
BITMAP
7FFFFFC0
7FFFFFC0
7FFFFFC0
7FFFFFC0
7FFFFFC0
00001FC0
00003F80
00003F00
00007E00
0000FC00
0001F800
0003F800
0007F000
000FE000
000FC000
001F8000
003F0000
007F0000
00FE0000
01FC0000
01F80000
03F00000
07E00000
0FC00000
1FC00000
3F800000
7F000000
7E000000
FFFFFFE0
FFFFFFE0
FFFFFFE0
FFFFFFE0
FFFFFFE0
ENDCHAR
STARTCHAR 007B
ENCODING 123
SWIDTH 328 0
DWIDTH 21 0
BBX 15 60 3 -13
BITMAP
007E
01FE
03FE
03FE
07E0
07C0
07C0
07C0
07C0
07C0
07C0
07C0
07C0
07C0
07C0
07C0
07C0
07C0
07C0
07C0
07C0
07C0
07C0
0F80
0F80
0F80
1F80
7F00
FE00
FC00
F800
FE00
7F00
1F00
1F80
0F80
0F80
0F80
07C0
07C0
07C0
07C0
07C0
07C0
07C0
07C0
07C0
07C0
07C0
07C0
07C0
07C0
07C0
07C0
07C0
07E0
03FE
03FE
01FE
007E
ENDCHAR
STARTCHAR 007C
ENCODING 124
SWIDTH 266 0
DWIDTH 17 0
BBX 4 60 6 -13
BITMAP
F0
F0
F0
F0
F0
F0
F0
F0
F0
F0
F0
F0
F0
F0
F0
F0
F0
F0
F0
F0
F0
F0
F0
F0
F0
F0
F0
F0
F0
F0
F0
F0
F0
F0
F0
F0
F0
F0
F0
F0
F0
F0
F0
F0
F0
F0
F0
F0
F0
F0
F0
F0
F0
F0
F0
F0
F0
F0
F0
F0
ENDCHAR
STARTCHAR 007D
ENCODING 125
SWIDTH 328 0
DWIDTH 21 0
BBX 15 60 2 -13
BITMAP
FC00
FE00
FF00
FF80
1F80
0FC0
07C0
07C0
07C0
07C0
07C0
07C0
07C0
07C0
07C0
07C0
07C0
07C0
07C0
07C0
07C0
07C0
07C0
07C0
03E0
03E0
03F0
01FC
00FE
007E
007E
00FE
01FC
03F0
03E0
03E0
07C0
07C0
07C0
07C0
07C0
07C0
07C0
07C0
07C0
07C0
07C0
07C0
07C0
07C0
07C0
07C0
07C0
07C0
07C0
0F80
FF80
FF00
FE00
FC00
ENDCHAR
STARTCHAR 007E
ENCODING 126
SWIDTH 579 0
DWIDTH 37 0
BBX 27 11 5 17
BITMAP
0F800000
1FE00000
3FF800E0
7FFC00E0
7DFF00E0
F03FC1E0
F01FF3E0
E007FFC0
E003FFC0
0000FF80
00003E00
ENDCHAR
STARTCHAR 00A0
ENCODING 160
SWIDTH 281 0
DWIDTH 18 0
BBX 0 0 0 0
BITMAP
ENDCHAR
STARTCHAR 00A1
ENCODING 161
SWIDTH 328 0
DWIDTH 21 0
BBX 5 47 8 -14
BITMAP
F8
F8
F8
F8
F8
F8
F8
00
00
00
00
70
70
70
70
70
70
70
F0
F8
F8
F8
F8
F8
F8
F8
F8
F8
F8
F8
F8
F8
F8
F8
F8
F8
F8
F8
F8
F8
F8
F8
F8
F8
F8
F8
F8
ENDCHAR
STARTCHAR 00A2
ENCODING 162
SWIDTH 563 0
DWIDTH 36 0
BBX 30 48 3 -8
BITMAP
00038000
00038000
00038000
00038000
00038000
00038000
001FFC00
00FFFF00
01FFFF80
03FFFFC0
07FFFFE0
0FE38FF0
1FC383F0
1F8383F0
3F0381F8
3F0381F8
7E0380F8
7E0380F8
7C038000
7C038000
7C038000
FC038000
FC038000
FC038000
FC038000
FC038000
FC038000
7C038000
7C038000
7E0380FC
7E0380F8
3F0380F8
3F0381F8
3F8383F8
1FC383F0
0FE38FF0
0FFFBFE0
07FFFFC0
03FFFF80
00FFFF00
003FFC00
00038000
00038000
00038000
00038000
00038000
00038000
00038000
ENDCHAR
STARTCHAR 00A3
ENCODING 163
SWIDTH 563 0
DWIDTH 36 0
BBX 32 48 2 -1
BITMAP
0007F800
003FFF00
00FFFF80
03FFFFE0
07FFFFF0
0FF80FF0
0FE003F8
1FC001FC
1F8000FC
3F0000FC
3F0000FC
3F00007E
3E00007E
7E00007E
7F00007E
3F000000
3F000000
3F000000
1F800000
1F800000
0FC00000
0FE00000
FFE00000
FFFFF800
FFFFF800
FFFFF800
01F80000
01F80000
00F80000
00FC0000
00FC0000
00FC0000
00F80000
00F80000
00F80000
01F00000
01E00000
03E00000
07C00000
0F800000
1F1F8004
3EFFF81C
7FFFFFFE
FFFFFFFF
7FFFFFFF
3E03FFFE
18007FF8
00000FE0
ENDCHAR
STARTCHAR 00A4
ENCODING 164
SWIDTH 563 0
DWIDTH 36 0
BBX 27 26 4 8
BITMAP
10000100
38000380
7C3F87C0
FEFFEFE0
7FFFFFE0
3FFFFFC0
1FFFFF80
1FE0FF00
1F803F00
3F001F80
3F000F80
3E000F80
3E000F80
3E000F80
3E000F80
3E000F80
3F000F80
3F001F80
1F803F00
0FE0FF00
1FFFFF80
3FFFFFC0
7FFFFFE0
7EFFEFC0
3C3F8780
18000300
ENDCHAR
STARTCHAR 00A5
ENCODING 165
SWIDTH 563 0
DWIDTH 36 0
BBX 34 45 1 0
BITMAP
F800000FC0
FC00000F80
7E00001F00
3E00003F00
3F00003E00
1F00007E00
1F80007C00
0F8000FC00
07C000F800
07E001F000
03E001F000
03F003E000
01F007E000
01F807C000
00F80FC000
007C0F8000
007E1F8000
003E1F0000
003F3E0000
001F3E0000
001FFC0000
000FFC0000
0007F80000
1FFFFFFE00
1FFFFFFE00
1FFFFFFE00
0003F00000
0003F00000
0003F00000
0003F00000
0003F00000
1FFFFFFE00
1FFFFFFE00
1FFFFFFE00
0003F00000
0003F00000
0003F00000
0003F00000
0003F00000
0003F00000
0003F00000
0003F00000
0003F00000
0003F00000
0003F00000
ENDCHAR
STARTCHAR 00A6
ENCODING 166
SWIDTH 266 0
DWIDTH 17 0
BBX 4 60 6 -13
BITMAP
F0
F0
F0
F0
F0
F0
F0
F0
F0
F0
F0
F0
F0
F0
F0
F0
F0
F0
F0
F0
F0
F0
F0
F0
F0
F0
00
00
00
00
00
00
00
00
F0
F0
F0
F0
F0
F0
F0
F0
F0
F0
F0
F0
F0
F0
F0
F0
F0
F0
F0
F0
F0
F0
F0
F0
F0
F0
ENDCHAR
STARTCHAR 00A7
ENCODING 167
SWIDTH 563 0
DWIDTH 36 0
BBX 29 61 3 -14
BITMAP
000FE000
003FFC00
00FFFE00
01FFFF00
03FFFF80
07F83F80
07E01FC0
0FC00FC0
0FC007C0
0FC007C0
0F8007E0
0FC007E0
0FC007E0
0FC007E0
0FE00000
07F00000
07FC0000
03FE0000
03FF8000
0FFFC000
1FBFF000
3E1FF800
7C07FE00
7C03FF00
F800FFC0
F8007FE0
F8001FE0
F8000FF0
F80007F8
FC0003F8
FC0001F8
FF0000F8
7F8000F8
7FC000F8
3FE000F8
1FF800F8
0FFC00F8
03FE01F0
01FF83F0
007FC7E0
003FFFC0
000FFF80
0007FE00
0003FE00
0000FF00
00007F80
00003F80
00001F80
3E000FC0
3E000FC0
3F000FC0
3F000FC0
3F000FC0
1F801F80
1FC03F80
0FE07F00
0FFFFF00
07FFFE00
03FFFC00
00FFF000
003F8000
ENDCHAR
STARTCHAR 00A8
ENCODING 168
SWIDTH 328 0
DWIDTH 21 0
BBX 17 7 2 39
BITMAP
FE3F80
FE3F80
FE3F80
FE3F80
FE3F80
FE3F80
FE3F80
ENDCHAR
STARTCHAR 00A9
ENCODING 169
SWIDTH 735 0
DWIDTH 47 0
BBX 49 49 -1 -1
BITMAP
00000FFC000000
0000FFFF800000
0003FFFFE00000
000FFFFFF80000
001FF007FE0000
007F8000FF0000
00FE00003F8000
01F800000FC000
03F0000007E000
03E0000003F000
07C003F801F800
0F801FFE00F800
0F003FFF007C00
1F007FFF807C00
1E00FC0FC03E00
3E01F807C03E00
3C01F003E01F00
7C03E003E01F00
7C03C001E00F00
7807C001F00F00
7807C000000F80
F8078000000F80
F8078000000780
F8078000000780
F8078000000780
F8078000000780
F8078000000780
F8078000000F80
F8078000F00F80
7807C001F00F80
7807C001F00F00
7C03C001E00F00
7C03E003E01F00
3C03F003E01E00
3E01F807C03E00
1F00FE1FC03E00
1F007FFF807C00
0F803FFF00FC00
0FC01FFC00F800
07E003F001F000
03F0000007E000
01F800000FC000
00FE00003F8000
007F8000FF0000
003FF007FE0000
000FFFFFF80000
0003FFFFE00000
0000FFFF800000
00001FF8000000
ENDCHAR
STARTCHAR 00AA
ENCODING 170
SWIDTH 375 0
DWIDTH 24 0
BBX 19 28 2 20
BITMAP
03F800
0FFE00
1FFF00
3E1F80
3C0780
780780
780380
000780
000780
01FF80
0FFF80
3FFB80
7E0380
780380
700380
F00780
F00780
780F80
7C7F80
7FFBE0
3FF3E0
0FC1E0
000000
000000
000000
7FFFC0
7FFFC0
7FFFC0
ENDCHAR
STARTCHAR 00AB
ENCODING 171
SWIDTH 563 0
DWIDTH 36 0
BBX 23 21 6 7
BITMAP
004002
00C006
01C00E
03C01E
0FC07E
1FC0FE
3F01FC
7E03F0
FC07E0
F807C0
E00700
F00780
FC07E0
FE07F0
7F01F8
1F80FE
0FC07E
07C03E
01C00E
00C006
004002
ENDCHAR
STARTCHAR 00AC
ENCODING 172
SWIDTH 579 0
DWIDTH 37 0
BBX 32 18 3 6
BITMAP
FFFFFFFF
FFFFFFFF
FFFFFFFF
FFFFFFFF
0000001F
0000001F
0000001F
0000001F
0000001F
0000001F
0000001F
0000001F
0000001F
0000001F
0000001F
0000001F
0000001F
0000001F
ENDCHAR
STARTCHAR 00AD
ENCODING 173
SWIDTH 328 0
DWIDTH 21 0
BBX 15 5 3 15
BITMAP
FFFE
FFFE
FFFE
FFFE
FFFE
ENDCHAR
STARTCHAR 00AE
ENCODING 174
SWIDTH 735 0
DWIDTH 47 0
BBX 49 49 -1 -1
BITMAP
00000FFC000000
0000FFFF800000
0003FFFFE00000
000FFFFFF80000
001FF007FE0000
007F8000FF0000
00FE00003F8000
01F800000FC000
03F0000007E000
07E0000003F000
07C3FFFE01F800
0F83FFFF80F800
1F03FFFFC07C00
1F03FFFFE07C00
3E03C007F03E00
3E03C001F01E00
3C03C001F01F00
7C03C001F01F00
7803C001F00F00
7803C001F00F00
7803C001F00F80
F803C001F00F80
F803C007E00780
F803FFFFC00780
F803FFFF800780
F803FFFFC00780
F803FFFFE00780
F803C007E00F80
F803C003E00F80
7803C001E00F80
7803C001E00F00
7C03C001E00F00
7C03C001F01F00
3E03C001F01E00
3E03C001F03E00
1F03C001F03C00
1F03C001F07C00
0F83C000F8F800
07C3C000F9F800
07E0000003F000
03F0000007E000
01F800000FC000
00FE00003F8000
007F8000FF0000
003FF007FE0000
000FFFFFF80000
0003FFFFE00000
0000FFFF800000
00001FF8000000
ENDCHAR
STARTCHAR 00AF
ENCODING 175
SWIDTH 328 0
DWIDTH 21 0
BBX 17 4 2 41
BITMAP
FFFF80
FFFF80
FFFF80
FFFF80
ENDCHAR
STARTCHAR 00B0
ENCODING 176
SWIDTH 406 0
DWIDTH 26 0
BBX 19 20 3 24
BITMAP
01F800
07FE00
1FFF00
3FFF80
3E07C0
7803E0
7801E0
F001E0
F000E0
F000E0
F000E0
F000E0
F001E0
7801E0
7C03C0
3E0FC0
1FFF80
0FFF00
07FC00
00E000
ENDCHAR
STARTCHAR 00B1
ENCODING 177
SWIDTH 579 0
DWIDTH 37 0
BBX 31 41 3 -1
BITMAP
0007C000
0007C000
0007C000
0007C000
0007C000
0007C000
0007C000
0007C000
0007C000
0007C000
0007C000
0007C000
0007C000
0007C000
FFFFFFFE
FFFFFFFE
FFFFFFFE
FFFFFFFE
0007C000
0007C000
0007C000
0007C000
0007C000
0007C000
0007C000
0007C000
0007C000
0007C000
0007C000
0007C000
0007C000
00000000
00000000
00000000
00000000
00000000
00000000
FFFFFFFE
FFFFFFFE
FFFFFFFE
FFFFFFFE
ENDCHAR
STARTCHAR 00B2
ENCODING 178
SWIDTH 328 0
DWIDTH 21 0
BBX 19 27 1 18
BITMAP
03F800
0FFF00
1FFF80
3FBFC0
7C07C0
7803E0
7801E0
F001E0
F001E0
F001E0
0001E0
0003C0
0007C0
001F80
007F00
01FC00
07F800
0FE000
1F8000
3E0000
7C0000
780000
F80000
FFFFE0
FFFFE0
FFFFE0
FFFFE0
ENDCHAR
STARTCHAR 00B3
ENCODING 179
SWIDTH 328 0
DWIDTH 21 0
BBX 20 28 0 17
BITMAP
01FC00
0FFF00
1FFF80
3F9FC0
3E03E0
3C01E0
7801E0
7801E0
7801E0
0001E0
0003C0
003FC0
00FF00
00FF80
00FFC0
0003E0
0001E0
0000F0
0000F0
F000F0
7800F0
7800F0
7801E0
7C03E0
3F9FC0
1FFF80
0FFF00
03FC00
ENDCHAR
STARTCHAR 00B4
ENCODING 180
SWIDTH 328 0
DWIDTH 21 0
BBX 13 9 6 39
BITMAP
03F8
07F0
0FE0
0FC0
1F80
3F00
3E00
7C00
F800
ENDCHAR
STARTCHAR 00B5
ENCODING 181
SWIDTH 563 0
DWIDTH 36 0
BBX 31 47 4 -14
BITMAP
F80007E0
F80007E0
F80007E0
F80007E0
F80007E0
F80007E0
F80007E0
F80007E0
F80007E0
F80007E0
F80007E0
F80007E0
F80007E0
F80007E0
F80007E0
F80007E0
F80007E0
F80007E0
F80007E0
F80007E0
F80007E0
F80007E0
F80007E0
FC0007E0
FC000FE0
FC000FE0
FC001FE0
FE003FE0
FF80FFE0
FFFFFBFA
FFFFF3FE
FFFFE3FE
FBFF81FE
F8FE00FC
F8000000
F8000000
F8000000
F8000000
F8000000
F8000000
F8000000
F8000000
F8000000
F8000000
F8000000
F8000000
F8000000
ENDCHAR
STARTCHAR 00B6
ENCODING 182
SWIDTH 532 0
DWIDTH 34 0
BBX 30 58 3 -11
BITMAP
001FFFFC
00FFFFFC
01FFFFFC
07FFFFFC
0FFF81E0
1FFF81E0
1FFF81E0
3FFF81E0
3FFF81E0
7FFF81E0
7FFF81E0
7FFF81E0
FFFF81E0
FFFF81E0
FFFF81E0
FFFF81E0
FFFF81E0
FFFF81E0
FFFF81E0
7FFF81E0
7FFF81E0
7FFF81E0
3FFF81E0
3FFF81E0
1FFF81E0
0FFF81E0
0FFF81E0
03FF81E0
01FF81E0
003F81E0
000781E0
000781E0
000781E0
000781E0
000781E0
000781E0
000781E0
000781E0
000781E0
000781E0
000781E0
000781E0
000781E0
000781E0
000781E0
000781E0
000781E0
000781E0
000781E0
000781E0
000781E0
000781E0
000781E0
000781E0
000781E0
000781E0
000781E0
000781E0
ENDCHAR
STARTCHAR 00B7
ENCODING 183
SWIDTH 281 0
DWIDTH 18 0
BBX 7 7 7 14
BITMAP
FE
FE
FE
FE
FE
FE
FE
ENDCHAR
STARTCHAR 00B8
ENCODING 184
SWIDTH 328 0
DWIDTH 21 0
BBX 15 14 3 -14
BITMAP
01C0
0180
0380
03A0
07FC
07FE
003E
003E
001E
403E
F07E
FFFC
3FF0
0300
ENDCHAR
STARTCHAR 00B9
ENCODING 185
SWIDTH 328 0
DWIDTH 21 0
BBX 11 27 3 18
BITMAP
00E0
01E0
01E0
03E0
0FE0
FFE0
FFE0
FFE0
01E0
01E0
01E0
01E0
01E0
01E0
01E0
01E0
01E0
01E0
01E0
01E0
01E0
01E0
01E0
01E0
01E0
01E0
01E0
ENDCHAR
STARTCHAR 00BA
ENCODING 186
SWIDTH 360 0
DWIDTH 23 0
BBX 18 28 3 20
BITMAP
07F000
1FFC00
3FFE00
7E3F00
780F00
F80780
F00780
F00380
E003C0
E003C0
E003C0
E003C0
E003C0
F003C0
F00380
F00780
F80780
7C0F00
7E3F00
3FFE00
1FFC00
07F000
000000
000000
000000
FFFF80
FFFF80
FFFF80
ENDCHAR
STARTCHAR 00BB
ENCODING 187
SWIDTH 563 0
DWIDTH 36 0
BBX 23 21 6 7
BITMAP
800400
C00600
E00700
F80780
FC07E0
FE07F0
3F83F8
1FC0FE
0FC07E
03C03E
01C00E
03C01E
07C07E
1FC0FE
3F81F8
7E03F0
FC07E0
F807C0
F00700
C00600
800400
ENDCHAR
STARTCHAR 00BC
ENCODING 188
SWIDTH 829 0
DWIDTH 53 0
BBX 50 47 2 -1
BITMAP
01C00000078000
01C000000F0000
01C000000E0000
03C000001E0000
07C000003C0000
3FC00000380000
FFC00000780000
FFC00000F00000
FFC00000F00000
03C00001E00000
03C00001C00000
03C00003C00000
03C00007800000
03C00007000000
03C0000F000000
03C0000E000000
03C0001E000000
03C0003C000000
03C00038000000
03C00078003C00
03C000F0007C00
03C000F0007C00
03C001E000FC00
03C001C001FC00
03C003C003FC00
03C0078003BC00
03C0070007BC00
03C00F000F3C00
00001E001E3C00
00001E003C3C00
00003C003C3C00
00003800783C00
00007800F03C00
0000F001E03C00
0000E001E03C00
0001E003C03C00
0003C003FFFFC0
0003C003FFFFC0
00078003FFFFC0
00070000003C00
000F0000003C00
001E0000003C00
001C0000003C00
003C0000003C00
00780000003C00
00780000003C00
00F00000000000
ENDCHAR
STARTCHAR 00BD
ENCODING 189
SWIDTH 829 0
DWIDTH 53 0
BBX 50 47 2 -1
BITMAP
01C000001E0000
01C000001C0000
01C000003C0000
03C00000780000
07C00000700000
3FC00000F00000
FFC00001E00000
FFC00001E00000
FFC00003C00000
03C00003800000
03C00007800000
03C0000F000000
03C0000E000000
03C0001E000000
03C0001C000000
03C0003C000000
03C00078000000
03C00070000000
03C000F0000000
03C001E00FF800
03C001E03FFE00
03C003C07FFF00
03C00380FC1F00
03C00780F00F80
03C00F01E00780
03C00E01E007C0
03C01E01E003C0
03C03C01E003C0
00003C00000780
00007800000780
00007000000F80
0000F000003F00
0001E000007E00
0001C00001FC00
0003C00007F000
000780001FC000
000780003F0000
000F00007C0000
000E0000F80000
001E0001F00000
003C0001E00000
00380001E00000
00780003FFFF80
00700003FFFF80
00F00003FFFF80
01E00003FFFF80
01C00000000000
ENDCHAR
STARTCHAR 00BE
ENCODING 190
SWIDTH 829 0
DWIDTH 53 0
BBX 50 46 2 -1
BITMAP
03F8000003C000
0FFE0000038000
3FFF0000078000
3F3F80000F0000
7C07C0000F0000
7803C0001E0000
F003C0001C0000
F003C0003C0000
F003C000780000
0003C000700000
0007C000F00000
007F8001E00000
01FF0001C00000
01FF0003C00000
01FF8003800000
0007C007800000
0003E00F000000
0001E00E000000
0001E01E003C00
F001E03C003C00
F001E038007C00
F001E07800FC00
F803E07001FC00
7807C0F003FC00
7F3FC1E003FC00
3FFF81C007BC00
1FFE03C00F3C00
03F807801E3C00
000007003E3C00
00000F003C3C00
00001E00783C00
00001E00F03C00
00003C01E03C00
00003801E03C00
00007803C03C00
0000F003FFFFC0
0000E003FFFFC0
0001E003FFFFC0
0003C000003C00
0003C000003C00
00078000003C00
00070000003C00
000F0000003C00
001E0000003C00
001C0000003C00
003C0000000000
ENDCHAR
STARTCHAR 00BF
ENCODING 191
SWIDTH 610 0
DWIDTH 39 0
BBX 28 47 6 -14
BITMAP
000F8000
000F8000
000F8000
000F8000
000F8000
000F8000
000F8000
00000000
00000000
00000000
00000000
00000000
00000000
000F8000
000F8000
000F8000
000F8000
001F8000
001F8000
003F8000
003F0000
007F0000
00FE0000
03FC0000
07F80000
0FF00000
1FE00000
1F800000
3F800000
7F000000
7E000000
7E000000
FC0003F0
FC0003F0
FC0003F0
FC0003F0
FC0003E0
FC0003E0
7E0007E0
7F000FE0
7F801FC0
3FE03FC0
1FFFFF80
0FFFFF00
07FFFE00
01FFF800
007FC000
ENDCHAR
STARTCHAR 00C0
ENCODING 192
SWIDTH 673 0
DWIDTH 43 0
BBX 41 60 1 0
BITMAP
000FE0000000
0007F0000000
0003F0000000
0001F8000000
0000FC000000
00007C000000
00003E000000
00001F000000
00000F000000
000000000000
000000000000
000000000000
000000000000
00007F800000
0000FF800000
0000FF800000
0001FFC00000
0001FFC00000
0001FFC00000
0003FFE00000
0003F7E00000
0003F7E00000
0007E7F00000
0007E3F00000
0007E3F00000
000FC3F80000
000FC1F80000
000FC1F80000
001F81FC0000
001F80FC0000
001F80FC0000
003F00FE0000
003F007E0000
007E007F0000
007E007F0000
007E003F0000
00FC003F8000
00FC003F8000
00FC001F8000
01F8001FC000
01F8001FC000
01FFFFFFC000
03FFFFFFE000
03FFFFFFE000
03FFFFFFE000
07FFFFFFF000
07E00007F000
07E00003F000
0FC00003F800
0FC00003F800
1FC00001F800
1F800001FC00
1F800001FC00
3F800000FC00
3F000000FE00
3F0000007E00
7F0000007F00
7E0000007F00
7E0000003F00
FE0000003F80
ENDCHAR
STARTCHAR 00C1
ENCODING 193
SWIDTH 673 0
DWIDTH 43 0
BBX 41 60 1 0
BITMAP
000003F80000
000007F00000
000007E00000
00000FC00000
00001F800000
00001F000000
00003E000000
00007C000000
000078000000
000000000000
000000000000
000000000000
000000000000
00007F800000
0000FF800000
0000FF800000
0001FFC00000
0001FFC00000
0001FFC00000
0003FFE00000
0003F7E00000
0003F7E00000
0007E7F00000
0007E3F00000
0007E3F00000
000FC3F80000
000FC1F80000
000FC1F80000
001F81FC0000
001F80FC0000
001F80FC0000
003F00FE0000
003F007E0000
007E007F0000
007E007F0000
007E003F0000
00FC003F8000
00FC003F8000
00FC001F8000
01F8001FC000
01F8001FC000
01FFFFFFC000
03FFFFFFE000
03FFFFFFE000
03FFFFFFE000
07FFFFFFF000
07E00007F000
07E00003F000
0FC00003F800
0FC00003F800
1FC00001F800
1F800001FC00
1F800001FC00
3F800000FC00
3F000000FE00
3F0000007E00
7F0000007F00
7E0000007F00
7E0000003F00
FE0000003F80
ENDCHAR
STARTCHAR 00C2
ENCODING 194
SWIDTH 673 0
DWIDTH 43 0
BBX 41 60 1 0
BITMAP
00007F000000
0000FF800000
0001FF800000
0001F7C00000
0003E3E00000
0003C3E00000
000781F00000
000F80F80000
000F00780000
000000000000
000000000000
000000000000
000000000000
00007F800000
0000FF800000
0000FF800000
0001FFC00000
0001FFC00000
0001FFC00000
0003FFE00000
0003F7E00000
0003F7E00000
0007E7F00000
0007E3F00000
0007E3F00000
000FC3F80000
000FC1F80000
000FC1F80000
001F81FC0000
001F80FC0000
001F80FC0000
003F00FE0000
003F007E0000
007E007F0000
007E007F0000
007E003F0000
00FC003F8000
00FC003F8000
00FC001F8000
01F8001FC000
01F8001FC000
01FFFFFFC000
03FFFFFFE000
03FFFFFFE000
03FFFFFFE000
07FFFFFFF000
07E00007F000
07E00003F000
0FC00003F800
0FC00003F800
1FC00001F800
1F800001FC00
1F800001FC00
3F800000FC00
3F000000FE00
3F0000007E00
7F0000007F00
7E0000007F00
7E0000003F00
FE0000003F80
ENDCHAR
STARTCHAR 00C3
ENCODING 195
SWIDTH 673 0
DWIDTH 43 0
BBX 41 59 1 0
BITMAP
0003C01C0000
0007F03C0000
000FFF7C0000
001FFFF80000
001E7FF80000
001E0FF00000
003C03E00000
000000000000
000000000000
000000000000
000000000000
000000000000
00007F800000
0000FF800000
0000FF800000
0001FFC00000
0001FFC00000
0001FFC00000
0003FFE00000
0003F7E00000
0003F7E00000
0007E7F00000
0007E3F00000
0007E3F00000
000FC3F80000
000FC1F80000
000FC1F80000
001F81FC0000
001F80FC0000
001F80FC0000
003F00FE0000
003F007E0000
007E007F0000
007E007F0000
007E003F0000
00FC003F8000
00FC003F8000
00FC001F8000
01F8001FC000
01F8001FC000
01FFFFFFC000
03FFFFFFE000
03FFFFFFE000
03FFFFFFE000
07FFFFFFF000
07E00007F000
07E00003F000
0FC00003F800
0FC00003F800
1FC00001F800
1F800001FC00
1F800001FC00
3F800000FC00
3F000000FE00
3F0000007E00
7F0000007F00
7E0000007F00
7E0000003F00
FE0000003F80
ENDCHAR
STARTCHAR 00C4
ENCODING 196
SWIDTH 673 0
DWIDTH 43 0
BBX 41 59 1 0
BITMAP
000FE3F80000
000FE3F80000
000FE3F80000
000FE3F80000
000FE3F80000
000FE3F80000
000FE3F80000
000000000000
000000000000
000000000000
000000000000
000000000000
00007F800000
0000FF800000
0000FF800000
0001FFC00000
0001FFC00000
0001FFC00000
0003FFE00000
0003F7E00000
0003F7E00000
0007E7F00000
0007E3F00000
0007E3F00000
000FC3F80000
000FC1F80000
000FC1F80000
001F81FC0000
001F80FC0000
001F80FC0000
003F00FE0000
003F007E0000
007E007F0000
007E007F0000
007E003F0000
00FC003F8000
00FC003F8000
00FC001F8000
01F8001FC000
01F8001FC000
01FFFFFFC000
03FFFFFFE000
03FFFFFFE000
03FFFFFFE000
07FFFFFFF000
07E00007F000
07E00003F000
0FC00003F800
0FC00003F800
1FC00001F800
1F800001FC00
1F800001FC00
3F800000FC00
3F000000FE00
3F0000007E00
7F0000007F00
7E0000007F00
7E0000003F00
FE0000003F80
ENDCHAR
STARTCHAR 00C5
ENCODING 197
SWIDTH 673 0
DWIDTH 43 0
BBX 41 61 1 0
BITMAP
00003E000000
00007F000000
0000FF800000
0001E3C00000
0001C1C00000
0001C1C00000
0001C1C00000
0001E3C00000
0000FF800000
00007F000000
00001C000000
000000000000
000000000000
000000000000
00007F800000
0000FF800000
0000FF800000
0001FFC00000
0001FFC00000
0001FFC00000
0003FFE00000
0003F7E00000
0003F7E00000
0007E7F00000
0007E3F00000
0007E3F00000
000FC3F80000
000FC1F80000
000FC1F80000
001F81FC0000
001F80FC0000
001F80FC0000
003F00FE0000
003F007E0000
007E007F0000
007E007F0000
007E003F0000
00FC003F8000
00FC003F8000
00FC001F8000
01F8001FC000
01F8001FC000
01FFFFFFC000
03FFFFFFE000
03FFFFFFE000
03FFFFFFE000
07FFFFFFF000
07E00007F000
07E00003F000
0FC00003F800
0FC00003F800
1FC00001F800
1F800001FC00
1F800001FC00
3F800000FC00
3F000000FE00
3F0000007E00
7F0000007F00
7E0000007F00
7E0000003F00
FE0000003F80
ENDCHAR
STARTCHAR 00C6
ENCODING 198
SWIDTH 1001 0
DWIDTH 64 0
BBX 60 47 1 0
BITMAP
00001FFFFFFFFFE0
00003FFFFFFFFFE0
00003FFFFFFFFFE0
00007FFFFFFFFFE0
00007FFFFFFFFFE0
00007C07E0000000
0000FC07E0000000
0000FC07E0000000
0001F807E0000000
0001F807E0000000
0001F007E0000000
0003F007E0000000
0003F007E0000000
0007E007E0000000
0007E007E0000000
000FE007E0000000
000FC007E0000000
000FC007E0000000
001F8007E0000000
001F8007E0000000
003F8007FFFFFF80
003F0007FFFFFF80
003F0007FFFFFF80
007E0007FFFFFF80
007E0007FFFFFF80
00FE0007E0000000
00FC0007E0000000
00FC0007E0000000
01FFFFFFE0000000
01FFFFFFE0000000
03FFFFFFE0000000
03FFFFFFE0000000
03FFFFFFE0000000
07F00007E0000000
07E00007E0000000
0FE00007E0000000
0FC00007E0000000
0FC00007E0000000
1FC00007E0000000
1F800007E0000000
3F800007E0000000
3F000007E0000000
3F000007FFFFFFF0
7F000007FFFFFFF0
7E000007FFFFFFF0
FE000007FFFFFFF0
FC000007FFFFFFF0
ENDCHAR
STARTCHAR 00C7
ENCODING 199
SWIDTH 720 0
DWIDTH 46 0
BBX 40 62 3 -14
BITMAP
0000FFE000
0007FFFC00
001FFFFF00
007FFFFF80
00FFFFFFC0
01FFC0FFE0
03FE001FF0
07F80007F8
07F00003F8
0FE00001FC
1FC00000FC
1F800000FC
3F800000FE
3F0000007E
3F0000007E
7E00000000
7E00000000
7E00000000
7E00000000
FC00000000
FC00000000
FC00000000
FC00000000
FC00000000
FC00000000
FC00000000
FC00000000
FC00000000
FC00000000
FC00000000
FE00000000
7E0000003F
7E0000003F
7E0000003F
7F0000007F
3F0000007E
3F0000007E
3F800000FE
1FC00000FE
1FC00001FC
0FE00001FC
07F00003F8
07FC000FF0
03FF001FF0
01FFFFFFE0
00FFFFFFC0
007FFFFF80
001FFFFE00
0007FFF800
00003E0000
0000380000
0000300000
00003FC000
00007FE000
000047E000
000003E000
000003E000
000C03E000
000F07E000
001FFFC000
0003FF0000
0000300000
ENDCHAR
STARTCHAR 00C8
ENCODING 200
SWIDTH 673 0
DWIDTH 43 0
BBX 33 60 6 0
BITMAP
00FE000000
007F000000
003F000000
001F800000
000FC00000
0007C00000
0003E00000
0001F00000
0000F00000
0000000000
0000000000
0000000000
0000000000
FFFFFFFF00
FFFFFFFF00
FFFFFFFF00
FFFFFFFF00
FFFFFFFF00
FC00000000
FC00000000
FC00000000
FC00000000
FC00000000
FC00000000
FC00000000
FC00000000
FC00000000
FC00000000
FC00000000
FC00000000
FC00000000
FC00000000
FC00000000
FFFFFFFE00
FFFFFFFE00
FFFFFFFE00
FFFFFFFE00
FFFFFFFE00
FC00000000
FC00000000
FC00000000
FC00000000
FC00000000
FC00000000
FC00000000
FC00000000
FC00000000
FC00000000
FC00000000
FC00000000
FC00000000
FC00000000
FC00000000
FC00000000
FC00000000
FFFFFFFF80
FFFFFFFF80
FFFFFFFF80
FFFFFFFF80
FFFFFFFF80
ENDCHAR
STARTCHAR 00C9
ENCODING 201
SWIDTH 673 0
DWIDTH 43 0
BBX 33 60 6 0
BITMAP
00007F0000
0000FE0000
0000FC0000
0001F80000
0003F00000
0003E00000
0007C00000
000F800000
000F000000
0000000000
0000000000
0000000000
0000000000
FFFFFFFF00
FFFFFFFF00
FFFFFFFF00
FFFFFFFF00
FFFFFFFF00
FC00000000
FC00000000
FC00000000
FC00000000
FC00000000
FC00000000
FC00000000
FC00000000
FC00000000
FC00000000
FC00000000
FC00000000
FC00000000
FC00000000
FC00000000
FFFFFFFE00
FFFFFFFE00
FFFFFFFE00
FFFFFFFE00
FFFFFFFE00
FC00000000
FC00000000
FC00000000
FC00000000
FC00000000
FC00000000
FC00000000
FC00000000
FC00000000
FC00000000
FC00000000
FC00000000
FC00000000
FC00000000
FC00000000
FC00000000
FC00000000
FFFFFFFF80
FFFFFFFF80
FFFFFFFF80
FFFFFFFF80
FFFFFFFF80
ENDCHAR
STARTCHAR 00CA
ENCODING 202
SWIDTH 673 0
DWIDTH 43 0
BBX 33 60 6 0
BITMAP
000FF00000
000FF00000
001FF80000
003FFC0000
003E7C0000
007C3E0000
00F81F0000
00F00F0000
01E0078000
0000000000
0000000000
0000000000
0000000000
FFFFFFFF00
FFFFFFFF00
FFFFFFFF00
FFFFFFFF00
FFFFFFFF00
FC00000000
FC00000000
FC00000000
FC00000000
FC00000000
FC00000000
FC00000000
FC00000000
FC00000000
FC00000000
FC00000000
FC00000000
FC00000000
FC00000000
FC00000000
FFFFFFFE00
FFFFFFFE00
FFFFFFFE00
FFFFFFFE00
FFFFFFFE00
FC00000000
FC00000000
FC00000000
FC00000000
FC00000000
FC00000000
FC00000000
FC00000000
FC00000000
FC00000000
FC00000000
FC00000000
FC00000000
FC00000000
FC00000000
FC00000000
FC00000000
FFFFFFFF80
FFFFFFFF80
FFFFFFFF80
FFFFFFFF80
FFFFFFFF80
ENDCHAR
STARTCHAR 00CB
ENCODING 203
SWIDTH 673 0
DWIDTH 43 0
BBX 33 59 6 0
BITMAP
01FC3F0000
01FC3F0000
01FC3F0000
01FC3F0000
01FC3F0000
01FC3F0000
01FC3F0000
0000000000
0000000000
0000000000
0000000000
0000000000
FFFFFFFF00
FFFFFFFF00
FFFFFFFF00
FFFFFFFF00
FFFFFFFF00
FC00000000
FC00000000
FC00000000
FC00000000
FC00000000
FC00000000
FC00000000
FC00000000
FC00000000
FC00000000
FC00000000
FC00000000
FC00000000
FC00000000
FC00000000
FFFFFFFE00
FFFFFFFE00
FFFFFFFE00
FFFFFFFE00
FFFFFFFE00
FC00000000
FC00000000
FC00000000
FC00000000
FC00000000
FC00000000
FC00000000
FC00000000
FC00000000
FC00000000
FC00000000
FC00000000
FC00000000
FC00000000
FC00000000
FC00000000
FC00000000
FFFFFFFF80
FFFFFFFF80
FFFFFFFF80
FFFFFFFF80
FFFFFFFF80
ENDCHAR
STARTCHAR 00CC
ENCODING 204
SWIDTH 281 0
DWIDTH 18 0
BBX 12 60 1 0
BITMAP
FE00
7F00
3F00
1F80
0F80
07C0
03E0
01E0
00F0
0000
0000
0000
0000
07E0
07E0
07E0
07E0
07E0
07E0
07E0
07E0
07E0
07E0
07E0
07E0
07E0
07E0
07E0
07E0
07E0
07E0
07E0
07E0
07E0
07E0
07E0
07E0
07E0
07E0
07E0
07E0
07E0
07E0
07E0
07E0
07E0
07E0
07E0
07E0
07E0
07E0
07E0
07E0
07E0
07E0
07E0
07E0
07E0
07E0
07E0
ENDCHAR
STARTCHAR 00CD
ENCODING 205
SWIDTH 281 0
DWIDTH 18 0
BBX 12 60 5 0
BITMAP
07F0
0FE0
0FC0
1F80
3F00
3E00
7C00
7800
F000
0000
0000
0000
0000
7E00
7E00
7E00
7E00
7E00
7E00
7E00
7E00
7E00
7E00
7E00
7E00
7E00
7E00
7E00
7E00
7E00
7E00
7E00
7E00
7E00
7E00
7E00
7E00
7E00
7E00
7E00
7E00
7E00
7E00
7E00
7E00
7E00
7E00
7E00
7E00
7E00
7E00
7E00
7E00
7E00
7E00
7E00
7E00
7E00
7E00
7E00
ENDCHAR
STARTCHAR 00CE
ENCODING 206
SWIDTH 281 0
DWIDTH 18 0
BBX 18 60 0 0
BITMAP
07F800
07F800
0FFC00
0FFE00
1F3E00
3E1F00
3C0F80
780780
F803C0
000000
000000
000000
000000
03F000
03F000
03F000
03F000
03F000
03F000
03F000
03F000
03F000
03F000
03F000
03F000
03F000
03F000
03F000
03F000
03F000
03F000
03F000
03F000
03F000
03F000
03F000
03F000
03F000
03F000
03F000
03F000
03F000
03F000
03F000
03F000
03F000
03F000
03F000
03F000
03F000
03F000
03F000
03F000
03F000
03F000
03F000
03F000
03F000
03F000
03F000
ENDCHAR
STARTCHAR 00CF
ENCODING 207
SWIDTH 281 0
DWIDTH 18 0
BBX 17 59 1 0
BITMAP
FC3F80
FC3F80
FC3F80
FC3F80
FC3F80
FC3F80
FC3F80
000000
000000
000000
000000
000000
07E000
07E000
07E000
07E000
07E000
07E000
07E000
07E000
07E000
07E000
07E000
07E000
07E000
07E000
07E000
07E000
07E000
07E000
07E000
07E000
07E000
07E000
07E000
07E000
07E000
07E000
07E000
07E000
07E000
07E000
07E000
07E000
07E000
07E000
07E000
07E000
07E000
07E000
07E000
07E000
07E000
07E000
07E000
07E000
07E000
07E000
07E000
ENDCHAR
STARTCHAR 00D0
ENCODING 208
SWIDTH 720 0
DWIDTH 46 0
BBX 42 47 1 0
BITMAP
07FFFFE00000
07FFFFFC0000
07FFFFFF0000
07FFFFFFC000
07FFFFFFE000
07E000FFF000
07E0000FF800
07E00003FC00
07E00001FC00
07E00000FE00
07E000007E00
07E000007F00
07E000003F00
07E000003F00
07E000001F80
07E000001F80
07E000001F80
07E000001F80
07E000001F80
07E000000F80
07E000000FC0
FFFFFC000FC0
FFFFFC000FC0
FFFFFC000FC0
FFFFFC000FC0
07E000000FC0
07E000000FC0
07E000001F80
07E000001F80
07E000001F80
07E000001F80
07E000001F80
07E000003F80
07E000003F00
07E000003F00
07E000007F00
07E000007E00
07E00000FE00
07E00001FC00
07E00003F800
07E0000FF800
07E0007FF000
07FFFFFFE000
07FFFFFFC000
07FFFFFF0000
07FFFFFC0000
07FFFFE00000
ENDCHAR
STARTCHAR 00D1
ENCODING 209
SWIDTH 720 0
DWIDTH 46 0
BBX 36 59 5 0
BITMAP
000F007000
001FC0F000
003FFDF000
007FFFF000
0078FFE000
00783FC000
00F00F8000
0000000000
0000000000
0000000000
0000000000
0000000000
FE000001F0
FE000001F0
FF000001F0
FF800001F0
FF800001F0
FFC00001F0
FFC00001F0
FFE00001F0
FFF00001F0
FBF00001F0
FBF80001F0
F9FC0001F0
F8FC0001F0
F8FE0001F0
F87E0001F0
F83F0001F0
F83F8001F0
F81F8001F0
F80FC001F0
F80FE001F0
F807E001F0
F807F001F0
F803F801F0
F801F801F0
F801FC01F0
F800FC01F0
F8007E01F0
F8007F01F0
F8003F01F0
F8003F81F0
F8001FC1F0
F8000FC1F0
F8000FE1F0
F80007F1F0
F80003F1F0
F80003F9F0
F80001F9F0
F80001FDF0
F80000FFF0
F800007FF0
F800007FF0
F800003FF0
F800001FF0
F800001FF0
F800000FF0
F8000007F0
F8000007F0
ENDCHAR
STARTCHAR 00D2
ENCODING 210
SWIDTH 782 0
DWIDTH 50 0
BBX 45 62 2 -1
BITMAP
0003F8000000
0001FC000000
0000FC000000
00007E000000
00003F000000
00001F000000
00000F800000
000007C00000
000003C00000
000001E00000
000000000000
000000000000
000000000000
00003FF00000
0003FFFF0000
000FFFFFC000
001FFFFFF000
007FFFFFF800
00FFF07FFC00
01FF0007FE00
03FC0001FF00
07F800007F80
07F000003F80
0FE000001FC0
1FC000000FE0
1F8000000FE0
3F80000007E0
3F00000007F0
3F00000003F0
7F00000003F0
7E00000001F8
7E00000001F8
7E00000001F8
7E00000001F8
7E00000001F8
7C00000001F8
FC00000001F8
FC00000001F8
FC00000001F8
7C00000001F8
7E00000001F8
7E00000001F8
7E00000001F8
7E00000001F8
7E00000001F8
7F00000003F0
3F00000003F0
3F00000007F0
3F80000007E0
1FC000000FE0
1FC000000FC0
0FE000001FC0
0FF000003F80
07F800007F80
03FE0001FF00
01FF0007FE00
00FFF03FFC00
007FFFFFF800
003FFFFFE000
000FFFFFC000
0003FFFE0000
00003FF00000
ENDCHAR
STARTCHAR 00D3
ENCODING 211
SWIDTH 782 0
DWIDTH 50 0
BBX 45 62 2 -1
BITMAP
0000007F0000
000000FE0000
000001FC0000
000001F80000
000003F00000
000007E00000
000007C00000
00000F800000
00001F000000
00001E000000
000000000000
000000000000
000000000000
00003FF00000
0003FFFF0000
000FFFFFC000
001FFFFFF000
007FFFFFF800
00FFF07FFC00
01FF0007FE00
03FC0001FF00
07F800007F80
07F000003F80
0FE000001FC0
1FC000000FE0
1F8000000FE0
3F80000007E0
3F00000007F0
3F00000003F0
7F00000003F0
7E00000001F8
7E00000001F8
7E00000001F8
7E00000001F8
7E00000001F8
7C00000001F8
FC00000001F8
FC00000001F8
FC00000001F8
7C00000001F8
7E00000001F8
7E00000001F8
7E00000001F8
7E00000001F8
7E00000001F8
7F00000003F0
3F00000003F0
3F00000007F0
3F80000007E0
1FC000000FE0
1FC000000FC0
0FE000001FC0
0FF000003F80
07F800007F80
03FE0001FF00
01FF0007FE00
00FFF03FFC00
007FFFFFF800
003FFFFFE000
000FFFFFC000
0003FFFE0000
00003FF00000
ENDCHAR
STARTCHAR 00D4
ENCODING 212
SWIDTH 782 0
DWIDTH 50 0
BBX 45 62 2 -1
BITMAP
00000FC00000
00001FE00000
00003FE00000
00003FF00000
00007CF80000
000078F80000
0000F87C0000
0001F03E0000
0001E01E0000
0003C00F0000
000000000000
000000000000
000000000000
00003FF00000
0003FFFF0000
000FFFFFC000
001FFFFFF000
007FFFFFF800
00FFF07FFC00
01FF0007FE00
03FC0001FF00
07F800007F80
07F000003F80
0FE000001FC0
1FC000000FE0
1F8000000FE0
3F80000007E0
3F00000007F0
3F00000003F0
7F00000003F0
7E00000001F8
7E00000001F8
7E00000001F8
7E00000001F8
7E00000001F8
7C00000001F8
FC00000001F8
FC00000001F8
FC00000001F8
7C00000001F8
7E00000001F8
7E00000001F8
7E00000001F8
7E00000001F8
7E00000001F8
7F00000003F0
3F00000003F0
3F00000007F0
3F80000007E0
1FC000000FE0
1FC000000FC0
0FE000001FC0
0FF000003F80
07F800007F80
03FE0001FF00
01FF0007FE00
00FFF03FFC00
007FFFFFF800
003FFFFFE000
000FFFFFC000
0003FFFE0000
00003FF00000
ENDCHAR
STARTCHAR 00D5
ENCODING 213
SWIDTH 782 0
DWIDTH 50 0
BBX 45 60 2 -1
BITMAP
0000FC078000
0001FF8F8000
0003FFFF8000
0003FFFF0000
0003C7FE0000
000780FC0000
000000000000
000000000000
000000000000
000000000000
000000000000
00003FF00000
0003FFFF0000
000FFFFFC000
001FFFFFF000
007FFFFFF800
00FFF07FFC00
01FF0007FE00
03FC0001FF00
07F800007F80
07F000003F80
0FE000001FC0
1FC000000FE0
1F8000000FE0
3F80000007E0
3F00000007F0
3F00000003F0
7F00000003F0
7E00000001F8
7E00000001F8
7E00000001F8
7E00000001F8
7E00000001F8
7C00000001F8
FC00000001F8
FC00000001F8
FC00000001F8
7C00000001F8
7E00000001F8
7E00000001F8
7E00000001F8
7E00000001F8
7E00000001F8
7F00000003F0
3F00000003F0
3F00000007F0
3F80000007E0
1FC000000FE0
1FC000000FC0
0FE000001FC0
0FF000003F80
07F800007F80
03FE0001FF00
01FF0007FE00
00FFF03FFC00
007FFFFFF800
003FFFFFE000
000FFFFFC000
0003FFFE0000
00003FF00000
ENDCHAR
STARTCHAR 00D6
ENCODING 214
SWIDTH 782 0
DWIDTH 50 0
BBX 45 60 2 -1
BITMAP
0003F87E0000
0003F87E0000
0003F87E0000
0003F87E0000
0003F87E0000
0003F87E0000
0003F87E0000
000000000000
000000000000
000000000000
000000000000
00003FF00000
0003FFFF0000
000FFFFFC000
001FFFFFF000
007FFFFFF800
00FFF07FFC00
01FF0007FE00
03FC0001FF00
07F800007F80
07F000003F80
0FE000001FC0
1FC000000FE0
1F8000000FE0
3F80000007E0
3F00000007F0
3F00000003F0
7F00000003F0
7E00000001F8
7E00000001F8
7E00000001F8
7E00000001F8
7E00000001F8
7C00000001F8
FC00000001F8
FC00000001F8
FC00000001F8
7C00000001F8
7E00000001F8
7E00000001F8
7E00000001F8
7E00000001F8
7E00000001F8
7F00000003F0
3F00000003F0
3F00000007F0
3F80000007E0
1FC000000FE0
1FC000000FC0
0FE000001FC0
0FF000003F80
07F800007F80
03FE0001FF00
01FF0007FE00
00FFF03FFC00
007FFFFFF800
003FFFFFE000
000FFFFFC000
0003FFFE0000
00003FF00000
ENDCHAR
STARTCHAR 00D7
ENCODING 215
SWIDTH 579 0
DWIDTH 37 0
BBX 25 25 6 2
BITMAP
10000600
38000F00
7C001F80
7E003F80
3F007F00
1F80FE00
0FC1FC00
07E3F800
03F7F000
01FFE000
00FFC000
007F8000
007F0000
00FF8000
01FFC000
03FFE000
07F3F000
0FE1F800
1FC0FC00
3F807E00
7F003F00
FE001F80
7C000F00
38000600
10000000
ENDCHAR
STARTCHAR 00D8
ENCODING 216
SWIDTH 782 0
DWIDTH 50 0
BBX 45 49 2 0
BITMAP
00003FF00038
0003FFFE0078
000FFFFFC0F8
003FFFFFE1F0
007FFFFFFBE0
00FFF03FFFC0
01FF0007FF80
03FC0001FF00
07F800007F80
0FF000003F80
0FE000007FC0
1FC00000FFC0
1F800001EFE0
3F800003C7E0
3F000007C7F0
3F00000F83F0
7E00001F03F0
7E00003E03F0
7E00007C01F8
7E0000F801F8
FC0001F001F8
FC0001E001F8
FC0003C001F8
FC00078001F8
FC000F0001F8
FC001F0001F8
FC003E0001F8
FC007C0001F8
FE00F80001F8
7E01F00001F8
7E03E00001F8
7E07C00003F0
7E07800003F0
3F0F000003F0
3F1E000007F0
3FBC000007E0
1FF800000FE0
1FF800000FC0
0FF000001FC0
0FF000003F80
07F800007F00
0FFC0001FF00
1FFF0007FE00
3EFFF03FFC00
3C7FFFFFF800
783FFFFFE000
F00FFFFF8000
6003FFFE0000
20007FF00000
ENDCHAR
STARTCHAR 00D9
ENCODING 217
SWIDTH 720 0
DWIDTH 46 0
BBX 36 61 5 -1
BITMAP
003F800000
001FC00000
000FC00000
0007E00000
0003F00000
0001F00000
0000F80000
0000780000
00003C0000
0000000000
0000000000
0000000000
0000000000
FC000003F0
FC000003F0
FC000003F0
FC000003F0
FC000003F0
FC000003F0
FC000003F0
FC000003F0
FC000003F0
FC000003F0
FC000003F0
FC000003F0
FC000003F0
FC000003F0
FC000003F0
FC000003F0
FC000003F0
FC000003F0
FC000003F0
FC000003F0
FC000003F0
FC000003F0
FC000003F0
FC000003F0
FC000003F0
FC000003F0
FC000003F0
FC000003F0
FC000003F0
FC000003F0
FC000003F0
FC000003F0
FC000003F0
FC000003F0
7E000003F0
7E000003F0
7E000003F0
7F000007F0
7F000007E0
3F80000FE0
3FC0001FC0
1FF0007FC0
0FFE03FF80
07FFFFFF00
03FFFFFC00
00FFFFF800
003FFFE000
0007FE0000
ENDCHAR
STARTCHAR 00DA
ENCODING 218
SWIDTH 720 0
DWIDTH 46 0
BBX 36 61 5 -1
BITMAP
00001FC000
00003F8000
00003F0000
00007E0000
00007C0000
0000F80000
0001F00000
0001E00000
0003C00000
0000000000
0000000000
0000000000
0000000000
FC000003F0
FC000003F0
FC000003F0
FC000003F0
FC000003F0
FC000003F0
FC000003F0
FC000003F0
FC000003F0
FC000003F0
FC000003F0
FC000003F0
FC000003F0
FC000003F0
FC000003F0
FC000003F0
FC000003F0
FC000003F0
FC000003F0
FC000003F0
FC000003F0
FC000003F0
FC000003F0
FC000003F0
FC000003F0
FC000003F0
FC000003F0
FC000003F0
FC000003F0
FC000003F0
FC000003F0
FC000003F0
FC000003F0
FC000003F0
7E000003F0
7E000003F0
7E000003F0
7F000007F0
7F000007E0
3F80000FE0
3FC0001FC0
1FF0007F80
0FFE03FF80
07FFFFFF00
03FFFFFC00
00FFFFF800
003FFFE000
0007FE0000
ENDCHAR
STARTCHAR 00DB
ENCODING 219
SWIDTH 720 0
DWIDTH 46 0
BBX 36 61 5 -1
BITMAP
0001FC0000
0003FE0000
0007FE0000
0007DF0000
000F8F8000
001F0F8000
001E07C000
003E03C000
003C01E000
0000000000
0000000000
0000000000
0000000000
FC000003F0
FC000003F0
FC000003F0
FC000003F0
FC000003F0
FC000003F0
FC000003F0
FC000003F0
FC000003F0
FC000003F0
FC000003F0
FC000003F0
FC000003F0
FC000003F0
FC000003F0
FC000003F0
FC000003F0
FC000003F0
FC000003F0
FC000003F0
FC000003F0
FC000003F0
FC000003F0
FC000003F0
FC000003F0
FC000003F0
FC000003F0
FC000003F0
FC000003F0
FC000003F0
FC000003F0
FC000003F0
FC000003F0
FC000003F0
7E000003F0
7E000003F0
7E000003F0
7F000007F0
7F000007E0
3F80000FE0
3FC0001FC0
1FF0007FC0
0FFE03FF80
07FFFFFF00
03FFFFFC00
00FFFFF800
003FFFE000
0007FE0000
ENDCHAR
STARTCHAR 00DC
ENCODING 220
SWIDTH 720 0
DWIDTH 46 0
BBX 36 60 5 -1
BITMAP
003F0FE000
003F0FE000
003F0FE000
003F0FE000
003F0FE000
003F0FE000
003F0FE000
0000000000
0000000000
0000000000
0000000000
0000000000
FC000003F0
FC000003F0
FC000003F0
FC000003F0
FC000003F0
FC000003F0
FC000003F0
FC000003F0
FC000003F0
FC000003F0
FC000003F0
FC000003F0
FC000003F0
FC000003F0
FC000003F0
FC000003F0
FC000003F0
FC000003F0
FC000003F0
FC000003F0
FC000003F0
FC000003F0
FC000003F0
FC000003F0
FC000003F0
FC000003F0
FC000003F0
FC000003F0
FC000003F0
FC000003F0
FC000003F0
FC000003F0
FC000003F0
FC000003F0
7E000003F0
7E000003F0
7E000003F0
7F000007F0
7F000007E0
3F80000FE0
3FC0001FC0
1FF0007FC0
0FFE03FF80
07FFFFFF00
03FFFFFC00
00FFFFF800
003FFFE000
0007FE0000
ENDCHAR
STARTCHAR 00DD
ENCODING 221
SWIDTH 673 0
DWIDTH 43 0
BBX 41 60 1 0
BITMAP
000003F80000
000007F00000
00000FE00000
00000FC00000
00001F800000
00003F000000
00003E000000
00007C000000
000078000000
000000000000
000000000000
000000000000
000000000000
FE0000003F80
7F0000007F00
7F8000007F00
3F800000FE00
1FC00001FC00
1FC00001FC00
0FE00003F800
07F00003F800
07F00007F000
03F80007E000
03F8000FE000
01FC001FC000
00FE001FC000
00FE003F8000
007F003F0000
003F007F0000
003F80FE0000
001FC0FC0000
001FC1FC0000
000FE1F80000
0007E3F80000
0007F3F00000
0003FFE00000
0001FFE00000
0001FFC00000
0000FFC00000
0000FF800000
00007F000000
00003F000000
00003F000000
00003F000000
00003F000000
00003F000000
00003F000000
00003F000000
00003F000000
00003F000000
00003F000000
00003F000000
00003F000000
00003F000000
00003F000000
00003F000000
00003F000000
00003F000000
00003F000000
00003F000000
ENDCHAR
STARTCHAR 00DE
ENCODING 222
SWIDTH 673 0
DWIDTH 43 0
BBX 33 47 6 0
BITMAP
FC00000000
FC00000000
FC00000000
FC00000000
FC00000000
FC00000000
FC00000000
FC00000000
FFFFFF0000
FFFFFFE000
FFFFFFF800
FFFFFFFC00
FFFFFFFE00
FC0007FE00
FC0000FF00
FC00007F00
FC00003F80
FC00003F80
FC00001F80
FC00001F80
FC00001F80
FC00001F80
FC00001F80
FC00001F80
FC00001F80
FC00003F80
FC00003F80
FC00007F00
FC0001FF00
FC0007FE00
FFFFFFFC00
FFFFFFF800
FFFFFFF000
FFFFFFE000
FFFFFF0000
FC00000000
FC00000000
FC00000000
FC00000000
FC00000000
FC00000000
FC00000000
FC00000000
FC00000000
FC00000000
FC00000000
FC00000000
ENDCHAR
STARTCHAR 00DF
ENCODING 223
SWIDTH 610 0
DWIDTH 39 0
BBX 31 48 4 -1
BITMAP
001FF000
00FFFE00
03FFFF00
0FFFFFC0
1FFFFFE0
3FE03FE0
3F8007F0
7F0003F0
7E0001F8
7C0001F8
7C0001F8
7C0000F8
FC0000F8
FC0000F8
FC0001F8
FC0001F8
FC0003F0
FC0007E0
FC003FC0
FC07FF80
FC07FE00
FC07FE00
FC07FF80
FC07FFE0
FC007FF0
FC0003F8
FC0001FC
FC0000FC
FC00007E
FC00007E
FC00003E
FC00003E
FC00003E
FC00003E
FC00003E
FC00003E
FC00007E
FC00007E
FC0000FE
FC0000FC
FC0003FC
FC0007F8
FC003FF0
FC07FFF0
FC07FFC0
FC07FF80
FC07FE00
0007F000
ENDCHAR
STARTCHAR 00E0
ENCODING 224
SWIDTH 563 0
DWIDTH 36 0
BBX 31 49 3 -1
BITMAP
03F80000
01FC0000
00FC0000
007E0000
003F0000
001F0000
000F8000
00078000
0003C000
0001E000
00000000
00000000
00000000
00000000
003FF000
01FFFE00
07FFFF00
0FFFFF80
1FFFFFC0
3FC03FE0
3F800FE0
3F0007E0
7E0003E0
7E0003E0
7E0003E0
000003E0
000003E0
000007E0
00007FE0
003FFFE0
03FFFFE0
0FFFFFE0
1FFFC3E0
3FF003E0
7F0003E0
FE0003E0
FC0003E0
F80003E0
F80003E0
F80007E0
F80007E0
FC000FE0
FE003FE0
7F00FFF0
7FFFFFFE
3FFFF3FE
1FFFE1FE
0FFF81FE
01FC007E
ENDCHAR
STARTCHAR 00E1
ENCODING 225
SWIDTH 563 0
DWIDTH 36 0
BBX 31 49 3 -1
BITMAP
0000FE00
0000FC00
0001F800
0003F000
0003E000
0007C000
0007C000
000F8000
001F0000
001E0000
00000000
00000000
00000000
00000000
003FF000
01FFFE00
07FFFF00
0FFFFF80
1FFFFFC0
3FC03FE0
3F800FE0
3F0007E0
7E0003E0
7E0003E0
7E0003E0
000003E0
000003E0
000007E0
00007FE0
003FFFE0
03FFFFE0
0FFFFFE0
1FFFC3E0
3FF003E0
7F0003E0
FE0003E0
FC0003E0
F80003E0
F80003E0
F80007E0
F80007E0
FC000FE0
FE003FE0
7F00FFF0
7FFFFFFE
3FFFF3FE
1FFFE1FE
0FFF81FE
01FC007E
ENDCHAR
STARTCHAR 00E2
ENCODING 226
SWIDTH 563 0
DWIDTH 36 0
BBX 31 49 3 -1
BITMAP
001FC000
001FC000
003FE000
007FF000
007DF000
00F8F800
00F07800
01F07C00
01E03E00
03C01E00
00000000
00000000
00000000
00000000
003FF000
01FFFE00
07FFFF00
0FFFFF80
1FFFFFC0
3FC03FE0
3F800FE0
3F0007E0
7E0003E0
7E0003E0
7E0003E0
000003E0
000003E0
000007E0
00007FE0
003FFFE0
03FFFFE0
0FFFFFE0
1FFFC3E0
3FF003E0
7F0003E0
FE0003E0
FC0003E0
F80003E0
F80003E0
F80007E0
F80007E0
FC000FE0
FE003FE0
7F00FFF0
7FFFFFFE
3FFFF3FE
1FFFE1FE
0FFF81FE
01FC007E
ENDCHAR
STARTCHAR 00E3
ENCODING 227
SWIDTH 563 0
DWIDTH 36 0
BBX 31 47 3 -1
BITMAP
00F80780
01FF0F00
03FFFF00
07FFFF00
07CFFE00
0781FC00
07000000
00000000
00000000
00000000
00000000
00000000
003FF000
01FFFE00
07FFFF00
0FFFFF80
1FFFFFC0
3FC03FE0
3F800FE0
3F0007E0
7E0003E0
7E0003E0
7E0003E0
000003E0
000003E0
000007E0
00007FE0
003FFFE0
03FFFFE0
0FFFFFE0
1FFFC3E0
3FF003E0
7F0003E0
FE0003E0
FC0003E0
F80003E0
F80003E0
F80007E0
F80007E0
FC000FE0
FE003FE0
7F00FFF0
7FFFFFFE
3FFFF3FE
1FFFE1FE
0FFF81FE
01FC007E
ENDCHAR
STARTCHAR 00E4
ENCODING 228
SWIDTH 563 0
DWIDTH 36 0
BBX 31 47 3 -1
BITMAP
03F8FE00
03F8FE00
03F8FE00
03F8FE00
03F8FE00
03F8FE00
03F8FE00
00000000
00000000
00000000
00000000
00000000
003FF000
01FFFE00
07FFFF00
0FFFFF80
1FFFFFC0
3FC03FE0
3F800FE0
3F0007E0
7E0003E0
7E0003E0
7E0003E0
000003E0
000003E0
000007E0
00007FE0
003FFFE0
03FFFFE0
0FFFFFE0
1FFFC3E0
3FF003E0
7F0003E0
FE0003E0
FC0003E0
F80003E0
F80003E0
F80007E0
F80007E0
FC000FE0
FE003FE0
7F00FFF0
7FFFFFFE
3FFFF3FE
1FFFE1FE
0FFF81FE
01FC007E
ENDCHAR
STARTCHAR 00E5
ENCODING 229
SWIDTH 563 0
DWIDTH 36 0
BBX 31 49 3 -1
BITMAP
00070000
001FC000
003FE000
0038F000
00707000
00707000
00707000
00707000
0078F000
003FE000
001FC000
00070000
00000000
00000000
003FF000
01FFFE00
07FFFF00
0FFFFF80
1FFFFFC0
3FC03FE0
3F800FE0
3F0007E0
7E0003E0
7E0003E0
7E0003E0
000003E0
000003E0
000007E0
00007FE0
003FFFE0
03FFFFE0
0FFFFFE0
1FFFC3E0
3FF003E0
7F0003E0
FE0003E0
FC0003E0
F80003E0
F80003E0
F80007E0
F80007E0
FC000FE0
FE003FE0
7F00FFF0
7FFFFFFE
3FFFF3FE
1FFFE1FE
0FFF81FE
01FC007E
ENDCHAR
STARTCHAR 00E6
ENCODING 230
SWIDTH 892 0
DWIDTH 57 0
BBX 52 35 2 -1
BITMAP
003FF0007F8000
01FFFC01FFF000
03FFFF07FFFC00
0FFFFF8FFFFE00
1FFFFFDFFFFF00
1FE01FFFC0FF80
3F8007FF003FC0
3F0003FC000FC0
3F0003FC000FE0
3E0003F80007E0
3E0003F00007E0
000003F00003F0
000003F00003F0
000007F00003F0
00003FE00003F0
003FFFFFFFFFF0
03FFFFFFFFFFF0
0FFFFFFFFFFFF0
1FFFE3FFFFFFF0
3FF803E0000000
7F8003E0000000
7E0003F0000000
7C0003F0000000
FC0003F0000060
FC0003F00003E0
FC0003F80007E0
FC0007FC0007C0
FC000FFC000FC0
7E001F7F001F80
7F007E3FC07F80
3FFFFC3FFFFF00
3FFFF81FFFFE00
1FFFE00FFFFC00
07FFC003FFF000
01FE00007F8000
ENDCHAR
STARTCHAR 00E7
ENCODING 231
SWIDTH 500 0
DWIDTH 32 0
BBX 28 48 2 -14
BITMAP
001FE000
00FFFC00
01FFFE00
07FFFF80
0FFFFFC0
0FF03FC0
1FC00FE0
3F8007E0
3F0003F0
7E0003F0
7E0003F0
7E0001F0
7C000000
FC000000
FC000000
FC000000
FC000000
FC000000
FC000000
FC000000
FC000000
FC000000
FC000000
7C0001F0
7E0001F0
7E0003F0
7E0003F0
3F0007F0
3F8007E0
1FC00FE0
0FF87FC0
0FFFFF80
03FFFF00
01FFFE00
007FF800
000F8000
000E0000
000C0000
001FE000
001FF000
0001F800
0000F800
0000F800
0300F800
03C1F000
07FFE000
01FFC000
000C0000
ENDCHAR
STARTCHAR 00E8
ENCODING 232
SWIDTH 563 0
DWIDTH 36 0
BBX 30 49 3 -1
BITMAP
03F80000
01FC0000
00FE0000
007E0000
003F0000
001F0000
000F8000
0007C000
0003C000
0001E000
00000000
00000000
00000000
00000000
001FE000
00FFFC00
03FFFF00
07FFFF80
0FFFFFC0
1FE03FE0
1F800FE0
3F0007F0
7E0003F0
7E0001F8
7C0001F8
FC0000F8
FC0000F8
F80000FC
F80000FC
FFFFFFFC
FFFFFFFC
FFFFFFFC
FFFFFFFC
F8000000
F8000000
F8000000
F8000000
FC000000
FC0001F8
7E0001F8
7E0003F0
3F0007F0
3FC00FE0
1FF01FE0
0FFFFFC0
07FFFF80
03FFFF00
00FFFC00
001FE000
ENDCHAR
STARTCHAR 00E9
ENCODING 233
SWIDTH 563 0
DWIDTH 36 0
BBX 30 49 3 -1
BITMAP
0000FE00
0000FC00
0001FC00
0001F800
0003F000
0007E000
0007C000
000F8000
000F0000
001E0000
00000000
00000000
00000000
00000000
001FE000
00FFFC00
03FFFF00
07FFFF80
0FFFFFC0
1FE03FE0
1F800FE0
3F0007F0
7E0003F0
7E0001F8
7C0001F8
FC0000F8
FC0000F8
F80000FC
F80000FC
FFFFFFFC
FFFFFFFC
FFFFFFFC
FFFFFFFC
F8000000
F8000000
F8000000
F8000000
FC000000
FC0001F8
7E0001F8
7E0003F0
3F0007F0
3FC00FE0
1FF01FE0
0FFFFFC0
07FFFF80
03FFFF00
00FFFC00
001FE000
ENDCHAR
STARTCHAR 00EA
ENCODING 234
SWIDTH 563 0
DWIDTH 36 0
BBX 30 49 3 -1
BITMAP
000FE000
001FE000
001FF000
003FF000
003EF800
007C7C00
00F87C00
00F03E00
01F01E00
01E00F00
00000000
00000000
00000000
00000000
001FE000
00FFFC00
03FFFF00
07FFFF80
0FFFFFC0
1FE03FE0
1F800FE0
3F0007F0
7E0003F0
7E0001F8
7C0001F8
FC0000F8
FC0000F8
F80000FC
F80000FC
FFFFFFFC
FFFFFFFC
FFFFFFFC
FFFFFFFC
F8000000
F8000000
F8000000
F8000000
FC000000
FC0001F8
7E0001F8
7E0003F0
3F0007F0
3FC00FE0
1FF01FE0
0FFFFFC0
07FFFF80
03FFFF00
00FFFC00
001FE000
ENDCHAR
STARTCHAR 00EB
ENCODING 235
SWIDTH 563 0
DWIDTH 36 0
BBX 30 47 3 -1
BITMAP
01F87F00
01F87F00
01F87F00
01F87F00
01F87F00
01F87F00
01F87F00
00000000
00000000
00000000
00000000
00000000
001FE000
00FFFC00
03FFFF00
07FFFF80
0FFFFFC0
1FE03FE0
1F800FE0
3F0007F0
7E0003F0
7E0001F8
7C0001F8
FC0000F8
FC0000F8
F80000FC
F80000FC
FFFFFFFC
FFFFFFFC
FFFFFFFC
FFFFFFFC
F8000000
F8000000
F8000000
F8000000
FC000000
FC0001F8
7E0001F8
7E0003F0
3F0007F0
3FC00FE0
1FF01FE0
0FFFFFC0
07FFFF80
03FFFF00
00FFFC00
001FE000
ENDCHAR
STARTCHAR 00EC
ENCODING 236
SWIDTH 281 0
DWIDTH 18 0
BBX 13 48 0 0
BITMAP
FE00
7F00
3F00
1F80
0FC0
07C0
03E0
01E0
00F0
00F8
0000
0000
0000
0000
0000
03E0
03E0
03E0
03E0
03E0
03E0
03E0
03E0
03E0
03E0
03E0
03E0
03E0
03E0
03E0
03E0
03E0
03E0
03E0
03E0
03E0
03E0
03E0
03E0
03E0
03E0
03E0
03E0
03E0
03E0
03E0
03E0
03E0
ENDCHAR
STARTCHAR 00ED
ENCODING 237
SWIDTH 281 0
DWIDTH 18 0
BBX 12 48 5 0
BITMAP
07F0
0FE0
0FC0
1F80
1F00
3E00
7C00
7C00
F800
F000
0000
0000
0000
0000
0000
7C00
7C00
7C00
7C00
7C00
7C00
7C00
7C00
7C00
7C00
7C00
7C00
7C00
7C00
7C00
7C00
7C00
7C00
7C00
7C00
7C00
7C00
7C00
7C00
7C00
7C00
7C00
7C00
7C00
7C00
7C00
7C00
7C00
ENDCHAR
STARTCHAR 00EE
ENCODING 238
SWIDTH 281 0
DWIDTH 18 0
BBX 17 48 0 0
BITMAP
07F000
07F800
0FF800
0FFC00
1F7C00
3E3E00
3E1F00
7C0F00
780F80
F00780
000000
000000
000000
000000
000000
03E000
03E000
03E000
03E000
03E000
03E000
03E000
03E000
03E000
03E000
03E000
03E000
03E000
03E000
03E000
03E000
03E000
03E000
03E000
03E000
03E000
03E000
03E000
03E000
03E000
03E000
03E000
03E000
03E000
03E000
03E000
03E000
03E000
ENDCHAR
STARTCHAR 00EF
ENCODING 239
SWIDTH 281 0
DWIDTH 18 0
BBX 17 45 0 0
BITMAP
FE1F80
FE1F80
FE1F80
FE1F80
FE1F80
FE1F80
FE1F80
000000
000000
000000
000000
000000
03E000
03E000
03E000
03E000
03E000
03E000
03E000
03E000
03E000
03E000
03E000
03E000
03E000
03E000
03E000
03E000
03E000
03E000
03E000
03E000
03E000
03E000
03E000
03E000
03E000
03E000
03E000
03E000
03E000
03E000
03E000
03E000
03E000
ENDCHAR
STARTCHAR 00F0
ENCODING 240
SWIDTH 563 0
DWIDTH 36 0
BBX 31 48 2 -1
BITMAP
03000000
07C03000
0FF0FC00
07FBFC00
01FFF000
00FF8000
00FF8000
03FFE000
1FEFF000
0F83F800
0601FC00
0000FE00
00007F00
001FBF80
00FFFF80
01FFFFC0
07FFFFE0
0FFFFFE0
0FF01FF0
1FC007F0
3F8003F8
3F0001F8
3F0001F8
7E0000FC
7E0000FC
7C0000FC
7C00007C
FC00007C
FC00007E
FC00007E
FC00007E
FC00007E
FC00007E
FC00007C
7C00007C
7C0000FC
7E0000FC
7E0000FC
3F0001F8
3F0001F8
3F8003F8
1FC007F0
0FF01FE0
0FFFFFE0
07FFFFC0
01FFFF00
00FFFE00
001FF000
ENDCHAR
STARTCHAR 00F1
ENCODING 241
SWIDTH 563 0
DWIDTH 36 0
BBX 27 46 4 0
BITMAP
01F00F00
03FE1F00
07FFFE00
07FFFE00
0F9FFC00
0F03F800
0E000000
00000000
00000000
00000000
00000000
00000000
0007F000
F83FFE00
F87FFF00
F8FFFF80
F9FFFFC0
FBE01FC0
FFC00FE0
FF0007E0
FF0007E0
FE0003E0
FE0003E0
FC0003E0
FC0003E0
FC0003E0
FC0003E0
FC0003E0
FC0003E0
FC0003E0
FC0003E0
FC0003E0
FC0003E0
FC0003E0
FC0003E0
FC0003E0
FC0003E0
FC0003E0
FC0003E0
FC0003E0
FC0003E0
FC0003E0
FC0003E0
FC0003E0
FC0003E0
FC0003E0
ENDCHAR
STARTCHAR 00F2
ENCODING 242
SWIDTH 563 0
DWIDTH 36 0
BBX 31 49 2 -1
BITMAP
01FC0000
00FE0000
007E0000
003F0000
001F0000
000F8000
000FC000
0007C000
0003E000
0001E000
00000000
00000000
00000000
00000000
001FF000
007FFE00
01FFFF00
03FFFFC0
07FFFFE0
0FF01FE0
1FC007F0
3F8003F8
3F0001F8
3F0001F8
7E0000FC
7E0000FC
7C0000FC
7C00007C
FC00007C
FC00007E
FC00007E
FC00007E
FC00007E
FC00007E
FC00007C
7C00007C
7C0000FC
7E0000FC
7E0000FC
3F0001F8
3F0001F8
3F8003F0
1FC007F0
0FF01FE0
0FFFFFC0
07FFFF80
01FFFF00
00FFFC00
001FE000
ENDCHAR
STARTCHAR 00F3
ENCODING 243
SWIDTH 563 0
DWIDTH 36 0
BBX 31 49 2 -1
BITMAP
00007F00
0000FE00
0000FC00
0001F800
0003F000
0003E000
0007C000
00078000
000F0000
001E0000
00000000
00000000
00000000
00000000
001FF000
007FFE00
01FFFF00
03FFFFC0
07FFFFE0
0FF01FE0
1FC007F0
3F8003F8
3F0001F8
3F0001F8
7E0000FC
7E0000FC
7C0000FC
7C00007C
FC00007C
FC00007E
FC00007E
FC00007E
FC00007E
FC00007E
FC00007C
7C00007C
7C0000FC
7E0000FC
7E0000FC
3F0001F8
3F0001F8
3F8003F0
1FC007F0
0FF01FE0
0FFFFFC0
07FFFF80
01FFFF00
00FFFC00
001FE000
ENDCHAR
STARTCHAR 00F4
ENCODING 244
SWIDTH 563 0
DWIDTH 36 0
BBX 31 49 2 -1
BITMAP
000FE000
000FE000
001FF000
003FF800
003EF800
007C7C00
00783C00
00F83E00
01F01F00
01E00F00
00000000
00000000
00000000
00000000
001FF000
007FFE00
01FFFF00
03FFFFC0
07FFFFE0
0FF01FE0
1FC007F0
3F8003F8
3F0001F8
3F0001F8
7E0000FC
7E0000FC
7C0000FC
7C00007C
FC00007C
FC00007E
FC00007E
FC00007E
FC00007E
FC00007E
FC00007C
7C00007C
7C0000FC
7E0000FC
7E0000FC
3F0001F8
3F0001F8
3F8003F0
1FC007F0
0FF01FE0
0FFFFFC0
07FFFF80
01FFFF00
00FFFC00
001FE000
ENDCHAR
STARTCHAR 00F5
ENCODING 245
SWIDTH 563 0
DWIDTH 36 0
BBX 31 47 2 -1
BITMAP
007C03C0
00FF8780
01FFFF80
01FFFF80
03E7FF00
03C0FE00
03800000
00000000
00000000
00000000
00000000
00000000
001FF000
007FFE00
01FFFF00
03FFFFC0
07FFFFE0
0FF01FE0
1FC007F0
3F8003F8
3F0001F8
3F0001F8
7E0000FC
7E0000FC
7C0000FC
7C00007C
FC00007C
FC00007E
FC00007E
FC00007E
FC00007E
FC00007E
FC00007C
7C00007C
7C0000FC
7E0000FC
7E0000FC
3F0001F8
3F0001F8
3F8003F0
1FC007F0
0FF01FE0
0FFFFFC0
07FFFF80
01FFFF00
00FFFC00
001FE000
ENDCHAR
STARTCHAR 00F6
ENCODING 246
SWIDTH 563 0
DWIDTH 36 0
BBX 31 47 2 -1
BITMAP
01FC7F00
01FC7F00
01FC7F00
01FC7F00
01FC7F00
01FC7F00
01FC7F00
00000000
00000000
00000000
00000000
00000000
001FF000
007FFE00
01FFFF00
03FFFFC0
07FFFFE0
0FF01FE0
1FC007F0
3F8003F8
3F0001F8
3F0001F8
7E0000FC
7E0000FC
7C0000FC
7C00007C
FC00007C
FC00007E
FC00007E
FC00007E
FC00007E
FC00007E
FC00007C
7C00007C
7C0000FC
7E0000FC
7E0000FC
3F0001F8
3F0001F8
3F8003F0
1FC007F0
0FF01FE0
0FFFFFC0
07FFFF80
01FFFF00
00FFFC00
001FE000
ENDCHAR
STARTCHAR 00F7
ENCODING 247
SWIDTH 579 0
DWIDTH 37 0
BBX 31 30 3 0
BITMAP
000FE000
000FE000
000FE000
000FE000
000FE000
000FE000
000FE000
00000000
00000000
00000000
00000000
00000000
00000000
FFFFFFFE
FFFFFFFE
FFFFFFFE
FFFFFFFE
00000000
00000000
00000000
00000000
00000000
00000000
000FE000
000FE000
000FE000
000FE000
000FE000
000FE000
000FE000
ENDCHAR
STARTCHAR 00F8
ENCODING 248
SWIDTH 610 0
DWIDTH 39 0
BBX 32 35 1 -1
BITMAP
000FF802
003FFF07
00FFFF87
01FFFFCE
03FFFFFC
07F80FF8
0FE003F8
1FC001FC
1F8001FC
1F8003FC
3F0007FE
3F000F7E
3E001E7E
3E001C3E
7E00383E
7E00703F
7E00E03F
7E01C03F
7E03C03F
7E07803F
7E0F003E
3E1E003E
3E3C007E
3F78007E
3FF0007E
1FE000FC
1FC000FC
1FC001F8
0FE003F8
0FF80FF0
1FFFFFE0
3DFFFFC0
78FFFF80
F07FFE00
600FF800
ENDCHAR
STARTCHAR 00F9
ENCODING 249
SWIDTH 563 0
DWIDTH 36 0
BBX 27 49 4 -1
BITMAP
07F00000
03F00000
01F80000
00FC0000
007C0000
003E0000
001F0000
000F0000
00078000
0003C000
00000000
00000000
00000000
00000000
00000000
F80007E0
F80007E0
F80007E0
F80007E0
F80007E0
F80007E0
F80007E0
F80007E0
F80007E0
F80007E0
F80007E0
F80007E0
F80007E0
F80007E0
F80007E0
F80007E0
F80007E0
F80007E0
F80007E0
F80007E0
F80007E0
F80007E0
F80007E0
FC0007E0
FC000FE0
FC000FE0
FC001FE0
FE003FE0
7F80FFE0
7FFFFBE0
3FFFF3E0
1FFFE3E0
0FFFC3E0
01FF0000
ENDCHAR
STARTCHAR 00FA
ENCODING 250
SWIDTH 563 0
DWIDTH 36 0
BBX 27 49 4 -1
BITMAP
0001FC00
0003F800
0007F000
0007E000
000FC000
001F8000
001F0000
003E0000
007C0000
00780000
00000000
00000000
00000000
00000000
00000000
F80007E0
F80007E0
F80007E0
F80007E0
F80007E0
F80007E0
F80007E0
F80007E0
F80007E0
F80007E0
F80007E0
F80007E0
F80007E0
F80007E0
F80007E0
F80007E0
F80007E0
F80007E0
F80007E0
F80007E0
F80007E0
F80007E0
F80007E0
FC0007E0
FC000FE0
FC000FE0
FC001FE0
FE003FE0
7F80FFE0
7FFFFBE0
3FFFF3E0
1FFFE3E0
0FFFC3E0
01FF0000
ENDCHAR
STARTCHAR 00FB
ENCODING 251
SWIDTH 563 0
DWIDTH 36 0
BBX 27 49 4 -1
BITMAP
003F8000
003FC000
007FC000
00FBE000
00FBE000
01F1F000
03E0F800
03C07800
07803C00
0F803E00
00000000
00000000
00000000
00000000
00000000
F80007E0
F80007E0
F80007E0
F80007E0
F80007E0
F80007E0
F80007E0
F80007E0
F80007E0
F80007E0
F80007E0
F80007E0
F80007E0
F80007E0
F80007E0
F80007E0
F80007E0
F80007E0
F80007E0
F80007E0
F80007E0
F80007E0
F80007E0
FC0007E0
FC000FE0
FC000FE0
FC001FE0
FE003FE0
7F80FFE0
7FFFFBE0
3FFFF3E0
1FFFE3E0
0FFFC3E0
01FF0000
ENDCHAR
STARTCHAR 00FC
ENCODING 252
SWIDTH 563 0
DWIDTH 36 0
BBX 27 47 4 -1
BITMAP
07F1FC00
07F1FC00
07F1FC00
07F1FC00
07F1FC00
07F1FC00
07F1FC00
00000000
00000000
00000000
00000000
00000000
00000000
F80007E0
F80007E0
F80007E0
F80007E0
F80007E0
F80007E0
F80007E0
F80007E0
F80007E0
F80007E0
F80007E0
F80007E0
F80007E0
F80007E0
F80007E0
F80007E0
F80007E0
F80007E0
F80007E0
F80007E0
F80007E0
F80007E0
F80007E0
FC0007E0
FC000FE0
FC000FE0
FC001FE0
FE003FE0
7F80FFE0
7FFFFBE0
3FFFF3E0
1FFFE3E0
0FFFC3E0
01FF0000
ENDCHAR
STARTCHAR 00FD
ENCODING 253
SWIDTH 500 0
DWIDTH 32 0
BBX 29 62 1 -14
BITMAP
0000FE00
0001FC00
0001F800
0003F000
0003E000
0007C000
000F8000
000F8000
001F0000
001E0000
00000000
00000000
00000000
00000000
00000000
FC0000F8
7C0001F8
7E0001F8
7E0001F0
3E0003F0
3F0003E0
3F0007E0
1F0007E0
1F8007C0
1F800FC0
0F800FC0
0FC00F80
0FC01F80
07C01F80
07E01F00
03E03F00
03E03E00
03F03E00
01F07E00
01F07C00
01F8FC00
00F8FC00
00F8F800
00FDF800
007DF000
007DF000
007FF000
003FE000
003FE000
003FE000
001FC000
001FC000
001F8000
001F8000
001F8000
001F0000
003F0000
003F0000
003E0000
007E0000
007C0000
21FC0000
3FFC0000
3FF80000
3FF00000
3FE00000
1F800000
ENDCHAR
STARTCHAR 00FE
ENCODING 254
SWIDTH 563 0
DWIDTH 36 0
BBX 30 58 3 -13
BITMAP
FC000000
FC000000
FC000000
FC000000
FC000000
FC000000
FC000000
FC000000
FC000000
FC000000
FC000000
FC0FF000
FC3FFC00
FCFFFF00
FDFFFF80
FFFFFFC0
FFF03FE0
FFC00FF0
FF8007F0
FF0003F8
FF0001F8
FE0001F8
FE0000FC
FC0000FC
FC0000FC
FC00007C
FC00007C
FC00007C
FC00007C
FC00007C
FC00007C
FC00007C
FC0000FC
FC0000FC
FE0000FC
FE0001F8
FF0001F8
FF0003F8
FF8007F0
FFC00FF0
FFF03FE0
FFFFFFC0
FDFFFF80
FCFFFF00
FC3FFC00
FC0FF000
FC000000
FC000000
FC000000
FC000000
FC000000
FC000000
FC000000
FC000000
FC000000
FC000000
FC000000
FC000000
ENDCHAR
STARTCHAR 00FF
ENCODING 255
SWIDTH 500 0
DWIDTH 32 0
BBX 29 60 1 -14
BITMAP
03F87E00
03F87E00
03F87E00
03F87E00
03F87E00
03F87E00
03F87E00
00000000
00000000
00000000
00000000
00000000
00000000
FC0000F8
7C0001F8
7E0001F8
7E0001F0
3E0003F0
3F0003E0
3F0007E0
1F0007E0
1F8007C0
1F800FC0
0F800FC0
0FC00F80
0FC01F80
07C01F80
07E01F00
03E03F00
03E03E00
03F03E00
01F07E00
01F07C00
01F8FC00
00F8FC00
00F8F800
00FDF800
007DF000
007DF000
007FF000
003FE000
003FE000
003FE000
001FC000
001FC000
001F8000
001F8000
001F8000
001F0000
003F0000
003F0000
003E0000
007E0000
007C0000
21FC0000
3FFC0000
3FF80000
3FF00000
3FE00000
1F800000
ENDCHAR
STARTCHAR 0100
ENCODING 256
SWIDTH 673 0
DWIDTH 43 0
BBX 41 58 1 0
BITMAP
000FFFF80000
000FFFF80000
000FFFF80000
000FFFF80000
000000000000
000000000000
000000000000
000000000000
000000000000
000000000000
000000000000
00007F800000
0000FF800000
0000FF800000
0001FFC00000
0001FFC00000
0001FFC00000
0003FFE00000
0003F7E00000
0003F7E00000
0007E7F00000
0007E3F00000
0007E3F00000
000FC3F80000
000FC1F80000
000FC1F80000
001F81FC0000
001F80FC0000
001F80FC0000
003F00FE0000
003F007E0000
007E007F0000
007E007F0000
007E003F0000
00FC003F8000
00FC003F8000
00FC001F8000
01F8001FC000
01F8001FC000
01FFFFFFC000
03FFFFFFE000
03FFFFFFE000
03FFFFFFE000
07FFFFFFF000
07E00007F000
07E00003F000
0FC00003F800
0FC00003F800
1FC00001F800
1F800001FC00
1F800001FC00
3F800000FC00
3F000000FE00
3F0000007E00
7F0000007F00
7E0000007F00
7E0000003F00
FE0000003F80
ENDCHAR
STARTCHAR 0101
ENCODING 257
SWIDTH 563 0
DWIDTH 36 0
BBX 31 45 3 -1
BITMAP
03FFFE00
03FFFE00
03FFFE00
03FFFE00
00000000
00000000
00000000
00000000
00000000
00000000
003FF000
01FFFE00
07FFFF00
0FFFFF80
1FFFFFC0
3FC03FE0
3F800FE0
3F0007E0
7E0003E0
7E0003E0
7E0003E0
000003E0
000003E0
000007E0
00007FE0
003FFFE0
03FFFFE0
0FFFFFE0
1FFFC3E0
3FF003E0
7F0003E0
FE0003E0
FC0003E0
F80003E0
F80003E0
F80007E0
F80007E0
FC000FE0
FE003FE0
7F00FFF0
7FFFFFFE
3FFFF3FE
1FFFE1FE
0FFF81FE
01FC007E
ENDCHAR
STARTCHAR 0102
ENCODING 258
SWIDTH 673 0
DWIDTH 43 0
BBX 41 60 1 0
BITMAP
001E003C0000
001E003C0000
001E003C0000
001F00780000
000FF7F80000
000FFFF00000
0007FFF00000
0003FFC00000
00007F000000
000000000000
000000000000
000000000000
000000000000
00007F800000
0000FF800000
0000FF800000
0001FFC00000
0001FFC00000
0001FFC00000
0003FFE00000
0003F7E00000
0003F7E00000
0007E7F00000
0007E3F00000
0007E3F00000
000FC3F80000
000FC1F80000
000FC1F80000
001F81FC0000
001F80FC0000
001F80FC0000
003F00FE0000
003F007E0000
007E007F0000
007E007F0000
007E003F0000
00FC003F8000
00FC003F8000
00FC001F8000
01F8001FC000
01F8001FC000
01FFFFFFC000
03FFFFFFE000
03FFFFFFE000
03FFFFFFE000
07FFFFFFF000
07E00007F000
07E00003F000
0FC00003F800
0FC00003F800
1FC00001F800
1F800001FC00
1F800001FC00
3F800000FC00
3F000000FE00
3F0000007E00
7F0000007F00
7E0000007F00
7E0000003F00
FE0000003F80
ENDCHAR
STARTCHAR 0103
ENCODING 259
SWIDTH 563 0
DWIDTH 36 0
BBX 31 48 3 -1
BITMAP
07800F00
07800F00
07C00F00
07E01F00
03FDFE00
03FFFE00
01FFFC00
007FF000
001FC000
00000000
00000000
00000000
00000000
003FF000
01FFFE00
07FFFF00
0FFFFF80
1FFFFFC0
3FC03FE0
3F800FE0
3F0007E0
7E0003E0
7E0003E0
7E0003E0
000003E0
000003E0
000007E0
00007FE0
003FFFE0
03FFFFE0
0FFFFFE0
1FFFC3E0
3FF003E0
7F0003E0
FE0003E0
FC0003E0
F80003E0
F80003E0
F80007E0
F80007E0
FC000FE0
FE003FE0
7F00FFF0
7FFFFFFE
3FFFF3FE
1FFFE1FE
0FFF81FE
01FC007E
ENDCHAR
STARTCHAR 0104
ENCODING 260
SWIDTH 673 0
DWIDTH 43 0
BBX 43 60 1 -13
BITMAP
00007F800000
0000FF800000
0000FF800000
0001FFC00000
0001FFC00000
0001FFC00000
0003FFE00000
0003F7E00000
0003F7E00000
0007E7F00000
0007E3F00000
0007E3F00000
000FC3F80000
000FC1F80000
000FC1F80000
001F81FC0000
001F80FC0000
001F80FC0000
003F00FE0000
003F007E0000
007E007F0000
007E007F0000
007E003F0000
00FC003F8000
00FC003F8000
00FC001F8000
01F8001FC000
01F8001FC000
01FFFFFFC000
03FFFFFFE000
03FFFFFFE000
03FFFFFFE000
07FFFFFFF000
07E00007F000
07E00003F000
0FC00003F800
0FC00003F800
1FC00001F800
1F800001FC00
1F800001FC00
3F800000FC00
3F000000FE00
3F0000007E00
7F0000007F00
7E0000007F00
7E0000003F00
FE0000003F80
000000001F00
000000007C00
00000000F800
00000001F000
00000001E000
00000003E000
00000003E000
00000003E000
00000003E000
00000001F000
00000001FFE0
000000007FE0
000000001FC0
ENDCHAR
STARTCHAR 0105
ENCODING 261
SWIDTH 563 0
DWIDTH 36 0
BBX 35 47 3 -13
BITMAP
003FF00000
01FFFE0000
07FFFF0000
0FFFFF8000
1FFFFFC000
3FC03FE000
3F800FE000
3F0007E000
3E0003E000
7E0003E000
7E0003E000
000003E000
000003E000
000007E000
00007FE000
003FFFE000
03FFFFE000
0FFFFFE000
1FFFC3E000
3FF003E000
7F0003E000
FE0003E000
FC0003E000
F80003E000
F80003E000
F80007E000
F80007E000
FC000FE000
FE003FE000
7F00FFF000
7FFFFFFE00
3FFFF3FE00
1FFFE1FE00
0FFF81FE00
01FE007E00
0000007800
000000F000
000001E000
000003E000
000003C000
000003C000
000003E000
000003E000
000003F000
000001FFE0
0000007FE0
0000001FC0
ENDCHAR
STARTCHAR 0106
ENCODING 262
SWIDTH 720 0
DWIDTH 46 0
BBX 40 62 3 -1
BITMAP
000001FC00
000003F800
000003F000
000007E000
00000FC000
00000F8000
00001F0000
00003E0000
00003C0000
0000780000
0000000000
0000000000
0000000000
0000FFE000
0007FFFC00
001FFFFF00
007FFFFF80
00FFFFFFC0
01FFC0FFE0
03FE001FF0
07F80007F8
07F00003F8
0FE00001FC
1FC00000FC
1F800000FC
3F8000007E
3F0000007E
3F0000007E
7E00000000
7E00000000
7E00000000
7E00000000
FC00000000
FC00000000
FC00000000
FC00000000
FC00000000
FC00000000
FC00000000
FC00000000
FC00000000
FC00000000
FC00000000
7E0000003F
7E0000003F
7E0000003F
7E0000003F
3F0000007F
3F0000007E
3F8000007E
1F800000FE
1FC00000FC
0FE00001FC
0FF00003F8
07F80007F8
03FE001FF0
01FFE0FFE0
00FFFFFFC0
007FFFFF80
003FFFFF00
0007FFFC00
0000FFC000
ENDCHAR
STARTCHAR 0107
ENCODING 263
SWIDTH 500 0
DWIDTH 32 0
BBX 28 49 2 -1
BITMAP
00007F00
0000FE00
0000FC00
0001F800
0003F000
0003E000
0007C000
00078000
000F0000
001E0000
00000000
00000000
00000000
00000000
001FE000
00FFFC00
01FFFE00
07FFFF80
0FFFFFC0
0FF03FC0
1FC00FE0
3F8007E0
3F0003F0
7E0003F0
7E0003F0
7C0001F0
7C000000
FC000000
FC000000
FC000000
FC000000
FC000000
FC000000
FC000000
FC000000
FC000000
FC0001F0
7C0001F0
7E0001F0
7E0003F0
3F0003F0
3F8007E0
1FC00FE0
1FF03FC0
0FFFFF80
07FFFF80
03FFFE00
00FFFC00
001FE000
ENDCHAR
STARTCHAR 0108
ENCODING 264
SWIDTH 720 0
DWIDTH 46 0
BBX 40 62 3 -1
BITMAP
00003F0000
00007F8000
0000FF8000
0000FFC000
0001F7E000
0003E3E000
0003E1F000
0007C0F800
0007807800
000F003C00
0000000000
0000000000
0000000000
0000FFE000
0007FFFC00
001FFFFF00
007FFFFF80
00FFFFFFC0
01FFC0FFE0
03FE001FF0
07F80007F8
07F00003F8
0FE00001FC
1FC00000FC
1F800000FC
3F8000007E
3F0000007E
3F0000007E
7E00000000
7E00000000
7E00000000
7E00000000
FC00000000
FC00000000
FC00000000
FC00000000
FC00000000
FC00000000
FC00000000
FC00000000
FC00000000
FC00000000
FC00000000
7E0000003F
7E0000003F
7E0000003F
7E0000003F
3F0000007F
3F0000007E
3F8000007E
1F800000FE
1FC00000FC
0FE00001FC
0FF00003F8
07F80007F8
03FE001FF0
01FFE0FFE0
00FFFFFFC0
007FFFFF80
003FFFFF00
0007FFFC00
0000FFC000
ENDCHAR
STARTCHAR 0109
ENCODING 265
SWIDTH 500 0
DWIDTH 32 0
BBX 28 49 2 -1
BITMAP
000FC000
001FE000
001FF000
003FF000
007CF800
007CF800
00F87C00
00F03E00
01E01E00
03E01F00
00000000
00000000
00000000
00000000
001FE000
00FFFC00
01FFFE00
07FFFF80
0FFFFFC0
0FF03FC0
1FC00FE0
3F8007E0
3F0003F0
7E0003F0
7E0003F0
7C0001F0
7C000000
FC000000
FC000000
FC000000
FC000000
FC000000
FC000000
FC000000
FC000000
FC000000
FC0001F0
7C0001F0
7E0001F0
7E0003F0
3F0003F0
3F8007E0
1FC00FE0
1FF03FC0
0FFFFF80
07FFFF80
03FFFE00
00FFFC00
001FE000
ENDCHAR
STARTCHAR 010A
ENCODING 266
SWIDTH 720 0
DWIDTH 46 0
BBX 40 60 3 -1
BITMAP
00003F8000
00003F8000
00003F8000
00003F8000
00003F8000
00003F8000
00003F8000
0000000000
0000000000
0000000000
0000000000
0000FFE000
0007FFFC00
001FFFFF00
007FFFFF80
00FFFFFFC0
01FFC0FFE0
03FE001FF0
07F80007F8
07F00003F8
0FE00001FC
1FC00000FC
1F800000FC
3F8000007E
3F0000007E
3F0000007E
7E00000000
7E00000000
7E00000000
7E00000000
FC00000000
FC00000000
FC00000000
FC00000000
FC00000000
FC00000000
FC00000000
FC00000000
FC00000000
FC00000000
FC00000000
7E0000003F
7E0000003F
7E0000003F
7E0000003F
3F0000007F
3F0000007E
3F8000007E
1F800000FE
1FC00000FC
0FE00001FC
0FF00003F8
07F80007F8
03FE001FF0
01FFE0FFE0
00FFFFFFC0
007FFFFF80
003FFFFF00
0007FFFC00
0000FFC000
ENDCHAR
STARTCHAR 010B
ENCODING 267
SWIDTH 500 0
DWIDTH 32 0
BBX 28 47 2 -1
BITMAP
000FC000
000FC000
000FC000
000FC000
000FC000
000FC000
000FC000
00000000
00000000
00000000
00000000
00000000
001FE000
00FFFC00
01FFFE00
07FFFF80
0FFFFFC0
0FF03FC0
1FC00FE0
3F8007E0
3F0003F0
7E0003F0
7E0003F0
7C0001F0
7C000000
FC000000
FC000000
FC000000
FC000000
FC000000
FC000000
FC000000
FC000000
FC000000
FC0001F0
7C0001F0
7E0001F0
7E0003F0
3F0003F0
3F8007E0
1FC00FE0
1FF03FC0
0FFFFF80
07FFFF80
03FFFE00
00FFFC00
001FE000
ENDCHAR
STARTCHAR 010C
ENCODING 268
SWIDTH 720 0
DWIDTH 46 0
BBX 40 62 3 -1
BITMAP
000F003C00
0007807C00
0003C07800
0003E0F000
0001F1F000
0001FBE000
0000FFC000
00007FC000
00007F8000
00003F8000
0000000000
0000000000
0000000000
0000FFE000
0007FFFC00
001FFFFF00
007FFFFF80
00FFFFFFC0
01FFC0FFE0
03FE001FF0
07F80007F8
07F00003F8
0FE00001FC
1FC00000FC
1F800000FC
3F8000007E
3F0000007E
3F0000007E
7E00000000
7E00000000
7E00000000
7E00000000
FC00000000
FC00000000
FC00000000
FC00000000
FC00000000
FC00000000
FC00000000
FC00000000
FC00000000
FC00000000
FC00000000
7E0000003F
7E0000003F
7E0000003F
7E0000003F
3F0000007F
3F0000007E
3F8000007E
1F800000FE
1FC00000FC
0FE00001FC
0FF00003F8
07F80007F8
03FE001FF0
01FFE0FFE0
00FFFFFFC0
007FFFFF80
003FFFFF00
0007FFFC00
0000FFC000
ENDCHAR
STARTCHAR 010D
ENCODING 269
SWIDTH 500 0
DWIDTH 32 0
BBX 28 49 2 -1
BITMAP
03C00F00
01E01E00
01F03E00
00F87C00
00F87800
007CF800
003FF000
003FF000
001FE000
001FE000
00000000
00000000
00000000
00000000
001FE000
00FFFC00
01FFFE00
07FFFF80
0FFFFFC0
0FF03FC0
1FC00FE0
3F8007E0
3F0003F0
7E0003F0
7E0003F0
7C0001F0
7C000000
FC000000
FC000000
FC000000
FC000000
FC000000
FC000000
FC000000
FC000000
FC000000
FC0001F0
7C0001F0
7E0001F0
7E0003F0
3F0003F0
3F8007E0
1FC00FE0
1FF03FC0
0FFFFF80
07FFFF80
03FFFE00
00FFFC00
001FE000
ENDCHAR
STARTCHAR 010E
ENCODING 270
SWIDTH 720 0
DWIDTH 46 0
BBX 37 60 6 0
BITMAP
01E00F0000
00F01F0000
00F83E0000
007C7C0000
003E7C0000
003EF80000
001FF00000
000FF00000
000FE00000
0000000000
0000000000
0000000000
0000000000
FFFFFC0000
FFFFFF8000
FFFFFFE000
FFFFFFF800
FFFFFFFC00
FC001FFE00
FC0001FF00
FC00007F80
FC00003F80
FC00001FC0
FC00000FC0
FC00000FE0
FC000007E0
FC000007E0
FC000007F0
FC000003F0
FC000003F0
FC000003F0
FC000003F0
FC000003F0
FC000001F8
FC000001F8
FC000001F8
FC000001F8
FC000001F8
FC000001F8
FC000001F8
FC000001F0
FC000003F0
FC000003F0
FC000003F0
FC000003F0
FC000003F0
FC000007E0
FC000007E0
FC00000FE0
FC00000FC0
FC00001FC0
FC00003F80
FC00007F00
FC0001FF00
FC000FFE00
FFFFFFFC00
FFFFFFF800
FFFFFFE000
FFFFFF8000
FFFFFC0000
ENDCHAR
STARTCHAR 010F
ENCODING 271
SWIDTH 641 0
DWIDTH 41 0
BBX 39 48 2 -1
BITMAP
000000FC7E
000000FC7E
000000FC7E
000000FC7E
000000FC7E
000000FC7E
000000FC06
000000FC06
000000FC0E
000000FC0E
000000FC0E
000000FC0C
000000FC3C
003FC0FC78
00FFF0FC70
03FFFCFC00
07FFFEFC00
0FFFFFFC00
1FF03FFC00
3FC00FFC00
3F8007FC00
7F0003FC00
7E0003FC00
7E0001FC00
FC0001FC00
FC0000FC00
FC0000FC00
F80000FC00
F80000FC00
F80000FC00
F80000FC00
F80000FC00
F80000FC00
FC0000FC00
FC0000FC00
FC0000FC00
FC0001FC00
7E0001FC00
7E0001FC00
7F0003FC00
3F8007FC00
3FC00FFC00
1FF03FFC00
0FFFFF7C00
07FFFE7C00
03FFFC7C00
00FFF07C00
003FC00000
ENDCHAR
STARTCHAR 0110
ENCODING 272
SWIDTH 720 0
DWIDTH 46 0
BBX 42 47 1 0
BITMAP
07FFFFE00000
07FFFFFC0000
07FFFFFF0000
07FFFFFFC000
07FFFFFFE000
07E000FFF000
07E0000FF800
07E00003FC00
07E00001FC00
07E00000FE00
07E000007E00
07E000007F00
07E000003F00
07E000003F00
07E000001F80
07E000001F80
07E000001F80
07E000001F80
07E000001F80
07E000000F80
07E000000FC0
FFFFFC000FC0
FFFFFC000FC0
FFFFFC000FC0
FFFFFC000FC0
07E000000FC0
07E000000FC0
07E000001F80
07E000001F80
07E000001F80
07E000001F80
07E000001F80
07E000003F80
07E000003F00
07E000003F00
07E000007F00
07E000007E00
07E00000FE00
07E00001FC00
07E00003F800
07E0000FF800
07E0007FF000
07FFFFFFE000
07FFFFFFC000
07FFFFFF0000
07FFFFFC0000
07FFFFE00000
ENDCHAR
STARTCHAR 0111
ENCODING 273
SWIDTH 563 0
DWIDTH 36 0
BBX 34 48 2 -1
BITMAP
000000FC00
000000FC00
000000FC00
000000FC00
000000FC00
0001FFFFC0
0001FFFFC0
0001FFFFC0
000000FC00
000000FC00
000000FC00
000000FC00
000000FC00
003FC0FC00
00FFF0FC00
03FFFCFC00
07FFFEFC00
0FFFFFFC00
1FF87FFC00
3FC01FFC00
3F8007FC00
7F0003FC00
7E0003FC00
7E0001FC00
FC0001FC00
FC0000FC00
FC0000FC00
F80000FC00
F80000FC00
F80000FC00
F80000FC00
F80000FC00
F80000FC00
FC0000FC00
FC0000FC00
FC0000FC00
FC0001FC00
7E0001FC00
7E0003FC00
7F0003FC00
3F8007FC00
1FC00FFC00
1FF87FFC00
0FFFFF7C00
07FFFE7C00
03FFFC7C00
00FFF07C00
003FC00000
ENDCHAR
STARTCHAR 0112
ENCODING 274
SWIDTH 673 0
DWIDTH 43 0
BBX 33 58 6 0
BITMAP
01FFFF8000
01FFFF8000
01FFFF8000
01FFFF8000
0000000000
0000000000
0000000000
0000000000
0000000000
0000000000
0000000000
FFFFFFFF00
FFFFFFFF00
FFFFFFFF00
FFFFFFFF00
FFFFFFFF00
FC00000000
FC00000000
FC00000000
FC00000000
FC00000000
FC00000000
FC00000000
FC00000000
FC00000000
FC00000000
FC00000000
FC00000000
FC00000000
FC00000000
FC00000000
FFFFFFFE00
FFFFFFFE00
FFFFFFFE00
FFFFFFFE00
FFFFFFFE00
FC00000000
FC00000000
FC00000000
FC00000000
FC00000000
FC00000000
FC00000000
FC00000000
FC00000000
FC00000000
FC00000000
FC00000000
FC00000000
FC00000000
FC00000000
FC00000000
FC00000000
FFFFFFFF80
FFFFFFFF80
FFFFFFFF80
FFFFFFFF80
FFFFFFFF80
ENDCHAR
STARTCHAR 0113
ENCODING 275
SWIDTH 563 0
DWIDTH 36 0
BBX 30 45 3 -1
BITMAP
03FFFF00
03FFFF00
03FFFF00
03FFFF00
00000000
00000000
00000000
00000000
00000000
00000000
001FE000
00FFFC00
03FFFF00
07FFFF80
0FFFFFC0
1FE03FE0
1F800FE0
3F0007F0
7E0003F0
7E0001F8
7C0001F8
FC0000F8
FC0000F8
F80000FC
F80000FC
FFFFFFFC
FFFFFFFC
FFFFFFFC
FFFFFFFC
F8000000
F8000000
F8000000
F8000000
FC000000
FC0001F8
7E0001F8
7E0003F0
3F0007F0
3FC00FE0
1FF01FE0
0FFFFFC0
07FFFF80
03FFFF00
00FFFC00
001FE000
ENDCHAR
STARTCHAR 0114
ENCODING 276
SWIDTH 673 0
DWIDTH 43 0
BBX 33 60 6 0
BITMAP
03C003C000
03C003C000
01E0078000
01F00F8000
01FE7F8000
00FFFF0000
007FFE0000
003FFC0000
000FF00000
0000000000
0000000000
0000000000
0000000000
FFFFFFFF00
FFFFFFFF00
FFFFFFFF00
FFFFFFFF00
FFFFFFFF00
FC00000000
FC00000000
FC00000000
FC00000000
FC00000000
FC00000000
FC00000000
FC00000000
FC00000000
FC00000000
FC00000000
FC00000000
FC00000000
FC00000000
FC00000000
FFFFFFFE00
FFFFFFFE00
FFFFFFFE00
FFFFFFFE00
FFFFFFFE00
FC00000000
FC00000000
FC00000000
FC00000000
FC00000000
FC00000000
FC00000000
FC00000000
FC00000000
FC00000000
FC00000000
FC00000000
FC00000000
FC00000000
FC00000000
FC00000000
FC00000000
FFFFFFFF80
FFFFFFFF80
FFFFFFFF80
FFFFFFFF80
FFFFFFFF80
ENDCHAR
STARTCHAR 0115
ENCODING 277
SWIDTH 563 0
DWIDTH 36 0
BBX 30 48 3 -1
BITMAP
03C00780
03C00780
03C00F80
03E01F00
01FEFF00
01FFFE00
00FFFC00
007FF800
001FE000
00000000
00000000
00000000
00000000
001FE000
00FFFC00
03FFFF00
07FFFF80
0FFFFFC0
1FE03FE0
1F800FE0
3F0007F0
7E0003F0
7E0001F8
7C0001F8
FC0000F8
FC0000F8
F80000FC
F80000FC
FFFFFFFC
FFFFFFFC
FFFFFFFC
FFFFFFFC
F8000000
F8000000
F8000000
F8000000
FC000000
FC0001F8
7E0001F8
7E0003F0
3F0007F0
3FC00FE0
1FF01FE0
0FFFFFC0
07FFFF80
03FFFF00
00FFFC00
001FE000
ENDCHAR
STARTCHAR 0116
ENCODING 278
SWIDTH 673 0
DWIDTH 43 0
BBX 33 59 6 0
BITMAP
0007E00000
0007E00000
0007E00000
0007E00000
0007E00000
0007E00000
0007E00000
0000000000
0000000000
0000000000
0000000000
0000000000
FFFFFFFF00
FFFFFFFF00
FFFFFFFF00
FFFFFFFF00
FFFFFFFF00
FC00000000
FC00000000
FC00000000
FC00000000
FC00000000
FC00000000
FC00000000
FC00000000
FC00000000
FC00000000
FC00000000
FC00000000
FC00000000
FC00000000
FC00000000
FFFFFFFE00
FFFFFFFE00
FFFFFFFE00
FFFFFFFE00
FFFFFFFE00
FC00000000
FC00000000
FC00000000
FC00000000
FC00000000
FC00000000
FC00000000
FC00000000
FC00000000
FC00000000
FC00000000
FC00000000
FC00000000
FC00000000
FC00000000
FC00000000
FC00000000
FFFFFFFF80
FFFFFFFF80
FFFFFFFF80
FFFFFFFF80
FFFFFFFF80
ENDCHAR
STARTCHAR 0117
ENCODING 279
SWIDTH 563 0
DWIDTH 36 0
BBX 30 47 3 -1
BITMAP
000FE000
000FE000
000FE000
000FE000
000FE000
000FE000
000FE000
00000000
00000000
00000000
00000000
00000000
001FE000
00FFFC00
03FFFF00
07FFFF80
0FFFFFC0
1FE03FE0
1F800FE0
3F0007F0
7E0003F0
7E0001F8
7C0001F8
FC0000F8
FC0000F8
F80000FC
F80000FC
FFFFFFFC
FFFFFFFC
FFFFFFFC
FFFFFFFC
F8000000
F8000000
F8000000
F8000000
FC000000
FC0001F8
7E0001F8
7E0003F0
3F0007F0
3FC00FE0
1FF01FE0
0FFFFFC0
07FFFF80
03FFFF00
00FFFC00
001FE000
ENDCHAR
STARTCHAR 0118
ENCODING 280
SWIDTH 673 0
DWIDTH 43 0
BBX 36 60 6 -13
BITMAP
FFFFFFFF00
FFFFFFFF00
FFFFFFFF00
FFFFFFFF00
FFFFFFFF00
FC00000000
FC00000000
FC00000000
FC00000000
FC00000000
FC00000000
FC00000000
FC00000000
FC00000000
FC00000000
FC00000000
FC00000000
FC00000000
FC00000000
FC00000000
FFFFFFFE00
FFFFFFFE00
FFFFFFFE00
FFFFFFFE00
FFFFFFFE00
FC00000000
FC00000000
FC00000000
FC00000000
FC00000000
FC00000000
FC00000000
FC00000000
FC00000000
FC00000000
FC00000000
FC00000000
FC00000000
FC00000000
FC00000000
FC00000000
FC00000000
FFFFFFFF80
FFFFFFFF80
FFFFFFFF80
FFFFFFFF80
FFFFFFFF80
0000000F00
0000003C00
0000007800
000000F000
000001F000
000001E000
000003E000
000003E000
000001F000
000001F800
000000FFF0
0000007FF0
0000001FE0
ENDCHAR
STARTCHAR 0119
ENCODING 281
SWIDTH 563 0
DWIDTH 36 0
BBX 30 47 3 -13
BITMAP
001FE000
00FFFC00
03FFFF00
07FFFF80
0FFFFFC0
1FE03FE0
1F800FE0
3F0007F0
7E0003F0
7E0001F8
7C0001F8
FC0000F8
FC0000F8
F80000FC
F80000FC
FFFFFFFC
FFFFFFFC
FFFFFFFC
FFFFFFFC
F8000000
F8000000
F8000000
FC000000
FC000000
FC0001F8
7E0001F8
7E0003F0
3F0003F0
3FC00FE0
1FE01FE0
0FFFFFC0
07FFFF80
03FFFF00
00FFFE00
001FFC00
00003800
00007800
0000F000
0001F000
0001F000
0001E000
0001F000
0001F000
0001F800
0000FFF0
00003FF0
000007E0
ENDCHAR
STARTCHAR 011A
ENCODING 282
SWIDTH 673 0
DWIDTH 43 0
BBX 33 60 6 0
BITMAP
01F00F8000
00F81F0000
00781E0000
007C3E0000
003E7C0000
001FF80000
001FF80000
000FF00000
0007E00000
0000000000
0000000000
0000000000
0000000000
FFFFFFFF00
FFFFFFFF00
FFFFFFFF00
FFFFFFFF00
FFFFFFFF00
FC00000000
FC00000000
FC00000000
FC00000000
FC00000000
FC00000000
FC00000000
FC00000000
FC00000000
FC00000000
FC00000000
FC00000000
FC00000000
FC00000000
FC00000000
FFFFFFFE00
FFFFFFFE00
FFFFFFFE00
FFFFFFFE00
FFFFFFFE00
FC00000000
FC00000000
FC00000000
FC00000000
FC00000000
FC00000000
FC00000000
FC00000000
FC00000000
FC00000000
FC00000000
FC00000000
FC00000000
FC00000000
FC00000000
FC00000000
FC00000000
FFFFFFFF80
FFFFFFFF80
FFFFFFFF80
FFFFFFFF80
FFFFFFFF80
ENDCHAR
STARTCHAR 011B
ENCODING 283
SWIDTH 563 0
DWIDTH 36 0
BBX 30 49 3 -1
BITMAP
03E00F00
01E01F00
00F03E00
00F83C00
007C7C00
007CF800
003FF800
001FF000
001FE000
000FE000
00000000
00000000
00000000
00000000
001FE000
00FFFC00
03FFFF00
07FFFF80
0FFFFFC0
1FE03FE0
1F800FE0
3F0007F0
7E0003F0
7E0001F8
7C0001F8
FC0000F8
FC0000F8
F80000FC
F80000FC
FFFFFFFC
FFFFFFFC
FFFFFFFC
FFFFFFFC
F8000000
F8000000
F8000000
F8000000
FC000000
FC0001F8
7E0001F8
7E0003F0
3F0007F0
3FC00FE0
1FF01FE0
0FFFFFC0
07FFFF80
03FFFF00
00FFFC00
001FE000
ENDCHAR
STARTCHAR 011C
ENCODING 284
SWIDTH 782 0
DWIDTH 50 0
BBX 42 62 3 -1
BITMAP
00003F800000
00003F800000
00007FC00000
00007FE00000
0000FBE00000
0001F1F00000
0001E0F80000
0003E0780000
0007C03C0000
0007803E0000
000000000000
000000000000
000000000000
00007FF00000
0007FFFE0000
001FFFFF8000
003FFFFFE000
00FFFFFFF000
01FFE07FF800
03FF0007FC00
07FC0003FE00
07F00000FE00
0FE000007F00
1FC000003F00
1F8000003F80
3F8000001F80
3F0000001F80
7F0000001FC0
7E0000000000
7E0000000000
7E0000000000
FC0000000000
FC0000000000
FC0000000000
FC0000000000
FC0000000000
FC0001FFFFC0
FC0001FFFFC0
FC0001FFFFC0
FC0001FFFFC0
FC0001FFFFC0
FC00000007C0
FC00000007C0
FE00000007C0
7E00000007C0
7E00000007C0
7E00000007C0
7F0000000FC0
3F0000000FC0
3F8000001FC0
1FC000001FC0
1FC000003FC0
0FE000007FC0
0FF00000FFC0
07FC0001FFC0
03FF0007F7C0
01FFF07FE7C0
00FFFFFFC3C0
007FFFFF83C0
001FFFFE03C0
0007FFF803C0
0000FFC00000
ENDCHAR
STARTCHAR 011D
ENCODING 285
SWIDTH 563 0
DWIDTH 36 0
BBX 29 61 2 -13
BITMAP
000FE000
001FE000
001FF000
003FF000
003EF800
007C7C00
00783C00
00F03E00
01F01E00
01E00F00
00000000
00000000
00000000
00000000
001F8000
00FFF0F8
01FFF8F8
03FFFCF8
07FFFEF8
0FE03FF8
1FC01FF8
1F800FF8
3F0007F8
3E0003F8
7E0003F8
7E0001F8
7C0001F8
7C0001F8
FC0001F8
FC0001F8
FC0001F8
FC0001F8
FC0001F8
FC0001F8
FC0001F8
FC0001F8
7C0001F8
7E0001F8
7E0003F8
7E0003F8
3F0007F8
3F800FF8
1FC01FF8
0FE03FF8
0FFFFDF8
07FFF9F8
01FFF1F8
00FFE1F8
003F81F0
000001F0
000001F0
7E0001F0
7E0003F0
3E0003E0
3F0007E0
3F800FC0
1FE03FC0
0FFFFF80
07FFFF00
03FFFC00
00FFF000
ENDCHAR
STARTCHAR 011E
ENCODING 286
SWIDTH 782 0
DWIDTH 50 0
BBX 42 61 3 -1
BITMAP
0007800F0000
0007800F0000
0007C01F0000
0003F03E0000
0003FFFE0000
0001FFFC0000
0000FFF80000
00003FE00000
000000000000
000000000000
000000000000
000000000000
00007FF00000
0007FFFE0000
001FFFFF8000
003FFFFFE000
00FFFFFFF000
01FFE07FF800
03FF0007FC00
07FC0003FE00
07F00000FE00
0FE000007F00
1FC000003F00
1F8000003F80
3F8000001F80
3F0000001F80
7F0000001FC0
7E0000000000
7E0000000000
7E0000000000
FC0000000000
FC0000000000
FC0000000000
FC0000000000
FC0000000000
FC0001FFFFC0
FC0001FFFFC0
FC0001FFFFC0
FC0001FFFFC0
FC0001FFFFC0
FC00000007C0
FC00000007C0
FE00000007C0
7E00000007C0
7E00000007C0
7E00000007C0
7F0000000FC0
3F0000000FC0
3F8000001FC0
1FC000001FC0
1FC000003FC0
0FE000007FC0
0FF00000FFC0
07FC0001FFC0
03FF0007F7C0
01FFF07FE7C0
00FFFFFFC3C0
007FFFFF83C0
001FFFFE03C0
0007FFF803C0
0000FFC00000
ENDCHAR
STARTCHAR 011F
ENCODING 287
SWIDTH 563 0
DWIDTH 36 0
BBX 29 60 2 -13
BITMAP
03800780
03C00780
03C00F00
03E01F00
03FEFF00
01FFFE00
00FFFC00
007FF800
001FE000
00000000
00000000
00000000
00000000
001F8000
00FFF0F8
01FFF8F8
03FFFCF8
07FFFEF8
0FE03FF8
1FC01FF8
1F800FF8
3F0007F8
3E0003F8
7E0003F8
7E0001F8
7C0001F8
7C0001F8
FC0001F8
FC0001F8
FC0001F8
FC0001F8
FC0001F8
FC0001F8
FC0001F8
FC0001F8
7C0001F8
7E0001F8
7E0003F8
7E0003F8
3F0007F8
3F800FF8
1FC01FF8
0FE03FF8
0FFFFDF8
07FFF9F8
01FFF1F8
00FFE1F8
003F81F0
000001F0
000001F0
7E0001F0
7E0003F0
3E0003E0
3F0007E0
3F800FC0
1FE03FC0
0FFFFF80
07FFFF00
03FFFC00
00FFF000
ENDCHAR
STARTCHAR 0120
ENCODING 288
SWIDTH 782 0
DWIDTH 50 0
BBX 42 60 3 -1
BITMAP
00001F800000
00001F800000
00001F800000
00001F800000
00001F800000
00001F800000
00001F800000
000000000000
000000000000
000000000000
000000000000
00007FF00000
0007FFFE0000
001FFFFF8000
003FFFFFE000
00FFFFFFF000
01FFE07FF800
03FF0007FC00
07FC0003FE00
07F00000FE00
0FE000007F00
1FC000003F00
1F8000003F80
3F8000001F80
3F0000001F80
7F0000001FC0
7E0000000000
7E0000000000
7E0000000000
FC0000000000
FC0000000000
FC0000000000
FC0000000000
FC0000000000
FC0001FFFFC0
FC0001FFFFC0
FC0001FFFFC0
FC0001FFFFC0
FC0001FFFFC0
FC00000007C0
FC00000007C0
FE00000007C0
7E00000007C0
7E00000007C0
7E00000007C0
7F0000000FC0
3F0000000FC0
3F8000001FC0
1FC000001FC0
1FC000003FC0
0FE000007FC0
0FF00000FFC0
07FC0001FFC0
03FF0007F7C0
01FFF07FE7C0
00FFFFFFC3C0
007FFFFF83C0
001FFFFE03C0
0007FFF803C0
0000FFC00000
ENDCHAR
STARTCHAR 0121
ENCODING 289
SWIDTH 563 0
DWIDTH 36 0
BBX 29 59 2 -13
BITMAP
000FC000
000FC000
000FC000
000FC000
000FC000
000FC000
000FC000
00000000
00000000
00000000
00000000
00000000
001F8000
00FFF0F8
01FFF8F8
03FFFCF8
07FFFEF8
0FE03FF8
1FC01FF8
1F800FF8
3F0007F8
3E0003F8
7E0003F8
7E0001F8
7C0001F8
7C0001F8
FC0001F8
FC0001F8
FC0001F8
FC0001F8
FC0001F8
FC0001F8
FC0001F8
FC0001F8
7C0001F8
7E0001F8
7E0003F8
7E0003F8
3F0007F8
3F800FF8
1FC01FF8
0FE03FF8
0FFFFDF8
07FFF9F8
01FFF1F8
00FFE1F8
003F81F0
000001F0
000001F0
7E0001F0
7E0003F0
3E0003E0
3F0007E0
3F800FC0
1FE03FC0
0FFFFF80
07FFFF00
03FFFC00
00FFF000
ENDCHAR
STARTCHAR 0122
ENCODING 290
SWIDTH 782 0
DWIDTH 50 0
BBX 42 66 3 -18
BITMAP
00007FF00000
0007FFFE0000
001FFFFF8000
003FFFFFE000
00FFFFFFF000
01FFE07FF800
03FF0007FC00
07FC0003FE00
07F00000FE00
0FE000007F00
1FC000003F00
1F8000003F80
3F8000001F80
3F0000001F80
7F0000001FC0
7E0000000000
7E0000000000
7E0000000000
FC0000000000
FC0000000000
FC0000000000
FC0000000000
FC0000000000
FC0001FFFFC0
FC0001FFFFC0
FC0001FFFFC0
FC0001FFFFC0
FC0001FFFFC0
FC00000007C0
FC00000007C0
FE00000007C0
7E00000007C0
7E00000007C0
7E00000007C0
7F0000000FC0
3F0000000FC0
3F8000001FC0
1FC000001FC0
1FC000003FC0
0FE000007FC0
0FF00000FFC0
07FC0001FFC0
03FF0007F7C0
01FFF07FE7C0
00FFFFFFC3C0
007FFFFF83C0
001FFFFE03C0
0007FFF803C0
0000FFC00000
000000000000
000000000000
000000000000
00001F800000
00001F800000
00001F800000
00001F800000
00001F800000
00001F800000
000003800000
000003800000
000003800000
000003000000
000007000000
00001E000000
00001E000000
000018000000
ENDCHAR
STARTCHAR 0123
ENCODING 291
SWIDTH 563 0
DWIDTH 36 0
BBX 29 65 2 -13
BITMAP
0000C000
0003C000
0007C000
00070000
000E0000
000E0000
000E0000
000E0000
000FC000
000FC000
000FC000
000FC000
000FC000
000FC000
00000000
00000000
00000000
00000000
001F8000
00FFF0F8
01FFF8F8
03FFFCF8
07FFFEF8
0FE03FF8
1FC01FF8
1F800FF8
3F0007F8
3E0003F8
7E0003F8
7E0001F8
7C0001F8
7C0001F8
FC0001F8
FC0001F8
FC0001F8
FC0001F8
FC0001F8
FC0001F8
FC0001F8
FC0001F8
7C0001F8
7E0001F8
7E0003F8
7E0003F8
3F0007F8
3F800FF8
1FC01FF8
0FE03FF8
0FFFFDF8
07FFF9F8
01FFF1F8
00FFE1F8
003F81F0
000001F0
000001F0
7E0001F0
7E0003F0
3E0003E0
3F0007E0
3F800FC0
1FE03FC0
0FFFFF80
07FFFF00
03FFFC00
00FFF000
ENDCHAR
STARTCHAR 0124
ENCODING 292
SWIDTH 720 0
DWIDTH 46 0
BBX 36 60 5 0
BITMAP
0001FC0000
0003FE0000
0003FF0000
0007DF0000
00078F8000
000F87C000
001F03C000
001E03E000
003C01F000
0000000000
0000000000
0000000000
0000000000
FC000003F0
FC000003F0
FC000003F0
FC000003F0
FC000003F0
FC000003F0
FC000003F0
FC000003F0
FC000003F0
FC000003F0
FC000003F0
FC000003F0
FC000003F0
FC000003F0
FC000003F0
FC000003F0
FC000003F0
FC000003F0
FC000003F0
FC000003F0
FFFFFFFFF0
FFFFFFFFF0
FFFFFFFFF0
FFFFFFFFF0
FFFFFFFFF0
FC000003F0
FC000003F0
FC000003F0
FC000003F0
FC000003F0
FC000003F0
FC000003F0
FC000003F0
FC000003F0
FC000003F0
FC000003F0
FC000003F0
FC000003F0
FC000003F0
FC000003F0
FC000003F0
FC000003F0
FC000003F0
FC000003F0
FC000003F0
FC000003F0
FC000003F0
ENDCHAR
STARTCHAR 0125
ENCODING 293
SWIDTH 563 0
DWIDTH 36 0
BBX 33 60 -2 0
BITMAP
03F8000000
07FC000000
0FFC000000
0FBE000000
1F3E000000
3E1F000000
3C0F800000
7807800000
F803C00000
0000000000
0000000000
0000000000
0000000000
03F0000000
03F0000000
03F0000000
03F0000000
03F0000000
03F0000000
03F0000000
03F0000000
03F0000000
03F0000000
03F0000000
03F0000000
03F0000000
03F01FC000
03F0FFF800
03F1FFFC00
03F3FFFE00
03F7FFFF00
03FF807F00
03FE003F80
03FC001F80
03FC001F80
03F8000F80
03F8000F80
03F0000F80
03F0000F80
03F0000F80
03F0000F80
03F0000F80
03F0000F80
03F0000F80
03F0000F80
03F0000F80
03F0000F80
03F0000F80
03F0000F80
03F0000F80
03F0000F80
03F0000F80
03F0000F80
03F0000F80
03F0000F80
03F0000F80
03F0000F80
03F0000F80
03F0000F80
03F0000F80
ENDCHAR
STARTCHAR 0126
ENCODING 294
SWIDTH 720 0
DWIDTH 46 0
BBX 45 47 1 0
BITMAP
0FC000003F00
0FC000003F00
0FC000003F00
0FC000003F00
0FC000003F00
0FC000003F00
0FC000003F00
0FC000003F00
0FC000003F00
0FC000003F00
FFFFFFFFFFF8
FFFFFFFFFFF8
FFFFFFFFFFF8
FFFFFFFFFFF8
0FC000003F00
0FC000003F00
0FC000003F00
0FC000003F00
0FC000003F00
0FC000003F00
0FFFFFFFFF00
0FFFFFFFFF00
0FFFFFFFFF00
0FFFFFFFFF00
0FFFFFFFFF00
0FC000003F00
0FC000003F00
0FC000003F00
0FC000003F00
0FC000003F00
0FC000003F00
0FC000003F00
0FC000003F00
0FC000003F00
0FC000003F00
0FC000003F00
0FC000003F00
0FC000003F00
0FC000003F00
0FC000003F00
0FC000003F00
0FC000003F00
0FC000003F00
0FC000003F00
0FC000003F00
0FC000003F00
0FC000003F00
ENDCHAR
STARTCHAR 0127
ENCODING 295
SWIDTH 563 0
DWIDTH 36 0
BBX 30 47 1 0
BITMAP
1F800000
1F800000
1F800000
1F800000
1F800000
FFFFFC00
FFFFFC00
FFFFFC00
1F800000
1F800000
1F800000
1F800000
1F800000
1F80FE00
1F87FFC0
1F8FFFE0
1F9FFFF0
1FBFFFF8
1FFC03F8
1FF001FC
1FE000FC
1FE000FC
1FC0007C
1FC0007C
1F80007C
1F80007C
1F80007C
1F80007C
1F80007C
1F80007C
1F80007C
1F80007C
1F80007C
1F80007C
1F80007C
1F80007C
1F80007C
1F80007C
1F80007C
1F80007C
1F80007C
1F80007C
1F80007C
1F80007C
1F80007C
1F80007C
1F80007C
ENDCHAR
STARTCHAR 0128
ENCODING 296
SWIDTH 281 0
DWIDTH 18 0
BBX 20 59 -1 0
BITMAP
1E00F0
3F81E0
7FFBE0
FFFFE0
F9FFC0
F07F80
E00F00
000000
000000
000000
000000
000000
01F800
01F800
01F800
01F800
01F800
01F800
01F800
01F800
01F800
01F800
01F800
01F800
01F800
01F800
01F800
01F800
01F800
01F800
01F800
01F800
01F800
01F800
01F800
01F800
01F800
01F800
01F800
01F800
01F800
01F800
01F800
01F800
01F800
01F800
01F800
01F800
01F800
01F800
01F800
01F800
01F800
01F800
01F800
01F800
01F800
01F800
01F800
ENDCHAR
STARTCHAR 0129
ENCODING 297
SWIDTH 281 0
DWIDTH 18 0
BBX 20 46 -1 0
BITMAP
1F00F0
3FE1E0
7FFFE0
FFFFE0
F9FFC0
F03F80
E00000
000000
000000
000000
000000
000000
000000
01F000
01F000
01F000
01F000
01F000
01F000
01F000
01F000
01F000
01F000
01F000
01F000
01F000
01F000
01F000
01F000
01F000
01F000
01F000
01F000
01F000
01F000
01F000
01F000
01F000
01F000
01F000
01F000
01F000
01F000
01F000
01F000
01F000
ENDCHAR
STARTCHAR 012A
ENCODING 298
SWIDTH 281 0
DWIDTH 18 0
BBX 17 58 1 0
BITMAP
FFFF80
FFFF80
FFFF80
FFFF80
000000
000000
000000
000000
000000
000000
000000
07E000
07E000
07E000
07E000
07E000
07E000
07E000
07E000
07E000
07E000
07E000
07E000
07E000
07E000
07E000
07E000
07E000
07E000
07E000
07E000
07E000
07E000
07E000
07E000
07E000
07E000
07E000
07E000
07E000
07E000
07E000
07E000
07E000
07E000
07E000
07E000
07E000
07E000
07E000
07E000
07E000
07E000
07E000
07E000
07E000
07E000
07E000
ENDCHAR
STARTCHAR 012B
ENCODING 299
SWIDTH 281 0
DWIDTH 18 0
BBX 16 44 1 0
BITMAP
FFFF
FFFF
FFFF
FFFF
0000
0000
0000
0000
0000
0000
0000
07C0
07C0
07C0
07C0
07C0
07C0
07C0
07C0
07C0
07C0
07C0
07C0
07C0
07C0
07C0
07C0
07C0
07C0
07C0
07C0
07C0
07C0
07C0
07C0
07C0
07C0
07C0
07C0
07C0
07C0
07C0
07C0
07C0
ENDCHAR
STARTCHAR 012C
ENCODING 300
SWIDTH 281 0
DWIDTH 18 0
BBX 19 60 -1 0
BITMAP
F000E0
F001E0
F801E0
7C03E0
7F9FC0
3FFFC0
1FFF80
0FFF00
03F800
000000
000000
000000
000000
01F800
01F800
01F800
01F800
01F800
01F800
01F800
01F800
01F800
01F800
01F800
01F800
01F800
01F800
01F800
01F800
01F800
01F800
01F800
01F800
01F800
01F800
01F800
01F800
01F800
01F800
01F800
01F800
01F800
01F800
01F800
01F800
01F800
01F800
01F800
01F800
01F800
01F800
01F800
01F800
01F800
01F800
01F800
01F800
01F800
01F800
01F800
ENDCHAR
STARTCHAR 012D
ENCODING 301
SWIDTH 281 0
DWIDTH 18 0
BBX 19 47 -1 0
BITMAP
F000E0
F001E0
F801E0
7C03E0
7F9FC0
3FFFC0
1FFF80
0FFF00
03F800
000000
000000
000000
000000
000000
01F000
01F000
01F000
01F000
01F000
01F000
01F000
01F000
01F000
01F000
01F000
01F000
01F000
01F000
01F000
01F000
01F000
01F000
01F000
01F000
01F000
01F000
01F000
01F000
01F000
01F000
01F000
01F000
01F000
01F000
01F000
01F000
01F000
ENDCHAR
STARTCHAR 012E
ENCODING 302
SWIDTH 281 0
DWIDTH 18 0
BBX 11 60 4 -13
BITMAP
3F00
3F00
3F00
3F00
3F00
3F00
3F00
3F00
3F00
3F00
3F00
3F00
3F00
3F00
3F00
3F00
3F00
3F00
3F00
3F00
3F00
3F00
3F00
3F00
3F00
3F00
3F00
3F00
3F00
3F00
3F00
3F00
3F00
3F00
3F00
3F00
3F00
3F00
3F00
3F00
3F00
3F00
3F00
3F00
3F00
3F00
3F00
0F00
1E00
3C00
7C00
7800
F800
F800
F800
F800
7C00
7FE0
3FE0
0FE0
ENDCHAR
STARTCHAR 012F
ENCODING 303
SWIDTH 219 0
DWIDTH 14 0
BBX 10 60 2 -13
BITMAP
3F00
3F00
3F00
3F00
3F00
3F00
3F00
0000
0000
0000
0000
0000
0000
0000
3F00
3F00
3F00
3F00
3F00
3F00
3F00
3F00
3F00
3F00
3F00
3F00
3F00
3F00
3F00
3F00
3F00
3F00
3F00
3F00
3F00
3F00
3F00
3F00
3F00
3F00
3F00
3F00
3F00
3F00
3F00
3F00
3F00
0E00
1C00
3C00
7800
F800
F000
F000
F000
F800
FC00
7FC0
3FC0
1FC0
ENDCHAR
STARTCHAR 0130
ENCODING 304
SWIDTH 281 0
DWIDTH 18 0
BBX 7 59 6 0
BITMAP
FE
FE
FE
FE
FE
FE
FE
00
00
00
00
00
FC
FC
FC
FC
FC
FC
FC
FC
FC
FC
FC
FC
FC
FC
FC
FC
FC
FC
FC
FC
FC
FC
FC
FC
FC
FC
FC
FC
FC
FC
FC
FC
FC
FC
FC
FC
FC
FC
FC
FC
FC
FC
FC
FC
FC
FC
FC
ENDCHAR
STARTCHAR 0131
ENCODING 305
SWIDTH 281 0
DWIDTH 18 0
BBX 5 33 6 0
BITMAP
F8
F8
F8
F8
F8
F8
F8
F8
F8
F8
F8
F8
F8
F8
F8
F8
F8
F8
F8
F8
F8
F8
F8
F8
F8
F8
F8
F8
F8
F8
F8
F8
F8
ENDCHAR
STARTCHAR 0132
ENCODING 306
SWIDTH 735 0
DWIDTH 47 0
BBX 35 48 7 -1
BITMAP
FC000007E0
FC000007E0
FC000007E0
FC000007E0
FC000007E0
FC000007E0
FC000007E0
FC000007E0
FC000007E0
FC000007E0
FC000007E0
FC000007E0
FC000007E0
FC000007E0
FC000007E0
FC000007E0
FC000007E0
FC000007E0
FC000007E0
FC000007E0
FC000007E0
FC000007E0
FC000007E0
FC000007E0
FC000007E0
FC000007E0
FC000007E0
FC000007E0
FC000007E0
FC000007E0
FC000007E0
FC000007E0
FC7E0007E0
FC7E0007E0
FC7E0007E0
FC7E0007E0
FC7E0007E0
FC7E0007E0
FC7E000FE0
FC7F000FC0
FC3F000FC0
FC3F801FC0
FC1FE07F80
FC1FFFFF00
FC0FFFFE00
FC07FFFC00
FC01FFF800
00003FC000
ENDCHAR
STARTCHAR 0133
ENCODING 307
SWIDTH 438 0
DWIDTH 28 0
BBX 17 61 6 -14
BITMAP
F80F80
F80F80
F80F80
F80F80
F80F80
F80F80
F80F80
000000
000000
000000
000000
000000
000000
000000
F80F80
F80F80
F80F80
F80F80
F80F80
F80F80
F80F80
F80F80
F80F80
F80F80
F80F80
F80F80
F80F80
F80F80
F80F80
F80F80
F80F80
F80F80
F80F80
F80F80
F80F80
F80F80
F80F80
F80F80
F80F80
F80F80
F80F80
F80F80
F80F80
F80F80
F80F80
F80F80
F80F80
000F80
000F80
000F80
000F80
000F80
000F80
000F80
000F80
001F80
03FF80
03FF00
03FF00
03FC00
03F000
ENDCHAR
STARTCHAR 0134
ENCODING 308
SWIDTH 500 0
DWIDTH 32 0
BBX 31 61 1 -1
BITMAP
00001FC0
00003FE0
00007FE0
00007DF0
0000F8F8
0000F0F8
0001E07C
0003E03E
0003C01E
00000000
00000000
00000000
00000000
00000FC0
00000FC0
00000FC0
00000FC0
00000FC0
00000FC0
00000FC0
00000FC0
00000FC0
00000FC0
00000FC0
00000FC0
00000FC0
00000FC0
00000FC0
00000FC0
00000FC0
00000FC0
00000FC0
00000FC0
00000FC0
00000FC0
00000FC0
00000FC0
00000FC0
00000FC0
00000FC0
00000FC0
00000FC0
00000FC0
00000FC0
00000FC0
FC000FC0
FC000FC0
FC000FC0
FC000FC0
FC000FC0
FC000FC0
FE000FC0
7E001FC0
7F001F80
7F803F80
3FC0FF00
1FFFFF00
1FFFFE00
07FFF800
03FFF000
007F8000
ENDCHAR
STARTCHAR 0135
ENCODING 309
SWIDTH 219 0
DWIDTH 14 0
BBX 18 62 -2 -14
BITMAP
03F000
07F800
0FF800
0FFC00
1F7E00
1E3E00
3E1F00
7C0F00
780780
F007C0
000000
000000
000000
000000
000000
03F000
03F000
03F000
03F000
03F000
03F000
03F000
03F000
03F000
03F000
03F000
03F000
03F000
03F000
03F000
03F000
03F000
03F000
03F000
03F000
03F000
03F000
03F000
03F000
03F000
03F000
03F000
03F000
03F000
03F000
03F000
03F000
03F000
03F000
03F000
03F000
03F000
03F000
03F000
03F000
03F000
07F000
7FE000
7FE000
7FC000
7F8000
7E0000
ENDCHAR
STARTCHAR 0136
ENCODING 310
SWIDTH 673 0
DWIDTH 43 0
BBX 37 65 5 -18
BITMAP
FC000007F0
FC00000FE0
FC00001FC0
FC00003F80
FC00007F00
FC0000FE00
FC0001FC00
FC0003F800
FC0007F000
FC000FE000
FC001FC000
FC003F8000
FC007F0000
FC00FE0000
FC01FC0000
FC03F80000
FC07F00000
FC0FF00000
FC1FE00000
FC3FC00000
FC7FE00000
FCFFE00000
FDFFF00000
FFFBF80000
FFF1FC0000
FFE1FC0000
FFC0FE0000
FF807F0000
FF007F0000
FE003F8000
FC001FC000
FC001FC000
FC000FE000
FC0007F000
FC0007F000
FC0003F800
FC0001FC00
FC0000FE00
FC0000FE00
FC00007F00
FC00003F80
FC00003F80
FC00001FC0
FC00000FE0
FC00000FE0
FC000007F0
FC000003F8
0000000000
0000000000
0000000000
0000000000
0003F00000
0003F00000
0003F00000
0003F00000
0003F00000
0003F00000
0000300000
0000300000
0000300000
0000700000
0000700000
0000E00000
0003E00000
0003800000
ENDCHAR
STARTCHAR 0137
ENCODING 311
SWIDTH 500 0
DWIDTH 32 0
BBX 28 65 4 -18
BITMAP
F8000000
F8000000
F8000000
F8000000
F8000000
F8000000
F8000000
F8000000
F8000000
F8000000
F8000000
F8000000
F8000000
F8000000
F8001FC0
F8003F00
F8007E00
F800FC00
F801F800
F803F000
F807E000
F80FC000
F81F8000
F83F0000
F87E0000
F8FC0000
F9FE0000
FBFF0000
FFFF0000
FFFF8000
FF9FC000
FF0FC000
FE0FE000
FC07F000
F803F000
F803F800
F801F800
F801FC00
F800FE00
F8007E00
F8007F00
F8003F80
F8001F80
F8001FC0
F8000FC0
F80007E0
F80007F0
00000000
00000000
00000000
00000000
003F0000
003F0000
003F0000
003F0000
003F0000
003F0000
00070000
00070000
00070000
00070000
00070000
000E0000
003C0000
00380000
ENDCHAR
STARTCHAR 0138
ENCODING 312
SWIDTH 500 0
DWIDTH 32 0
BBX 25 33 3 0
BITMAP
F0000F80
F0001F00
F0003E00
F0007C00
F000F800
F001F000
F003E000
F007C000
F00F8000
F01F0000
F03E0000
F07C0000
F0F80000
F1F00000
F3F80000
F7F80000
FFFC0000
FF3E0000
FE1E0000
FC1F0000
F80F8000
F0078000
F007C000
F003E000
F001F000
F001F000
F000F800
F0007C00
F0007C00
F0003E00
F0001F00
F0000F00
F0000F80
ENDCHAR
STARTCHAR 0139
ENCODING 313
SWIDTH 563 0
DWIDTH 36 0
BBX 29 60 5 0
BITMAP
07F00000
0FE00000
0FC00000
1F800000
3F000000
3E000000
7C000000
F8000000
F0000000
00000000
00000000
00000000
00000000
FC000000
FC000000
FC000000
FC000000
FC000000
FC000000
FC000000
FC000000
FC000000
FC000000
FC000000
FC000000
FC000000
FC000000
FC000000
FC000000
FC000000
FC000000
FC000000
FC000000
FC000000
FC000000
FC000000
FC000000
FC000000
FC000000
FC000000
FC000000
FC000000
FC000000
FC000000
FC000000
FC000000
FC000000
FC000000
FC000000
FC000000
FC000000
FC000000
FC000000
FC000000
FC000000
FFFFFFF8
FFFFFFF8
FFFFFFF8
FFFFFFF8
FFFFFFF8
ENDCHAR
STARTCHAR 013A
ENCODING 314
SWIDTH 219 0
DWIDTH 14 0
BBX 13 60 4 0
BITMAP
03F8
07E0
0FC0
0F80
1F00
3E00
3C00
7800
F000
0000
0000
0000
0000
FC00
FC00
FC00
FC00
FC00
FC00
FC00
FC00
FC00
FC00
FC00
FC00
FC00
FC00
FC00
FC00
FC00
FC00
FC00
FC00
FC00
FC00
FC00
FC00
FC00
FC00
FC00
FC00
FC00
FC00
FC00
FC00
FC00
FC00
FC00
FC00
FC00
FC00
FC00
FC00
FC00
FC00
FC00
FC00
FC00
FC00
FC00
ENDCHAR
STARTCHAR 013B
ENCODING 315
SWIDTH 563 0
DWIDTH 36 0
BBX 29 65 5 -18
BITMAP
FC000000
FC000000
FC000000
FC000000
FC000000
FC000000
FC000000
FC000000
FC000000
FC000000
FC000000
FC000000
FC000000
FC000000
FC000000
FC000000
FC000000
FC000000
FC000000
FC000000
FC000000
FC000000
FC000000
FC000000
FC000000
FC000000
FC000000
FC000000
FC000000
FC000000
FC000000
FC000000
FC000000
FC000000
FC000000
FC000000
FC000000
FC000000
FC000000
FC000000
FC000000
FC000000
FFFFFFF8
FFFFFFF8
FFFFFFF8
FFFFFFF8
FFFFFFF8
00000000
00000000
00000000
00000000
001FC000
001FC000
001FC000
001FC000
001FC000
001FC000
0001C000
0001C000
0001C000
00018000
00038000
00078000
001F0000
001E0000
ENDCHAR
STARTCHAR 013C
ENCODING 316
SWIDTH 219 0
DWIDTH 14 0
BBX 6 65 4 -18
BITMAP
FC
FC
FC
FC
FC
FC
FC
FC
FC
FC
FC
FC
FC
FC
FC
FC
FC
FC
FC
FC
FC
FC
FC
FC
FC
FC
FC
FC
FC
FC
FC
FC
FC
FC
FC
FC
FC
FC
FC
FC
FC
FC
FC
FC
FC
FC
FC
00
00
00
00
FC
FC
FC
FC
FC
FC
0C
0C
1C
1C
1C
38
F0
E0
ENDCHAR
STARTCHAR 013D
ENCODING 317
SWIDTH 563 0
DWIDTH 36 0
BBX 29 47 5 0
BITMAP
FC0FE000
FC0FE000
FC0FE000
FC0FE000
FC0FE000
FC0FE000
FC00E000
FC00E000
FC00E000
FC00C000
FC01C000
FC03C000
FC0F8000
FC0F0000
FC000000
FC000000
FC000000
FC000000
FC000000
FC000000
FC000000
FC000000
FC000000
FC000000
FC000000
FC000000
FC000000
FC000000
FC000000
FC000000
FC000000
FC000000
FC000000
FC000000
FC000000
FC000000
FC000000
FC000000
FC000000
FC000000
FC000000
FC000000
FFFFFFF8
FFFFFFF8
FFFFFFF8
FFFFFFF8
FFFFFFF8
ENDCHAR
STARTCHAR 013E
ENCODING 318
SWIDTH 297 0
DWIDTH 19 0
BBX 15 47 4 0
BITMAP
FC7E
FC7E
FC7E
FC7E
FC7E
FC7E
FC06
FC06
FC06
FC0E
FC0E
FC1C
FC7C
FC70
FC00
FC00
FC00
FC00
FC00
FC00
FC00
FC00
FC00
FC00
FC00
FC00
FC00
FC00
FC00
FC00
FC00
FC00
FC00
FC00
FC00
FC00
FC00
FC00
FC00
FC00
FC00
FC00
FC00
FC00
FC00
FC00
FC00
ENDCHAR
STARTCHAR 013F
ENCODING 319
SWIDTH 563 0
DWIDTH 36 0
BBX 29 47 5 0
BITMAP
FC000000
FC000000
FC000000
FC000000
FC000000
FC000000
FC000000
FC000000
FC000000
FC000000
FC000000
FC000000
FC000000
FC000000
FC000000
FC000000
FC000000
FC000000
FC000000
FC000000
FC000000
FC007E00
FC007E00
FC007E00
FC007E00
FC007E00
FC007E00
FC007E00
FC000000
FC000000
FC000000
FC000000
FC000000
FC000000
FC000000
FC000000
FC000000
FC000000
FC000000
FC000000
FC000000
FC000000
FFFFFFF8
FFFFFFF8
FFFFFFF8
FFFFFFF8
FFFFFFF8
ENDCHAR
STARTCHAR 0140
ENCODING 320
SWIDTH 328 0
DWIDTH 21 0
BBX 16 47 5 0
BITMAP
F800
F800
F800
F800
F800
F800
F800
F800
F800
F800
F800
F800
F800
F800
F800
F800
F800
F800
F800
F800
F800
F87F
F87F
F87F
F87F
F87F
F87F
F87F
F800
F800
F800
F800
F800
F800
F800
F800
F800
F800
F800
F800
F800
F800
F800
F800
F800
F800
F800
ENDCHAR
STARTCHAR 0141
ENCODING 321
SWIDTH 563 0
DWIDTH 36 0
BBX 35 47 0 0
BITMAP
07E0000000
07E0000000
07E0000000
07E0000000
07E0000000
07E0000000
07E0000000
07E0000000
07E0000000
07E0000000
07E0000000
07E0000000
07E0000000
07E0040000
07E00C0000
07E01C0000
07E07C0000
07E0FC0000
07E3F80000
07E7F00000
07EFC00000
07FF800000
07FF000000
07FC000000
07F8000000
1FF0000000
3FE0000000
FFE0000000
FFE0000000
F7E0000000
E7E0000000
C7E0000000
07E0000000
07E0000000
07E0000000
07E0000000
07E0000000
07E0000000
07E0000000
07E0000000
07E0000000
07E0000000
07FFFFFFE0
07FFFFFFE0
07FFFFFFE0
07FFFFFFE0
07FFFFFFE0
ENDCHAR
STARTCHAR 0142
ENCODING 322
SWIDTH 219 0
DWIDTH 14 0
BBX 14 47 0 0
BITMAP
0F80
0F80
0F80
0F80
0F80
0F80
0F80
0F80
0F80
0F80
0F80
0F80
0F80
0F80
0F80
0F80
0F80
0F8C
0F9C
0FBC
0FFC
0FF8
0FE0
1FC0
3F80
7F80
FF80
EF80
CF80
8F80
0F80
0F80
0F80
0F80
0F80
0F80
0F80
0F80
0F80
0F80
0F80
0F80
0F80
0F80
0F80
0F80
0F80
ENDCHAR
STARTCHAR 0143
ENCODING 323
SWIDTH 720 0
DWIDTH 46 0
BBX 36 60 5 0
BITMAP
00001FE000
00001F8000
00003F0000
00007E0000
00007C0000
0000F80000
0001F00000
0001E00000
0003C00000
0000000000
0000000000
0000000000
0000000000
FE000001F0
FE000001F0
FF000001F0
FF800001F0
FF800001F0
FFC00001F0
FFC00001F0
FFE00001F0
FFF00001F0
FBF00001F0
FBF80001F0
F9FC0001F0
F8FC0001F0
F8FE0001F0
F87E0001F0
F83F0001F0
F83F8001F0
F81F8001F0
F80FC001F0
F80FE001F0
F807E001F0
F807F001F0
F803F801F0
F801F801F0
F801FC01F0
F800FC01F0
F8007E01F0
F8007F01F0
F8003F01F0
F8003F81F0
F8001FC1F0
F8000FC1F0
F8000FE1F0
F80007F1F0
F80003F1F0
F80003F9F0
F80001F9F0
F80000FDF0
F80000FFF0
F800007FF0
F800007FF0
F800003FF0
F800001FF0
F800001FF0
F800000FF0
F8000007F0
F8000007F0
ENDCHAR
STARTCHAR 0144
ENCODING 324
SWIDTH 563 0
DWIDTH 36 0
BBX 27 48 4 0
BITMAP
0001FE00
0001FC00
0003F800
0003F000
0007E000
0007C000
000F8000
001F0000
001E0000
003C0000
00000000
00000000
00000000
00000000
0007F000
F83FFE00
F87FFF00
F8FFFF80
F9FFFFC0
FBE01FC0
FFC00FE0
FF0007E0
FF0007E0
FE0003E0
FE0003E0
FC0003E0
FC0003E0
FC0003E0
FC0003E0
FC0003E0
FC0003E0
FC0003E0
FC0003E0
FC0003E0
FC0003E0
FC0003E0
FC0003E0
FC0003E0
FC0003E0
FC0003E0
FC0003E0
FC0003E0
FC0003E0
FC0003E0
FC0003E0
FC0003E0
FC0003E0
FC0003E0
ENDCHAR
STARTCHAR 0145
ENCODING 325
SWIDTH 720 0
DWIDTH 46 0
BBX 36 65 5 -18
BITMAP
FE000001F0
FE000001F0
FF000001F0
FF800001F0
FF800001F0
FFC00001F0
FFC00001F0
FFE00001F0
FFF00001F0
FBF00001F0
FBF80001F0
F9FC0001F0
F8FC0001F0
F8FE0001F0
F87E0001F0
F83F0001F0
F83F8001F0
F81F8001F0
F80FC001F0
F80FE001F0
F807E001F0
F807F001F0
F803F801F0
F801F801F0
F801FC01F0
F800FC01F0
F8007E01F0
F8007F01F0
F8003F01F0
F8003F81F0
F8001FC1F0
F8000FC1F0
F8000FE1F0
F80007F1F0
F80003F1F0
F80003F9F0
F80001F9F0
F80000FDF0
F80000FFF0
F800007FF0
F800007FF0
F800003FF0
F800001FF0
F800001FF0
F800000FF0
F8000007F0
F8000007F0
0000000000
0000000000
0000000000
0000000000
0003F00000
0003F00000
0003F00000
0003F00000
0003F00000
0003F00000
0000300000
0000300000
0000700000
0000700000
0000700000
0000E00000
0003C00000
0003800000
ENDCHAR
STARTCHAR 0146
ENCODING 326
SWIDTH 563 0
DWIDTH 36 0
BBX 27 52 4 -18
BITMAP
0007F000
F83FFE00
F87FFF00
F8FFFF80
F9FFFFC0
FBE01FC0
FFC00FE0
FF0007E0
FF0007E0
FE0003E0
FE0003E0
FC0003E0
FC0003E0
FC0003E0
FC0003E0
FC0003E0
FC0003E0
FC0003E0
FC0003E0
FC0003E0
FC0003E0
FC0003E0
FC0003E0
FC0003E0
FC0003E0
FC0003E0
FC0003E0
FC0003E0
FC0003E0
FC0003E0
FC0003E0
FC0003E0
FC0003E0
FC0003E0
00000000
00000000
00000000
00000000
001F8000
001F8000
001F8000
001F8000
001F8000
001F8000
00038000
00038000
00038000
00038000
00070000
000F0000
001E0000
001C0000
ENDCHAR
STARTCHAR 0147
ENCODING 327
SWIDTH 720 0
DWIDTH 46 0
BBX 36 60 5 0
BITMAP
007C03E000
003E07C000
001E078000
001F0F8000
000F9F0000
0007FE0000
0007FE0000
0003FC0000
0001FC0000
0000000000
0000000000
0000000000
0000000000
FE000001F0
FE000001F0
FF000001F0
FF800001F0
FF800001F0
FFC00001F0
FFC00001F0
FFE00001F0
FFF00001F0
FBF00001F0
FBF80001F0
F9FC0001F0
F8FC0001F0
F8FE0001F0
F87E0001F0
F83F0001F0
F83F8001F0
F81F8001F0
F80FC001F0
F80FE001F0
F807E001F0
F807F001F0
F803F801F0
F801F801F0
F801FC01F0
F800FC01F0
F8007E01F0
F8007F01F0
F8003F01F0
F8003F81F0
F8001FC1F0
F8000FC1F0
F8000FE1F0
F80007F1F0
F80003F1F0
F80003F9F0
F80001F9F0
F80000FDF0
F80000FFF0
F800007FF0
F800007FF0
F800003FF0
F800001FF0
F800001FF0
F800000FF0
F8000007F0
F8000007F0
ENDCHAR
STARTCHAR 0148
ENCODING 328
SWIDTH 563 0
DWIDTH 36 0
BBX 27 48 4 0
BITMAP
07803E00
07C03C00
03E07800
01E0F800
01F1F000
00F9F000
00FFE000
007FC000
003FC000
003F8000
00000000
00000000
00000000
00000000
0007F000
F83FFE00
F87FFF00
F8FFFF80
F9FFFFC0
FBE01FC0
FFC00FE0
FF0007E0
FF0007E0
FE0003E0
FE0003E0
FC0003E0
FC0003E0
FC0003E0
FC0003E0
FC0003E0
FC0003E0
FC0003E0
FC0003E0
FC0003E0
FC0003E0
FC0003E0
FC0003E0
FC0003E0
FC0003E0
FC0003E0
FC0003E0
FC0003E0
FC0003E0
FC0003E0
FC0003E0
FC0003E0
FC0003E0
FC0003E0
ENDCHAR
STARTCHAR 0149
ENCODING 329
SWIDTH 610 0
DWIDTH 39 0
BBX 33 48 1 0
BITMAP
FC00000000
FC00000000
FC00000000
FC00000000
FC00000000
FC00000000
1C00000000
1C00000000
1C00000000
1C00000000
3800000000
F800000000
F000000000
C000000000
00001FC000
01E0FFF800
01E1FFFC00
01E3FFFE00
01E7FFFF00
01EF807F80
01EF003F80
01FE001F80
01FC001F80
01F8000F80
01F8000F80
01F0000F80
01F0000F80
01F0000F80
01F0000F80
01F0000F80
01F0000F80
01F0000F80
01F0000F80
01F0000F80
01F0000F80
01F0000F80
01F0000F80
01F0000F80
01F0000F80
01F0000F80
01F0000F80
01F0000F80
01F0000F80
01F0000F80
01F0000F80
01F0000F80
01F0000F80
01F0000F80
ENDCHAR
STARTCHAR 014A
ENCODING 330
SWIDTH 720 0
DWIDTH 46 0
BBX 35 67 6 -19
BITMAP
0000FF8000
F807FFF000
F80FFFF800
F83FFFFE00
F87FFFFF00
F8FF07FF00
F9F800FF80
F9F0003FC0
FBC0001FC0
FF80001FC0
FF80000FC0
FF00000FC0
FF00000FE0
FE00000FE0
FE000007E0
FE000007E0
FC000007E0
FC000007E0
FC000007E0
FC000007E0
FC000007E0
FC000007E0
FC000007E0
FC000007E0
FC000007E0
FC000007E0
FC000007E0
FC000007E0
FC000007E0
FC000007E0
FC000007E0
FC000007E0
FC000007E0
FC000007E0
FC000007E0
FC000007E0
FC000007E0
FC000007E0
FC000007E0
FC000007E0
FC000007E0
FC000007E0
FC000007E0
FC000007E0
FC000007E0
FC000007E0
FC000007E0
FC000007E0
00000007E0
00000007E0
00000007E0
00000007E0
00000007E0
00000007E0
00000007E0
00000007E0
00000007E0
00000007C0
0000000FC0
0000000FC0
0000001FC0
00000DFFC0
00000FFF80
00000FFF80
00000FFF00
00000FFC00
00000FF000
ENDCHAR
STARTCHAR 014B
ENCODING 331
SWIDTH 563 0
DWIDTH 36 0
BBX 26 48 5 -14
BITMAP
000FF000
F03FFC00
F0FFFE00
F1FFFF00
F3FFFF80
F7C03F80
F7801FC0
FF000FC0
FE000FC0
FC0007C0
FC0007C0
F80007C0
F80007C0
F80007C0
F80007C0
F80007C0
F80007C0
F80007C0
F80007C0
F80007C0
F80007C0
F80007C0
F80007C0
F80007C0
F80007C0
F80007C0
F80007C0
F80007C0
F80007C0
F80007C0
F80007C0
F80007C0
F80007C0
F80007C0
000007C0
000007C0
000007C0
000007C0
000007C0
000007C0
000007C0
000007C0
00000FC0
0001FFC0
0001FF80
0001FF80
0001FE00
0001F800
ENDCHAR
STARTCHAR 014C
ENCODING 332
SWIDTH 782 0
DWIDTH 50 0
BBX 45 59 2 -1
BITMAP
0003FFFF0000
0003FFFF0000
0003FFFF0000
0003FFFF0000
000000000000
000000000000
000000000000
000000000000
000000000000
000000000000
00003FF00000
0003FFFF0000
000FFFFFC000
001FFFFFF000
007FFFFFF800
00FFF07FFC00
01FF0007FE00
03FC0001FF00
07F800007F80
07F000003F80
0FE000001FC0
1FC000000FE0
1F8000000FE0
3F80000007E0
3F00000007F0
3F00000003F0
7F00000003F0
7E00000001F8
7E00000001F8
7E00000001F8
7E00000001F8
7E00000001F8
7C00000001F8
FC00000001F8
FC00000001F8
FC00000001F8
7C00000001F8
7E00000001F8
7E00000001F8
7E00000001F8
7E00000001F8
7E00000001F8
7F00000003F0
3F00000003F0
3F00000007F0
3F80000007E0
1FC000000FE0
1FC000000FC0
0FE000001FC0
0FF000003F80
07F800007F80
03FE0001FF00
01FF0007FE00
00FFF03FFC00
007FFFFFF800
003FFFFFE000
000FFFFFC000
0003FFFE0000
00003FF00000
ENDCHAR
STARTCHAR 014D
ENCODING 333
SWIDTH 563 0
DWIDTH 36 0
BBX 31 45 2 -1
BITMAP
01FFFF00
01FFFF00
01FFFF00
01FFFF00
00000000
00000000
00000000
00000000
00000000
00000000
001FF000
007FFE00
01FFFF00
03FFFFC0
07FFFFE0
0FF01FE0
1FC007F0
3F8003F8
3F0001F8
3F0001F8
7E0000FC
7E0000FC
7C0000FC
7C00007C
FC00007C
FC00007E
FC00007E
FC00007E
FC00007E
FC00007E
FC00007C
7C00007C
7C0000FC
7E0000FC
7E0000FC
3F0001F8
3F0001F8
3F8003F0
1FC007F0
0FF01FE0
0FFFFFC0
07FFFF80
01FFFF00
00FFFC00
001FE000
ENDCHAR
STARTCHAR 014E
ENCODING 334
SWIDTH 782 0
DWIDTH 50 0
BBX 45 61 2 -1
BITMAP
000780070000
0007800F0000
0007C01F0000
0003F03F0000
0003FFFE0000
0001FFFC0000
0000FFF80000
00003FF00000
000000000000
000000000000
000000000000
000000000000
00003FF00000
0003FFFF0000
000FFFFFC000
001FFFFFF000
007FFFFFF800
00FFF07FFC00
01FF0007FE00
03FC0001FF00
07F800007F80
07F000003F80
0FE000001FC0
1FC000000FE0
1F8000000FE0
3F80000007E0
3F00000007F0
3F00000003F0
7F00000003F0
7E00000001F8
7E00000001F8
7E00000001F8
7E00000001F8
7E00000001F8
7C00000001F8
FC00000001F8
FC00000001F8
FC00000001F8
7C00000001F8
7E00000001F8
7E00000001F8
7E00000001F8
7E00000001F8
7E00000001F8
7F00000003F0
3F00000003F0
3F00000007F0
3F80000007E0
1FC000000FE0
1FC000000FC0
0FE000001FC0
0FF000003F80
07F800007F80
03FE0001FF00
01FF0007FE00
00FFF03FFC00
007FFFFFF800
003FFFFFE000
000FFFFFC000
0003FFFE0000
00003FF00000
ENDCHAR
STARTCHAR 014F
ENCODING 335
SWIDTH 563 0
DWIDTH 36 0
BBX 31 48 2 -1
BITMAP
03C00780
03C00780
03C00F80
03E01F00
01FEFF00
01FFFE00
00FFFC00
007FF800
000FE000
00000000
00000000
00000000
00000000
001FF000
007FFE00
01FFFF00
03FFFFC0
07FFFFE0
0FF01FE0
1FC007F0
3F8003F8
3F0001F8
3F0001F8
7E0000FC
7E0000FC
7C0000FC
7C00007C
FC00007C
FC00007E
FC00007E
FC00007E
FC00007E
FC00007E
FC00007C
7C00007C
7C0000FC
7E0000FC
7E0000FC
3F0001F8
3F0001F8
3F8003F0
1FC007F0
0FF01FE0
0FFFFFC0
07FFFF80
01FFFF00
00FFFC00
001FE000
ENDCHAR
STARTCHAR 0150
ENCODING 336
SWIDTH 782 0
DWIDTH 50 0
BBX 45 62 2 -1
BITMAP
000007F0FE00
000007E0FC00
00000FC1F800
00001F83F000
00001F03E000
00003E07C000
00007C0F8000
0000780F0000
0000F01E0000
0001E01E0000
000000000000
000000000000
000000000000
00003FF00000
0003FFFF0000
000FFFFFC000
001FFFFFF000
007FFFFFF800
00FFF07FFC00
01FF0007FE00
03FC0001FF00
07F800007F80
07F000003F80
0FE000001FC0
1FC000000FE0
1F8000000FE0
3F80000007E0
3F00000007F0
3F00000003F0
7F00000003F0
7E00000001F8
7E00000001F8
7E00000001F8
7E00000001F8
7E00000001F8
7C00000001F8
FC00000001F8
FC00000001F8
FC00000001F8
7C00000001F8
7E00000001F8
7E00000001F8
7E00000001F8
7E00000001F8
7E00000001F8
7F00000003F0
3F00000003F0
3F00000007F0
3F80000007E0
1FC000000FE0
1FC000000FC0
0FE000001FC0
0FF000003F80
07F800007F80
03FE0001FF00
01FF0007FE00
00FFF03FFC00
007FFFFFF800
003FFFFFE000
000FFFFFC000
0003FFFE0000
00003FF00000
ENDCHAR
STARTCHAR 0151
ENCODING 337
SWIDTH 563 0
DWIDTH 36 0
BBX 31 49 2 -1
BITMAP
0007F0FE
000FE0FC
000FC1F8
001F83F0
001F03E0
003E07E0
007E07C0
007C0F80
00F81F00
00F01E00
00000000
00000000
00000000
00000000
001FF000
007FFE00
01FFFF00
03FFFFC0
07FFFFE0
0FF01FE0
1FC007F0
3F8003F8
3F0001F8
3F0001F8
7E0000FC
7E0000FC
7C0000FC
7C00007C
FC00007C
FC00007E
FC00007E
FC00007E
FC00007E
FC00007E
FC00007C
7C00007C
7C0000FC
7E0000FC
7E0000FC
3F0001F8
3F0001F8
3F8003F0
1FC007F0
0FF01FE0
0FFFFFC0
07FFFF80
01FFFF00
00FFFC00
001FE000
ENDCHAR
STARTCHAR 0152
ENCODING 338
SWIDTH 1001 0
DWIDTH 64 0
BBX 58 49 3 -1
BITMAP
0001FE0000000000
000FFFC1FFFFFFC0
003FFFE1FFFFFFC0
00FFFFF9FFFFFFC0
01FFFFFDFFFFFFC0
03FF07FDFFFFFFC0
07F8007FF0000000
0FF0003FF0000000
0FC0001FF0000000
1FC0000FF0000000
1F800007F0000000
3F000003F0000000
3F000003F0000000
7E000001F0000000
7E000001F0000000
7E000001F0000000
7C000001F0000000
FC000001F0000000
FC000001F0000000
FC000001F0000000
FC000001F0000000
FC000001F0000000
FC000001FFFFFF80
FC000001FFFFFF80
FC000001FFFFFF80
FC000001FFFFFF80
FC000001FFFFFF80
FC000001F0000000
FC000001F0000000
FC000001F0000000
FC000001F0000000
FC000001F0000000
FC000001F0000000
7E000001F0000000
7E000001F0000000
7E000001F0000000
7F000003F0000000
3F000003F0000000
3F800007F0000000
1FC0000FF0000000
1FC0001FF0000000
0FF0003FF0000000
07F8007FF0000000
03FF07FDFFFFFFC0
01FFFFF9FFFFFFC0
00FFFFF1FFFFFFC0
007FFFE1FFFFFFC0
001FFFC1FFFFFFC0
0003FE0000000000
ENDCHAR
STARTCHAR 0153
ENCODING 339
SWIDTH 939 0
DWIDTH 60 0
BBX 54 35 3 -1
BITMAP
003FE0000FF000
00FFFC007FFC00
03FFFE01FFFF00
07FFFF83FFFF80
0FFFFFC7FFFFE0
1FE03FCFF01FE0
3F800FFFC007F0
3F0007FF8003F8
7F0003FF0001F8
7E0001FE0001F8
FC0001FE0000FC
FC0001FE0000FC
FC0000FC0000FC
F80000FC00007C
F80000FC00007C
F80000FFFFFFFC
F80000FFFFFFFC
F80000FFFFFFFC
F80000FFFFFFFC
F80000FC000000
F80000FC000000
FC0000FC000000
FC0000FC000000
FC0001FC000000
FC0001FE0000FC
7E0001FE0000F8
7F0003FF0001F8
3F0007FF8003F0
3FC00FFFC007F0
1FE03FCFF01FE0
0FFFFFC7FFFFC0
07FFFF83FFFF80
03FFFE01FFFF00
00FFFC007FFC00
003FE0001FF000
ENDCHAR
STARTCHAR 0154
ENCODING 340
SWIDTH 720 0
DWIDTH 46 0
BBX 37 60 6 0
BITMAP
00003F8000
00007F0000
00007E0000
0000FC0000
0001F80000
0001F00000
0003E00000
0007C00000
0007800000
0000000000
0000000000
0000000000
0000000000
FFFFFFC000
FFFFFFF800
FFFFFFFE00
FFFFFFFF00
FFFFFFFF80
FC0001FFC0
FC00003FC0
FC00001FE0
FC00000FE0
FC000007E0
FC000007F0
FC000007F0
FC000007F0
FC000007F0
FC000007F0
FC000007E0
FC000007E0
FC000007E0
FC00000FC0
FC00000FC0
FC00003F80
FC0001FF00
FFFFFFFE00
FFFFFFF800
FFFFFFF800
FFFFFFFE00
FFFFFFFF00
FC00007F80
FC00003FC0
FC00001FC0
FC00000FC0
FC00000FC0
FC000007C0
FC000007E0
FC000007E0
FC000007E0
FC000007E0
FC000007E0
FC000007E0
FC000007E0
FC000007E0
FC000007E0
FC000007E0
FC000007F0
FC000007F0
FC000003F8
FC000003F8
ENDCHAR
STARTCHAR 0155
ENCODING 341
SWIDTH 328 0
DWIDTH 21 0
BBX 17 48 4 0
BITMAP
003F80
007F00
00FE00
00FC00
01F800
01F000
03E000
07C000
078000
0F0000
000000
000000
000000
000000
000F80
F83F80
F87F80
F8FF80
F9FF80
FBFF80
FBE000
FF8000
FF0000
FE0000
FE0000
FE0000
FC0000
FC0000
FC0000
FC0000
FC0000
FC0000
FC0000
FC0000
FC0000
FC0000
FC0000
FC0000
FC0000
FC0000
FC0000
FC0000
FC0000
FC0000
FC0000
FC0000
FC0000
FC0000
ENDCHAR
STARTCHAR 0156
ENCODING 342
SWIDTH 720 0
DWIDTH 46 0
BBX 37 65 6 -18
BITMAP
FFFFFFC000
FFFFFFF800
FFFFFFFE00
FFFFFFFF00
FFFFFFFF80
FC0001FFC0
FC00003FC0
FC00001FE0
FC00000FE0
FC000007E0
FC000007F0
FC000007F0
FC000007F0
FC000007F0
FC000007F0
FC000007E0
FC000007E0
FC000007E0
FC00000FC0
FC00000FC0
FC00003F80
FC0001FF00
FFFFFFFE00
FFFFFFF800
FFFFFFF800
FFFFFFFE00
FFFFFFFF00
FC00007F80
FC00003FC0
FC00001FC0
FC00000FC0
FC00000FC0
FC000007C0
FC000007E0
FC000007E0
FC000007E0
FC000007E0
FC000007E0
FC000007E0
FC000007E0
FC000007E0
FC000007E0
FC000007E0
FC000007F0
FC000007F0
FC000003F8
FC000003F8
0000000000
0000000000
0000000000
0000000000
0003F80000
0003F80000
0003F80000
0003F80000
0003F80000
0003F80000
0000380000
0000380000
0000380000
0000300000
0000700000
0000F00000
0003E00000
0003C00000
ENDCHAR
STARTCHAR 0157
ENCODING 343
SWIDTH 328 0
DWIDTH 21 0
BBX 17 52 4 -18
BITMAP
000F80
F83F80
F87F80
F8FF80
F9FF80
FBFF80
FBE000
FF8000
FF0000
FE0000
FE0000
FE0000
FC0000
FC0000
FC0000
FC0000
FC0000
FC0000
FC0000
FC0000
FC0000
FC0000
FC0000
FC0000
FC0000
FC0000
FC0000
FC0000
FC0000
FC0000
FC0000
FC0000
FC0000
FC0000
000000
000000
000000
000000
FE0000
FE0000
FE0000
FE0000
FE0000
FE0000
0E0000
0E0000
0C0000
1C0000
1C0000
380000
F80000
E00000
ENDCHAR
STARTCHAR 0158
ENCODING 344
SWIDTH 720 0
DWIDTH 46 0
BBX 37 60 6 0
BITMAP
00F0078000
00780F8000
007C1F0000
003E1E0000
001F3E0000
001FFC0000
000FF80000
0007F80000
0007F00000
0000000000
0000000000
0000000000
0000000000
FFFFFFC000
FFFFFFF800
FFFFFFFE00
FFFFFFFF00
FFFFFFFF80
FC0001FFC0
FC00003FC0
FC00001FE0
FC00000FE0
FC000007E0
FC000007F0
FC000007F0
FC000007F0
FC000007F0
FC000007F0
FC000007E0
FC000007E0
FC000007E0
FC00000FC0
FC00000FC0
FC00003F80
FC0001FF00
FFFFFFFE00
FFFFFFF800
FFFFFFF800
FFFFFFFE00
FFFFFFFF00
FC00007F80
FC00003FC0
FC00001FC0
FC00000FC0
FC00000FC0
FC000007C0
FC000007E0
FC000007E0
FC000007E0
FC000007E0
FC000007E0
FC000007E0
FC000007E0
FC000007E0
FC000007E0
FC000007E0
FC000007F0
FC000007F0
FC000003F8
FC000003F8
ENDCHAR
STARTCHAR 0159
ENCODING 345
SWIDTH 328 0
DWIDTH 21 0
BBX 18 48 3 0
BITMAP
F003C0
7807C0
3C0F80
3E0F00
1F1F00
1F3E00
0FFE00
0FFC00
07F800
03F800
000000
000000
000000
000000
0007C0
7C1FC0
7C3FC0
7C7FC0
7CFFC0
7DFFC0
7DF000
7FC000
7F8000
7F0000
7F0000
7F0000
7E0000
7E0000
7E0000
7E0000
7E0000
7E0000
7E0000
7E0000
7E0000
7E0000
7E0000
7E0000
7E0000
7E0000
7E0000
7E0000
7E0000
7E0000
7E0000
7E0000
7E0000
7E0000
ENDCHAR
STARTCHAR 015A
ENCODING 346
SWIDTH 673 0
DWIDTH 43 0
BBX 37 62 3 -1
BITMAP
00000FE000
00001FC000
00001F8000
00003F0000
00007E0000
00007C0000
0000F80000
0001F00000
0001E00000
0003C00000
0000000000
0000000000
0000000000
0007FE0000
003FFFE000
00FFFFF800
03FFFFFC00
07FFFFFE00
0FFC03FF00
1FE0007F80
1FC0003FC0
3F80001FC0
3F00000FC0
3F000007E0
3F000007E0
3E000007E0
7E000007E0
7F00000000
3F00000000
3F80000000
3FC0000000
3FE0000000
1FFC000000
0FFFC00000
0FFFF80000
03FFFF8000
01FFFFF800
003FFFFE00
0003FFFF00
00003FFF80
000007FFC0
0000007FE0
0000001FF0
0000000FF0
00000007F0
00000003F8
FC000003F8
FC000001F8
FC000001F8
FC000001F8
7E000003F0
7E000003F0
7F000003F0
3F800007E0
3FC0000FE0
1FF0003FC0
0FFE03FF80
07FFFFFF80
03FFFFFE00
01FFFFFC00
003FFFF000
0007FF0000
ENDCHAR
STARTCHAR 015B
ENCODING 347
SWIDTH 500 0
DWIDTH 32 0
BBX 27 49 2 -1
BITMAP
0001FC00
0001F800
0003F000
0007F000
0007E000
000FC000
000F8000
001F0000
003E0000
003C0000
00000000
00000000
00000000
00000000
003FC000
01FFF800
07FFFE00
0FFFFF00
1FFFFF00
3FC07F80
3F001F80
7E000FC0
7E000FC0
7E000FC0
7E000000
7E000000
7F000000
3FC00000
3FF80000
1FFF8000
0FFFF800
03FFFE00
00FFFF80
000FFFC0
0000FFC0
00001FE0
000007E0
000003E0
FC0003E0
FC0003E0
FC0003E0
7E0007E0
7F000FE0
3FC03FC0
3FFFFF80
1FFFFF00
0FFFFE00
03FFF800
00FFC000
ENDCHAR
STARTCHAR 015C
ENCODING 348
SWIDTH 673 0
DWIDTH 43 0
BBX 37 62 3 -1
BITMAP
0001F80000
0003FC0000
0003FE0000
0007FE0000
000F9F0000
000F8F0000
001F0F8000
003E07C000
003C03C000
007801E000
0000000000
0000000000
0000000000
0007FE0000
003FFFE000
00FFFFF800
03FFFFFC00
07FFFFFE00
0FFC03FF00
1FE0007F80
1FC0003FC0
3F80001FC0
3F00000FC0
3F000007E0
3F000007E0
3E000007E0
7E000007E0
7F00000000
3F00000000
3F80000000
3FC0000000
3FE0000000
1FFC000000
0FFFC00000
0FFFF80000
03FFFF8000
01FFFFF800
003FFFFE00
0003FFFF00
00003FFF80
000007FFC0
0000007FE0
0000001FF0
0000000FF0
00000007F0
00000003F8
FC000003F8
FC000001F8
FC000001F8
FC000001F8
7E000003F0
7E000003F0
7F000003F0
3F800007E0
3FC0000FE0
1FF0003FC0
0FFE03FF80
07FFFFFF80
03FFFFFE00
01FFFFFC00
003FFFF000
0007FF0000
ENDCHAR
STARTCHAR 015D
ENCODING 349
SWIDTH 500 0
DWIDTH 32 0
BBX 27 49 2 -1
BITMAP
001F8000
003FC000
007FC000
007FE000
00F9F000
00F9F000
01F0F800
03E07800
03C03C00
07C03E00
00000000
00000000
00000000
00000000
003FC000
01FFF800
07FFFE00
0FFFFF00
1FFFFF00
3FC07F80
3F001F80
7E000FC0
7E000FC0
7E000FC0
7E000000
7E000000
7F000000
3FC00000
3FF80000
1FFF8000
0FFFF800
03FFFE00
00FFFF80
000FFFC0
0000FFC0
00001FE0
000007E0
000003E0
FC0003E0
FC0003E0
FC0003E0
7E0007E0
7F000FE0
3FC03FC0
3FFFFF80
1FFFFF00
0FFFFE00
03FFF800
00FFC000
ENDCHAR
STARTCHAR 015E
ENCODING 350
SWIDTH 673 0
DWIDTH 43 0
BBX 37 62 3 -14
BITMAP
0007FF0000
003FFFE000
00FFFFF800
03FFFFFC00
07FFFFFE00
0FFC03FF00
0FE0007F80
1FC0001FC0
1F80000FC0
3F00000FE0
3F000007E0
3F000007E0
3F000007E0
3F000003E0
3F000003E0
3F00000000
3F80000000
3FC0000000
3FE0000000
1FFC000000
0FFF800000
0FFFF00000
07FFFF0000
01FFFFF000
007FFFFC00
0007FFFF00
0000FFFF80
00000FFFC0
000000FFE0
0000003FF0
0000000FF0
00000007F0
00000003F8
FC000001F8
FC000001F8
FC000001F8
FC000001F8
7E000001F8
7E000003F8
7F000003F0
3F000007F0
3F800007E0
1FE0001FE0
1FF8003FC0
0FFFFFFF80
07FFFFFF00
01FFFFFE00
00FFFFF800
001FFFE000
0001FC0000
0000C00000
0001C00000
0001FE0000
0003FF0000
00001F0000
00000F0000
00000F0000
00201F0000
007C3F0000
007FFE0000
001FFC0000
0000C00000
ENDCHAR
STARTCHAR 015F
ENCODING 351
SWIDTH 500 0
DWIDTH 32 0
BBX 27 48 2 -14
BITMAP
003FC000
01FFF800
07FFFE00
0FFFFF00
1FFFFF00
3FC07F80
3F001F80
7E000FC0
7E000FC0
7E000FC0
7E000000
7E000000
7F000000
3F800000
3FF00000
1FFF0000
0FFFF000
07FFFE00
01FFFF00
001FFF80
0001FFC0
00003FE0
00000FE0
000007E0
FC0003E0
FC0003E0
FC0003E0
7E0007E0
7E0007E0
7F801FC0
3FF0FFC0
3FFFFF80
1FFFFF00
07FFFE00
01FFF800
001F0000
00180000
00380000
003FC000
007FE000
0003E000
0001F000
0001E000
0403E000
0F87E000
0FFFC000
03FF8000
00180000
ENDCHAR
STARTCHAR 0160
ENCODING 352
SWIDTH 673 0
DWIDTH 43 0
BBX 37 62 3 -1
BITMAP
007801E000
003C03E000
003E07C000
001F078000
000F8F8000
000FDF0000
0007FE0000
0003FE0000
0003FC0000
0001FC0000
0000000000
0000000000
0000000000
0007FE0000
003FFFE000
00FFFFF800
03FFFFFC00
07FFFFFE00
0FFC03FF00
1FE0007F80
1FC0003FC0
3F80001FC0
3F00000FC0
3F000007E0
3F000007E0
3E000007E0
7E000007E0
7F00000000
3F00000000
3F80000000
3FC0000000
3FE0000000
1FFC000000
0FFFC00000
0FFFF80000
03FFFF8000
01FFFFF800
003FFFFE00
0003FFFF00
00003FFF80
000007FFC0
0000007FE0
0000001FF0
0000000FF0
00000007F0
00000003F8
FC000003F8
FC000001F8
FC000001F8
FC000001F8
7E000003F0
7E000003F0
7F000003F0
3F800007E0
3FC0000FE0
1FF0003FC0
0FFE03FF80
07FFFFFF80
03FFFFFE00
01FFFFFC00
003FFFF000
0007FF0000
ENDCHAR
STARTCHAR 0161
ENCODING 353
SWIDTH 500 0
DWIDTH 32 0
BBX 27 49 2 -1
BITMAP
07803E00
07C03C00
03E07800
01E0F800
01F1F000
00F9F000
00FFE000
007FC000
003FC000
003F8000
00000000
00000000
00000000
00000000
003FC000
01FFF800
07FFFE00
0FFFFF00
1FFFFF00
3FC07F80
3F001F80
7E000FC0
7E000FC0
7E000FC0
7E000000
7E000000
7F000000
3FC00000
3FF80000
1FFF8000
0FFFF800
03FFFE00
00FFFF80
000FFFC0
0000FFC0
00001FE0
000007E0
000003E0
FC0003E0
FC0003E0
FC0003E0
7E0007E0
7F000FE0
3FC03FC0
3FFFFF80
1FFFFF00
0FFFFE00
03FFF800
00FFC000
ENDCHAR
STARTCHAR 0162
ENCODING 354
SWIDTH 610 0
DWIDTH 39 0
BBX 37 61 1 -14
BITMAP
FFFFFFFFF8
FFFFFFFFF8
FFFFFFFFF8
FFFFFFFFF8
FFFFFFFFF8
0000FC0000
0000FC0000
0000FC0000
0000FC0000
0000FC0000
0000FC0000
0000FC0000
0000FC0000
0000FC0000
0000FC0000
0000FC0000
0000FC0000
0000FC0000
0000FC0000
0000FC0000
0000FC0000
0000FC0000
0000FC0000
0000FC0000
0000FC0000
0000FC0000
0000FC0000
0000FC0000
0000FC0000
0000FC0000
0000FC0000
0000FC0000
0000FC0000
0000FC0000
0000FC0000
0000FC0000
0000FC0000
0000FC0000
0000FC0000
0000FC0000
0000FC0000
0000FC0000
0000FC0000
0000FC0000
0000FC0000
0000FC0000
0000FC0000
0000380000
0000380000
0000300000
0000740000
00007F8000
0000FFC000
000007C000
000003E000
000003C000
000807C000
001F0FC000
001FFF8000
0007FF0000
0000300000
ENDCHAR
STARTCHAR 0163
ENCODING 355
SWIDTH 281 0
DWIDTH 18 0
BBX 15 55 1 -13
BITMAP
0FC0
0FC0
0FC0
0FC0
0FC0
0FC0
0FC0
0FC0
0FC0
FFFE
FFFE
FFFE
FFFE
0FC0
0FC0
0FC0
0FC0
0FC0
0FC0
0FC0
0FC0
0FC0
0FC0
0FC0
0FC0
0FC0
0FC0
0FC0
0FC0
0FC0
0FC0
0FC0
0FC0
0FC0
0FC0
0FC0
0FC0
0FC0
0FFE
07FE
07FE
03FE
01FE
0180
0380
03F8
07FE
067E
003E
001E
001E
F03E
FFFC
7FF8
0FE0
ENDCHAR
STARTCHAR 0164
ENCODING 356
SWIDTH 610 0
DWIDTH 39 0
BBX 37 60 1 0
BITMAP
003C01E000
001E03E000
001F07C000
000F8F8000
0007CF8000
0007DF0000
0003FE0000
0001FE0000
0001FC0000
0000000000
0000000000
0000000000
0000000000
FFFFFFFFF8
FFFFFFFFF8
FFFFFFFFF8
FFFFFFFFF8
FFFFFFFFF8
0000FC0000
0000FC0000
0000FC0000
0000FC0000
0000FC0000
0000FC0000
0000FC0000
0000FC0000
0000FC0000
0000FC0000
0000FC0000
0000FC0000
0000FC0000
0000FC0000
0000FC0000
0000FC0000
0000FC0000
0000FC0000
0000FC0000
0000FC0000
0000FC0000
0000FC0000
0000FC0000
0000FC0000
0000FC0000
0000FC0000
0000FC0000
0000FC0000
0000FC0000
0000FC0000
0000FC0000
0000FC0000
0000FC0000
0000FC0000
0000FC0000
0000FC0000
0000FC0000
0000FC0000
0000FC0000
0000FC0000
0000FC0000
0000FC0000
ENDCHAR
STARTCHAR 0165
ENCODING 357
SWIDTH 313 0
DWIDTH 20 0
BBX 20 52 1 -1
BITMAP
0007F0
0007F0
0007F0
0007F0
0007F0
0007F0
000070
000060
000060
0FC0E0
0FC0E0
0FC1C0
0FC7C0
0FC780
0FC400
0FC000
0FC000
0FC000
FFFE00
FFFE00
FFFE00
FFFE00
0FC000
0FC000
0FC000
0FC000
0FC000
0FC000
0FC000
0FC000
0FC000
0FC000
0FC000
0FC000
0FC000
0FC000
0FC000
0FC000
0FC000
0FC000
0FC000
0FC000
0FC000
0FC000
0FC000
0FC000
0FC000
0FFE00
07FE00
07FE00
03FE00
00FE00
ENDCHAR
STARTCHAR 0166
ENCODING 358
SWIDTH 610 0
DWIDTH 39 0
BBX 37 47 1 0
BITMAP
FFFFFFFFF8
FFFFFFFFF8
FFFFFFFFF8
FFFFFFFFF8
FFFFFFFFF8
0000FC0000
0000FC0000
0000FC0000
0000FC0000
0000FC0000
0000FC0000
0000FC0000
0000FC0000
0000FC0000
0000FC0000
0000FC0000
0000FC0000
07FFFFFF00
07FFFFFF00
07FFFFFF00
07FFFFFF00
0000FC0000
0000FC0000
0000FC0000
0000FC0000
0000FC0000
0000FC0000
0000FC0000
0000FC0000
0000FC0000
0000FC0000
0000FC0000
0000FC0000
0000FC0000
0000FC0000
0000FC0000
0000FC0000
0000FC0000
0000FC0000
0000FC0000
0000FC0000
0000FC0000
0000FC0000
0000FC0000
0000FC0000
0000FC0000
0000FC0000
ENDCHAR
STARTCHAR 0167
ENCODING 359
SWIDTH 281 0
DWIDTH 18 0
BBX 15 43 1 -1
BITMAP
0FC0
0FC0
0FC0
0FC0
0FC0
0FC0
0FC0
0FC0
0FC0
FFFE
FFFE
FFFE
FFFE
0FC0
0FC0
0FC0
0FC0
0FC0
0FC0
7FFE
7FFE
7FFE
0FC0
0FC0
0FC0
0FC0
0FC0
0FC0
0FC0
0FC0
0FC0
0FC0
0FC0
0FC0
0FC0
0FC0
0FC0
0FC0
0FFE
07FE
07FE
03FE
00FE
ENDCHAR
STARTCHAR 0168
ENCODING 360
SWIDTH 720 0
DWIDTH 46 0
BBX 36 60 5 -1
BITMAP
001F00F000
003FC0F000
007FF9E000
007FFFE000
00F9FFC000
00F07F8000
00E00F0000
0000000000
0000000000
0000000000
0000000000
0000000000
FC000003F0
FC000003F0
FC000003F0
FC000003F0
FC000003F0
FC000003F0
FC000003F0
FC000003F0
FC000003F0
FC000003F0
FC000003F0
FC000003F0
FC000003F0
FC000003F0
FC000003F0
FC000003F0
FC000003F0
FC000003F0
FC000003F0
FC000003F0
FC000003F0
FC000003F0
FC000003F0
FC000003F0
FC000003F0
FC000003F0
FC000003F0
FC000003F0
FC000003F0
FC000003F0
FC000003F0
FC000003F0
FC000003F0
FC000003F0
7E000003F0
7E000003F0
7E000003F0
7E000007F0
7F000007E0
3F80000FE0
3FC0001FC0
1FF0007FC0
0FFE03FF80
07FFFFFF00
03FFFFFC00
01FFFFF800
003FFFE000
0007FE0000
ENDCHAR
STARTCHAR 0169
ENCODING 361
SWIDTH 563 0
DWIDTH 36 0
BBX 27 47 4 -1
BITMAP
01F00E00
03FE1E00
07FFFE00
0FFFFE00
0F1FFC00
0F03F800
1E000000
00000000
00000000
00000000
00000000
00000000
00000000
F80007E0
F80007E0
F80007E0
F80007E0
F80007E0
F80007E0
F80007E0
F80007E0
F80007E0
F80007E0
F80007E0
F80007E0
F80007E0
F80007E0
F80007E0
F80007E0
F80007E0
F80007E0
F80007E0
F80007E0
F80007E0
F80007E0
F80007E0
FC0007E0
FC000FE0
FC000FE0
FC001FE0
FE003FE0
7F80FFE0
7FFFFBE0
3FFFF3E0
1FFFE3E0
0FFFC3E0
01FF0000
ENDCHAR
STARTCHAR 016A
ENCODING 362
SWIDTH 720 0
DWIDTH 46 0
BBX 36 59 5 -1
BITMAP
003FFFE000
003FFFE000
003FFFE000
003FFFE000
0000000000
0000000000
0000000000
0000000000
0000000000
0000000000
0000000000
FC000003F0
FC000003F0
FC000003F0
FC000003F0
FC000003F0
FC000003F0
FC000003F0
FC000003F0
FC000003F0
FC000003F0
FC000003F0
FC000003F0
FC000003F0
FC000003F0
FC000003F0
FC000003F0
FC000003F0
FC000003F0
FC000003F0
FC000003F0
FC000003F0
FC000003F0
FC000003F0
FC000003F0
FC000003F0
FC000003F0
FC000003F0
FC000003F0
FC000003F0
FC000003F0
FC000003F0
FC000003F0
FC000003F0
FC000003F0
7E000003F0
7E000003F0
7E000003F0
7E000007F0
7F000007E0
3F80000FE0
3FC0001FC0
1FF0007FC0
0FFE03FF80
07FFFFFF00
03FFFFFC00
01FFFFF800
003FFFE000
0007FE0000
ENDCHAR
STARTCHAR 016B
ENCODING 363
SWIDTH 563 0
DWIDTH 36 0
BBX 27 45 4 -1
BITMAP
07FFFC00
07FFFC00
07FFFC00
07FFFC00
00000000
00000000
00000000
00000000
00000000
00000000
00000000
F80007E0
F80007E0
F80007E0
F80007E0
F80007E0
F80007E0
F80007E0
F80007E0
F80007E0
F80007E0
F80007E0
F80007E0
F80007E0
F80007E0
F80007E0
F80007E0
F80007E0
F80007E0
F80007E0
F80007E0
F80007E0
F80007E0
F80007E0
FC0007E0
FC000FE0
FC000FE0
FC001FE0
FE003FE0
7F80FFE0
7FFFFBE0
3FFFF3E0
1FFFE3E0
0FFFC3E0
01FF0000
ENDCHAR
STARTCHAR 016C
ENCODING 364
SWIDTH 720 0
DWIDTH 46 0
BBX 36 61 5 -1
BITMAP
00F000F000
00F000F000
007801E000
007C03E000
007F9FE000
003FFFC000
001FFF8000
000FFF0000
0003FC0000
0000000000
0000000000
0000000000
0000000000
FC000003F0
FC000003F0
FC000003F0
FC000003F0
FC000003F0
FC000003F0
FC000003F0
FC000003F0
FC000003F0
FC000003F0
FC000003F0
FC000003F0
FC000003F0
FC000003F0
FC000003F0
FC000003F0
FC000003F0
FC000003F0
FC000003F0
FC000003F0
FC000003F0
FC000003F0
FC000003F0
FC000003F0
FC000003F0
FC000003F0
FC000003F0
FC000003F0
FC000003F0
FC000003F0
FC000003F0
FC000003F0
FC000003F0
FC000003F0
7E000003F0
7E000003F0
7E000003F0
7E000007F0
7F000007E0
3F80000FE0
3FC0001FC0
1FF0007FC0
0FFE03FF80
07FFFFFF00
03FFFFFC00
01FFFFF800
003FFFE000
0007FE0000
ENDCHAR
STARTCHAR 016D
ENCODING 365
SWIDTH 563 0
DWIDTH 36 0
BBX 27 48 4 -1
BITMAP
0F000E00
0F001E00
0F801E00
07C03E00
07F9FC00
03FFFC00
01FFF800
00FFF000
003F8000
00000000
00000000
00000000
00000000
00000000
F80007E0
F80007E0
F80007E0
F80007E0
F80007E0
F80007E0
F80007E0
F80007E0
F80007E0
F80007E0
F80007E0
F80007E0
F80007E0
F80007E0
F80007E0
F80007E0
F80007E0
F80007E0
F80007E0
F80007E0
F80007E0
F80007E0
F80007E0
FC0007E0
FC000FE0
FC000FE0
FC001FE0
FE003FE0
7F80FFE0
7FFFFBE0
3FFFF3E0
1FFFE3E0
0FFFC3E0
01FF0000
ENDCHAR
STARTCHAR 016E
ENCODING 366
SWIDTH 720 0
DWIDTH 46 0
BBX 36 62 5 -1
BITMAP
0000F80000
0001FC0000
0003FE0000
00070F0000
0007070000
0007070000
0007070000
00078E0000
0003FE0000
0001FC0000
0000700000
0000000000
0000000000
0000000000
FC000003F0
FC000003F0
FC000003F0
FC000003F0
FC000003F0
FC000003F0
FC000003F0
FC000003F0
FC000003F0
FC000003F0
FC000003F0
FC000003F0
FC000003F0
FC000003F0
FC000003F0
FC000003F0
FC000003F0
FC000003F0
FC000003F0
FC000003F0
FC000003F0
FC000003F0
FC000003F0
FC000003F0
FC000003F0
FC000003F0
FC000003F0
FC000003F0
FC000003F0
FC000003F0
FC000003F0
FC000003F0
FC000003F0
FC000003F0
7E000003F0
7E000003F0
7E000003F0
7E000007F0
7F000007E0
3F80000FE0
3FC0001FC0
1FF0007FC0
0FFE03FF80
07FFFFFF00
03FFFFFC00
01FFFFF800
003FFFE000
0007FE0000
ENDCHAR
STARTCHAR 016F
ENCODING 367
SWIDTH 563 0
DWIDTH 36 0
BBX 27 49 4 -1
BITMAP
000E0000
003F8000
007FC000
00F1E000
00E0E000
00E0E000
00E0E000
00E0E000
00F1E000
007FC000
003F8000
000E0000
00000000
00000000
00000000
F80007E0
F80007E0
F80007E0
F80007E0
F80007E0
F80007E0
F80007E0
F80007E0
F80007E0
F80007E0
F80007E0
F80007E0
F80007E0
F80007E0
F80007E0
F80007E0
F80007E0
F80007E0
F80007E0
F80007E0
F80007E0
F80007E0
F80007E0
FC0007E0
FC000FE0
FC000FE0
FC001FE0
FE003FE0
7F80FFE0
7FFFFBE0
3FFFF3E0
1FFFE3E0
0FFFC3E0
01FF0000
ENDCHAR
STARTCHAR 0170
ENCODING 368
SWIDTH 720 0
DWIDTH 46 0
BBX 36 61 5 -1
BITMAP
0001FE1FC0
0001F83F00
0003F07E00
0003E07C00
0007C0F800
000F81F000
000F01E000
001E03C000
003C07C000
0000000000
0000000000
0000000000
0000000000
FC000003F0
FC000003F0
FC000003F0
FC000003F0
FC000003F0
FC000003F0
FC000003F0
FC000003F0
FC000003F0
FC000003F0
FC000003F0
FC000003F0
FC000003F0
FC000003F0
FC000003F0
FC000003F0
FC000003F0
FC000003F0
FC000003F0
FC000003F0
FC000003F0
FC000003F0
FC000003F0
FC000003F0
FC000003F0
FC000003F0
FC000003F0
FC000003F0
FC000003F0
FC000003F0
FC000003F0
FC000003F0
FC000003F0
FC000003F0
7E000003F0
7E000003F0
7E000003F0
7E000007F0
7F000007E0
3F80000FE0
3FC0001FC0
1FF0007FC0
0FFE03FF80
07FFFFFF00
03FFFFFC00
01FFFFF800
003FFFE000
0007FE0000
ENDCHAR
STARTCHAR 0171
ENCODING 369
SWIDTH 563 0
DWIDTH 36 0
BBX 29 49 4 -1
BITMAP
001FC3F8
001F83F0
003F07E0
007E0FC0
007C0F80
00F81F00
01F01E00
01E03E00
03C07C00
03807800
00000000
00000000
00000000
00000000
00000000
F80007E0
F80007E0
F80007E0
F80007E0
F80007E0
F80007E0
F80007E0
F80007E0
F80007E0
F80007E0
F80007E0
F80007E0
F80007E0
F80007E0
F80007E0
F80007E0
F80007E0
F80007E0
F80007E0
F80007E0
F80007E0
F80007E0
F80007E0
FC0007E0
FC000FE0
FC000FE0
FC001FE0
FE003FE0
7F80FFE0
7FFFFBE0
3FFFF3E0
1FFFE3E0
0FFFC3E0
01FF0000
ENDCHAR
STARTCHAR 0172
ENCODING 370
SWIDTH 720 0
DWIDTH 46 0
BBX 36 60 5 -13
BITMAP
FC000003F0
FC000003F0
FC000003F0
FC000003F0
FC000003F0
FC000003F0
FC000003F0
FC000003F0
FC000003F0
FC000003F0
FC000003F0
FC000003F0
FC000003F0
FC000003F0
FC000003F0
FC000003F0
FC000003F0
FC000003F0
FC000003F0
FC000003F0
FC000003F0
FC000003F0
FC000003F0
FC000003F0
FC000003F0
FC000003F0
FC000003F0
FC000003F0
FC000003F0
FC000003F0
FC000003F0
FC000003F0
FC000003F0
FC000003F0
7E000003F0
7E000003F0
7E000003F0
7E000007F0
7F000007E0
3F80000FE0
3FC0001FC0
1FF0007FC0
0FFE03FF80
07FFFFFF00
03FFFFFF00
00FFFFFE00
003FFFFC00
0007FEF000
000001E000
000003E000
000007C000
0000078000
00000F8000
00000F8000
00000F8000
00000F8000
000007E000
000003FF80
000001FF80
0000003F00
ENDCHAR
STARTCHAR 0173
ENCODING 371
SWIDTH 563 0
DWIDTH 36 0
BBX 29 46 4 -13
BITMAP
F80007E0
F80007E0
F80007E0
F80007E0
F80007E0
F80007E0
F80007E0
F80007E0
F80007E0
F80007E0
F80007E0
F80007E0
F80007E0
F80007E0
F80007E0
F80007E0
F80007E0
F80007E0
F80007E0
F80007E0
F80007E0
F80007E0
F80007E0
FC0007E0
FC000FE0
FC000FE0
FC001FE0
FE003FE0
7F80FFE0
7FFFFBE0
3FFFF3E0
1FFFE3E0
0FFF83E0
01FE01C0
00000780
00000F00
00001E00
00003C00
00007C00
00007C00
00007C00
00003E00
00003F00
00001FF8
00000FF8
000001F0
ENDCHAR
STARTCHAR 0174
ENCODING 372
SWIDTH 939 0
DWIDTH 60 0
BBX 57 60 2 0
BITMAP
000000FF00000000
000000FF00000000
000001FF80000000
000003FFC0000000
000003E7C0000000
000007C3E0000000
00000F81E0000000
00000F00F0000000
00001E0078000000
0000000000000000
0000000000000000
0000000000000000
0000000000000000
FC00007F00001F80
FC00007F00003F80
FE0000FF00003F80
FE0000FF80003F00
7E0000FF80003F00
7E0000FF80007F00
7F0001FF80007F00
7F0001FFC0007E00
3F0001FFC0007E00
3F0001F7C0007E00
3F0003F7C000FE00
3F8003E7E000FC00
1F8003E7E000FC00
1F8007E3E000FC00
1F8007E3F001FC00
1FC007C3F001F800
0FC007C1F001F800
0FC00FC1F001F800
0FC00FC1F801F800
0FE00F81F803F000
07E00F80F803F000
07E01F80FC03F000
07E01F00FC03F000
07E01F00FC07E000
03F03F007C07E000
03F03F007E07E000
03F03E007E07E000
03F03E003E07C000
01F87E003E0FC000
01F87E003F0FC000
01F87C003F0FC000
01F87C001F0F8000
00FCFC001F9F8000
00FCFC001F9F8000
00FCF8000F9F8000
00FCF8000F9F0000
007DF8000FDF0000
007FF0000FFF0000
007FF00007FF0000
007FF00007FE0000
003FF00007FE0000
003FE00007FE0000
003FE00003FE0000
003FE00003FC0000
001FE00003FC0000
001FC00001FC0000
001FC00001FC0000
ENDCHAR
STARTCHAR 0175
ENCODING 373
SWIDTH 720 0
DWIDTH 46 0
BBX 44 48 1 0
BITMAP
00003F800000
00003FC00000
00007FC00000
00007FE00000
0000FBE00000
0001F1F00000
0001F0F80000
0003E0780000
0003C07C0000
0007803C0000
000000000000
000000000000
000000000000
000000000000
000000000000
F8003F8003F0
FC003F8003F0
FC003FC003E0
FC003FC007E0
7C007FC007E0
7E007FC007E0
7E007FE007C0
3E007BE00FC0
3F00FBE00FC0
3F00FBE00F80
3F00FBF00F80
1F00F1F01F80
1F81F1F01F80
1F81F1F01F00
0F81F1F83F00
0F81E0F83F00
0FC3E0F83E00
07C3E0F83E00
07C3E07C7E00
07C3C07C7C00
07E7C07C7C00
03E7C07E7C00
03E7C03EFC00
03F7803EF800
01FF803EF800
01FF803FF800
01FF801FF000
01FF001FF000
00FF001FF000
00FF001FE000
00FF000FE000
007E000FE000
007E000FE000
ENDCHAR
STARTCHAR 0176
ENCODING 374
SWIDTH 673 0
DWIDTH 43 0
BBX 41 60 1 0
BITMAP
00007F800000
00007F800000
0000FFC00000
0001FFE00000
0001F3E00000
0003E1F00000
0007C0F80000
000780780000
000F003C0000
000000000000
000000000000
000000000000
000000000000
FE0000003F80
7F0000007F00
7F8000007F00
3F800000FE00
1FC00000FC00
1FC00001FC00
0FE00003F800
07F00003F800
07F00007F000
03F80007E000
03F8000FE000
01FC001FC000
00FE001FC000
00FE003F8000
007F003F0000
003F007F0000
003F807E0000
001FC0FE0000
001FC1FC0000
000FE1F80000
0007E3F80000
0007F3F00000
0003FFE00000
0001FFE00000
0001FFC00000
0000FFC00000
0000FF800000
00007F000000
00003F000000
00003F000000
00003F000000
00003F000000
00003F000000
00003F000000
00003F000000
00003F000000
00003F000000
00003F000000
00003F000000
00003F000000
00003F000000
00003F000000
00003F000000
00003F000000
00003F000000
00003F000000
00003F000000
ENDCHAR
STARTCHAR 0177
ENCODING 375
SWIDTH 500 0
DWIDTH 32 0
BBX 29 62 1 -14
BITMAP
000FC000
001FE000
003FE000
003FF000
007CF800
007CF800
00F87C00
00F03C00
01E01E00
03E01F00
00000000
00000000
00000000
00000000
00000000
FC0000F8
7C0001F8
7E0001F8
7E0001F0
3E0003F0
3F0003E0
3F0007E0
1F0007E0
1F8007C0
1F800FC0
0F800FC0
0FC00F80
0FC01F80
07C01F80
07E01F00
03E03F00
03E03E00
03F03E00
01F07E00
01F07C00
01F8FC00
00F8FC00
00F8F800
00FDF800
007DF000
007DF000
007FF000
003FE000
003FE000
003FE000
001FC000
001FC000
001F8000
001F8000
001F8000
001F0000
003F0000
003F0000
003E0000
007E0000
007C0000
21FC0000
3FFC0000
3FF80000
3FF00000
3FE00000
1F800000
ENDCHAR
STARTCHAR 0178
ENCODING 376
SWIDTH 673 0
DWIDTH 43 0
BBX 41 59 1 0
BITMAP
000FE1F80000
000FE1F80000
000FE1F80000
000FE1F80000
000FE1F80000
000FE1F80000
000FE1F80000
000000000000
000000000000
000000000000
000000000000
000000000000
FE0000003F80
7F0000007F00
7F8000007F00
3F800000FE00
1FC00000FC00
1FC00001FC00
0FE00003F800
07F00003F800
07F00007F000
03F80007E000
03F8000FE000
01FC001FC000
00FE001FC000
00FE003F8000
007F003F0000
003F007F0000
003F807E0000
001FC0FE0000
001FC1FC0000
000FE1F80000
0007E3F80000
0007F3F00000
0003FFE00000
0001FFE00000
0001FFC00000
0000FFC00000
0000FF800000
00007F000000
00003F000000
00003F000000
00003F000000
00003F000000
00003F000000
00003F000000
00003F000000
00003F000000
00003F000000
00003F000000
00003F000000
00003F000000
00003F000000
00003F000000
00003F000000
00003F000000
00003F000000
00003F000000
00003F000000
ENDCHAR
STARTCHAR 0179
ENCODING 377
SWIDTH 610 0
DWIDTH 39 0
BBX 35 60 2 0
BITMAP
00000FE000
00001F8000
00003F0000
00003E0000
00007C0000
0000F80000
0000F00000
0001E00000
0003C00000
0000000000
0000000000
0000000000
0000000000
3FFFFFFFE0
3FFFFFFFE0
3FFFFFFFE0
3FFFFFFFE0
3FFFFFFFE0
0000000FE0
0000001FC0
0000003F80
0000007F80
0000007F00
000000FE00
000001FC00
000003FC00
000007F800
000007F000
00000FE000
00001FE000
00003FC000
00003F8000
00007F0000
0000FF0000
0001FE0000
0001FC0000
0003F80000
0007F00000
000FF00000
001FE00000
001FC00000
003F800000
007F800000
00FF000000
00FE000000
01FC000000
03FC000000
07F8000000
07F0000000
0FE0000000
1FE0000000
3FC0000000
3F80000000
7F00000000
FE00000000
FFFFFFFFE0
FFFFFFFFE0
FFFFFFFFE0
FFFFFFFFE0
FFFFFFFFE0
ENDCHAR
STARTCHAR 017A
ENCODING 378
SWIDTH 500 0
DWIDTH 32 0
BBX 27 48 2 0
BITMAP
0000FE00
0001FC00
0003F800
0003F000
0007E000
000FC000
000F8000
001F0000
001E0000
003C0000
00000000
00000000
00000000
00000000
00000000
7FFFFFC0
7FFFFFC0
7FFFFFC0
7FFFFFC0
7FFFFFC0
00001FC0
00003F80
00003F00
00007E00
0000FC00
0001F800
0003F800
0007F000
000FE000
000FC000
001F8000
003F0000
007F0000
00FE0000
01FC0000
01F80000
03F00000
07E00000
0FC00000
1FC00000
3F800000
7F000000
7E000000
FFFFFFE0
FFFFFFE0
FFFFFFE0
FFFFFFE0
FFFFFFE0
ENDCHAR
STARTCHAR 017B
ENCODING 379
SWIDTH 610 0
DWIDTH 39 0
BBX 35 59 2 0
BITMAP
0001FC0000
0001FC0000
0001FC0000
0001FC0000
0001FC0000
0001FC0000
0001FC0000
0000000000
0000000000
0000000000
0000000000
0000000000
3FFFFFFFE0
3FFFFFFFE0
3FFFFFFFE0
3FFFFFFFE0
3FFFFFFFE0
0000000FE0
0000001FC0
0000003F80
0000007F80
0000007F00
000000FE00
000001FC00
000003FC00
000007F800
000007F000
00000FE000
00001FE000
00003FC000
00003F8000
00007F0000
0000FF0000
0001FE0000
0001FC0000
0003F80000
0007F00000
000FF00000
001FE00000
001FC00000
003F800000
007F800000
00FF000000
00FE000000
01FC000000
03FC000000
07F8000000
07F0000000
0FE0000000
1FE0000000
3FC0000000
3F80000000
7F00000000
FE00000000
FFFFFFFFE0
FFFFFFFFE0
FFFFFFFFE0
FFFFFFFFE0
FFFFFFFFE0
ENDCHAR
STARTCHAR 017C
ENCODING 380
SWIDTH 500 0
DWIDTH 32 0
BBX 27 46 2 0
BITMAP
001F8000
001F8000
001F8000
001F8000
001F8000
001F8000
001F8000
00000000
00000000
00000000
00000000
00000000
00000000
7FFFFFC0
7FFFFFC0
7FFFFFC0
7FFFFFC0
7FFFFFC0
00001FC0
00003F80
00003F00
00007E00
0000FC00
0001F800
0003F800
0007F000
000FE000
000FC000
001F8000
003F0000
007F0000
00FE0000
01FC0000
01F80000
03F00000
07E00000
0FC00000
1FC00000
3F800000
7F000000
7E000000
FFFFFFE0
FFFFFFE0
FFFFFFE0
FFFFFFE0
FFFFFFE0
ENDCHAR
STARTCHAR 017D
ENCODING 381
SWIDTH 610 0
DWIDTH 39 0
BBX 35 60 2 0
BITMAP
003C01E000
003E03C000
001F07C000
000F8F8000
000F9F0000
0007DF0000
0003FE0000
0003FC0000
0001FC0000
0000000000
0000000000
0000000000
0000000000
3FFFFFFFE0
3FFFFFFFE0
3FFFFFFFE0
3FFFFFFFE0
3FFFFFFFE0
0000000FE0
0000001FC0
0000003F80
0000007F80
0000007F00
000000FE00
000001FC00
000003FC00
000007F800
000007F000
00000FE000
00001FE000
00003FC000
00003F8000
00007F0000
0000FF0000
0001FE0000
0001FC0000
0003F80000
0007F00000
000FF00000
001FE00000
001FC00000
003F800000
007F800000
00FF000000
00FE000000
01FC000000
03FC000000
07F8000000
07F0000000
0FE0000000
1FE0000000
3FC0000000
3F80000000
7F00000000
FE00000000
FFFFFFFFE0
FFFFFFFFE0
FFFFFFFFE0
FFFFFFFFE0
FFFFFFFFE0
ENDCHAR
STARTCHAR 017E
ENCODING 382
SWIDTH 500 0
DWIDTH 32 0
BBX 27 48 2 0
BITMAP
07801E00
03C03C00
03E07C00
01F0F800
00F0F000
00F9F000
007FE000
007FE000
003FC000
001FC000
00000000
00000000
00000000
00000000
00000000
7FFFFFC0
7FFFFFC0
7FFFFFC0
7FFFFFC0
7FFFFFC0
00001FC0
00003F80
00003F00
00007E00
0000FC00
0001F800
0003F800
0007F000
000FE000
000FC000
001F8000
003F0000
007F0000
00FE0000
01FC0000
01F80000
03F00000
07E00000
0FC00000
1FC00000
3F800000
7F000000
7E000000
FFFFFFE0
FFFFFFE0
FFFFFFE0
FFFFFFE0
FFFFFFE0
ENDCHAR
STARTCHAR 017F
ENCODING 383
SWIDTH 219 0
DWIDTH 14 0
BBX 16 47 -1 0
BITMAP
003F
00FF
01FF
03FF
07FF
07E0
07C0
07C0
07C0
07C0
07C0
07C0
07C0
07C0
FFC0
FFC0
FFC0
FFC0
07C0
07C0
07C0
07C0
07C0
07C0
07C0
07C0
07C0
07C0
07C0
07C0
07C0
07C0
07C0
07C0
07C0
07C0
07C0
07C0
07C0
07C0
07C0
07C0
07C0
07C0
07C0
07C0
07C0
ENDCHAR
STARTCHAR 0192
ENCODING 402
SWIDTH 563 0
DWIDTH 36 0
BBX 34 62 1 -14
BITMAP
0000003F00
000001FFC0
000003FF80
000007FF80
00000FFF00
00001FE300
00001F8000
00003F0000
00003F0000
00003E0000
00003E0000
00007E0000
00007E0000
00007C0000
00007C0000
0000FC0000
0000FC0000
0000FC0000
00FFFFF800
00FFFFF800
00FFFFF800
00FFFFF800
0001F80000
0001F80000
0001F00000
0001F00000
0003F00000
0003F00000
0003F00000
0003E00000
0003E00000
0003E00000
0007E00000
0007E00000
0007E00000
0007C00000
0007C00000
000FC00000
000FC00000
000FC00000
000F800000
000F800000
001F800000
001F800000
001F800000
001F800000
001F000000
001F000000
003F000000
003F000000
003F000000
003E000000
007E000000
007E000000
007C000000
00FC000000
43F8000000
FFF8000000
FFF0000000
FFC0000000
FF80000000
FC00000000
ENDCHAR
STARTCHAR 01FA
ENCODING 506
SWIDTH 673 0
DWIDTH 43 0
BBX 41 69 1 0
BITMAP
00007F000000
0000FE000000
0001FC000000
0001F8000000
0003F0000000
0007E0000000
0007C0000000
000F80000000
001F3E000000
001E7F000000
0000FF800000
0001C3C00000
0001C1C00000
0001C1C00000
0001C1C00000
0001E3C00000
0000FF800000
00007F000000
00001C000000
000000000000
000000000000
000000000000
00007F800000
0000FF800000
0000FF800000
0001FFC00000
0001FFC00000
0001FFC00000
0003FFE00000
0003F7E00000
0003F7E00000
0007E7F00000
0007E3F00000
0007E3F00000
000FC3F80000
000FC1F80000
000FC1F80000
001F81FC0000
001F80FC0000
001F80FC0000
003F00FE0000
003F007E0000
007E007F0000
007E007F0000
007E003F0000
00FC003F8000
00FC003F8000
00FC001F8000
01F8001FC000
01F8001FC000
01FFFFFFC000
03FFFFFFE000
03FFFFFFE000
03FFFFFFE000
07FFFFFFF000
07E00007F000
07E00003F000
0FC00003F800
0FC00003F800
1FC00001F800
1F800001FC00
1F800001FC00
3F800000FC00
3F000000FE00
3F0000007E00
7F0000007F00
7E0000007F00
7E0000003F00
FE0000003F80
ENDCHAR
STARTCHAR 01FB
ENCODING 507
SWIDTH 563 0
DWIDTH 36 0
BBX 31 58 3 -1
BITMAP
000FE000
001FC000
003F8000
003F0000
007E0000
00FC0000
00F80000
01F00000
03E00000
00070000
001FC000
003FE000
0038F000
00707000
00703000
00703000
00707000
0038F000
003FE000
001FC000
00070000
00000000
00000000
003FF000
01FFFE00
07FFFF00
0FFFFF80
1FFFFFC0
3FC03FE0
3F800FE0
3F0007E0
7E0003E0
7E0003E0
7E0003E0
000003E0
000003E0
000007E0
00007FE0
003FFFE0
03FFFFE0
0FFFFFE0
1FFFC3E0
3FF003E0
7F0003E0
FE0003E0
FC0003E0
F80003E0
F80003E0
F80007E0
F80007E0
FC000FE0
FE003FE0
7F00FFF0
7FFFFFFE
3FFFF3FE
1FFFE1FE
0FFF81FE
01FC007E
ENDCHAR
STARTCHAR 01FC
ENCODING 508
SWIDTH 1001 0
DWIDTH 64 0
BBX 60 60 1 0
BITMAP
0000000007F80000
0000000007E00000
000000000FC00000
000000000F800000
000000001F000000
000000003E000000
000000003C000000
0000000078000000
00000000F0000000
0000000000000000
0000000000000000
0000000000000000
0000000000000000
00001FFFFFFFFFE0
00003FFFFFFFFFE0
00003FFFFFFFFFE0
00007FFFFFFFFFE0
00007FFFFFFFFFE0
00007C07E0000000
0000FC07E0000000
0000FC07E0000000
0001F807E0000000
0001F807E0000000
0001F007E0000000
0003F007E0000000
0003F007E0000000
0007E007E0000000
0007E007E0000000
000FE007E0000000
000FC007E0000000
000FC007E0000000
001F8007E0000000
001F8007E0000000
003F8007FFFFFF80
003F0007FFFFFF80
003F0007FFFFFF80
007E0007FFFFFF80
007E0007FFFFFF80
00FE0007E0000000
00FC0007E0000000
00FC0007E0000000
01FFFFFFE0000000
01FFFFFFE0000000
03FFFFFFE0000000
03FFFFFFE0000000
03FFFFFFE0000000
07F00007E0000000
07E00007E0000000
0FE00007E0000000
0FC00007E0000000
0FC00007E0000000
1FC00007E0000000
1F800007E0000000
3F800007E0000000
3F000007E0000000
3F000007FFFFFFF0
7F000007FFFFFFF0
7E000007FFFFFFF0
FE000007FFFFFFF0
FC000007FFFFFFF0
ENDCHAR
STARTCHAR 01FD
ENCODING 509
SWIDTH 892 0
DWIDTH 57 0
BBX 52 49 2 -1
BITMAP
0000001FE00000
0000001FC00000
0000003F800000
0000003F000000
0000007E000000
000000FC000000
000000F8000000
000001F0000000
000001E0000000
000003C0000000
00000000000000
00000000000000
00000000000000
00000000000000
003FF0007F8000
01FFFC01FFF000
03FFFF07FFFC00
0FFFFF8FFFFE00
1FFFFFDFFFFF00
1FE01FFFC0FF80
3F8007FF003FC0
3F0003FC000FC0
3F0003FC000FE0
3E0003F80007E0
3E0003F00007E0
000003F00003F0
000003F00003F0
000007F00003F0
00003FE00003F0
003FFFFFFFFFF0
03FFFFFFFFFFF0
0FFFFFFFFFFFF0
1FFFE3FFFFFFF0
3FF803E0000000
7F8003E0000000
7E0003F0000000
7C0003F0000000
FC0003F0000060
FC0003F00003E0
FC0003F80007E0
FC0007FC0007C0
FC000FFC000FC0
7E001F7F001F80
7F007E3FC07F80
3FFFFC3FFFFF00
3FFFF81FFFFE00
1FFFE00FFFFC00
07FFC003FFF000
01FE00007F8000
ENDCHAR
STARTCHAR 01FE
ENCODING 510
SWIDTH 782 0
DWIDTH 50 0
BBX 45 62 2 -1
BITMAP
000001FC0000
000003F80000
000003F00000
000007E00000
00000FC00000
00000F800000
00001F000000
00003E000000
00003C000000
000078000000
000000000000
000000000000
000000000000
00003FF00038
0003FFFE0078
000FFFFFC0F8
003FFFFFE1F0
007FFFFFFBE0
00FFF03FFFC0
01FF0007FF80
03FC0001FF00
07F800007F80
0FF000003F80
0FE000007FC0
1FC00000FFC0
1F800001EFE0
3F800003C7E0
3F000007C7F0
3F00000F83F0
7E00001F03F0
7E00003E03F0
7E00007C01F8
7E0000F801F8
FC0001F001F8
FC0001E001F8
FC0003C001F8
FC00078001F8
FC000F0001F8
FC001F0001F8
FC003E0001F8
FC007C0001F8
FE00F80001F8
7E01F00001F8
7E03E00001F8
7E07C00003F0
7E07800003F0
3F0F000003F0
3F1E000007F0
3FBC000007E0
1FF800000FE0
1FF800000FC0
0FF000001FC0
0FF000003F80
07F800007F00
0FFC0001FF00
1FFF0007FE00
3EFFF03FFC00
3C7FFFFFF800
783FFFFFE000
F00FFFFF8000
6003FFFE0000
20007FF00000
ENDCHAR
STARTCHAR 01FF
ENCODING 511
SWIDTH 610 0
DWIDTH 39 0
BBX 32 49 1 -1
BITMAP
00007F00
00007E00
0000FC00
0001F800
0001F000
0003E000
0007C000
00078000
000F0000
001E0000
00000000
00000000
00000000
00000000
000FF802
003FFF07
00FFFF87
01FFFFCE
03FFFFFC
07F80FF8
0FE003F8
1FC001FC
1F8001FC
1F8003FC
3F0007FE
3F000F7E
3E001E7E
3E001C3E
7E00383E
7E00703F
7E00E03F
7E01C03F
7E03C03F
7E07803F
7E0F003E
3E1E003E
3E3C007E
3F78007E
3FF0007E
1FE000FC
1FC000FC
1FC001F8
0FE003F8
0FF80FF0
1FFFFFE0
3DFFFFC0
78FFFF80
F07FFE00
600FF800
ENDCHAR
STARTCHAR 0218
ENCODING 536
SWIDTH 673 0
DWIDTH 43 0
BBX 37 66 3 -18
BITMAP
0007FE0000
003FFFE000
00FFFFF800
03FFFFFC00
07FFFFFE00
0FFC03FF00
1FE0007F80
1FC0003FC0
3F80001FC0
3F00000FC0
3F000007E0
3F000007E0
3E000007E0
7E000007E0
7F00000000
3F00000000
3F80000000
3FC0000000
3FE0000000
1FFC000000
0FFFC00000
0FFFF80000
03FFFF8000
01FFFFF800
003FFFFE00
0003FFFF00
00003FFF80
000007FFC0
0000007FE0
0000001FF0
0000000FF0
00000007F0
00000003F8
FC000003F8
FC000001F8
FC000001F8
FC000001F8
7E000003F0
7E000003F0
7F000003F0
3F800007E0
3FC0000FE0
1FF0003FC0
0FFE03FF80
07FFFFFF80
03FFFFFE00
01FFFFFC00
003FFFF000
0007FF0000
0000000000
0000000000
0000000000
0000FC0000
0000FC0000
0000FC0000
0000FC0000
0000FC0000
0000FC0000
00001C0000
00001C0000
00001C0000
0000180000
0000380000
0000F80000
0000F00000
0000C00000
ENDCHAR
STARTCHAR 0219
ENCODING 537
SWIDTH 500 0
DWIDTH 32 0
BBX 27 52 2 -18
BITMAP
003FC000
01FFF800
07FFFE00
0FFFFF00
1FFFFF00
3FC07F80
3F001F80
7E000FC0
7E000FC0
7E000FC0
7E000000
7E000000
7F000000
3FC00000
3FF80000
1FFF8000
0FFFF800
03FFFE00
00FFFF80
000FFFC0
0000FFC0
00001FE0
000007E0
000003E0
FC0003E0
FC0003E0
FC0003E0
7E0007E0
7F000FE0
3FC03FC0
3FFFFF80
1FFFFF00
0FFFFE00
03FFF800
00FFC000
00000000
00000000
00000000
001F8000
001F8000
001F8000
001F8000
001F8000
001F8000
00038000
00038000
00038000
00030000
00070000
001F0000
001E0000
00180000
ENDCHAR
STARTCHAR 021A
ENCODING 538
SWIDTH 610 0
DWIDTH 39 0
BBX 37 65 1 -18
BITMAP
FFFFFFFFF8
FFFFFFFFF8
FFFFFFFFF8
FFFFFFFFF8
FFFFFFFFF8
0000FC0000
0000FC0000
0000FC0000
0000FC0000
0000FC0000
0000FC0000
0000FC0000
0000FC0000
0000FC0000
0000FC0000
0000FC0000
0000FC0000
0000FC0000
0000FC0000
0000FC0000
0000FC0000
0000FC0000
0000FC0000
0000FC0000
0000FC0000
0000FC0000
0000FC0000
0000FC0000
0000FC0000
0000FC0000
0000FC0000
0000FC0000
0000FC0000
0000FC0000
0000FC0000
0000FC0000
0000FC0000
0000FC0000
0000FC0000
0000FC0000
0000FC0000
0000FC0000
0000FC0000
0000FC0000
0000FC0000
0000FC0000
0000FC0000
0000000000
0000000000
0000000000
0000000000
0000FC0000
0000FC0000
0000FC0000
0000FC0000
0000FC0000
0000FC0000
00001C0000
00001C0000
00001C0000
00001C0000
0000380000
0000780000
0000F00000
0000E00000
ENDCHAR
STARTCHAR 021B
ENCODING 539
SWIDTH 281 0
DWIDTH 18 0
BBX 15 60 1 -18
BITMAP
0FC0
0FC0
0FC0
0FC0
0FC0
0FC0
0FC0
0FC0
0FC0
FFFE
FFFE
FFFE
FFFE
0FC0
0FC0
0FC0
0FC0
0FC0
0FC0
0FC0
0FC0
0FC0
0FC0
0FC0
0FC0
0FC0
0FC0
0FC0
0FC0
0FC0
0FC0
0FC0
0FC0
0FC0
0FC0
0FC0
0FC0
0FC0
0FFE
07FE
07FE
03FE
00FE
0000
0000
0000
03F0
03F0
03F0
03F0
03F0
03F0
0030
0030
0070
0070
0070
03E0
03C0
0380
ENDCHAR
STARTCHAR 02C6
ENCODING 710
SWIDTH 328 0
DWIDTH 21 0
BBX 19 10 1 38
BITMAP
03F800
07F800
07FC00
0FFE00
0FBE00
1F1F00
3E0F80
3C0780
7803C0
F003E0
ENDCHAR
STARTCHAR 02C7
ENCODING 711
SWIDTH 328 0
DWIDTH 21 0
BBX 17 10 2 38
BITMAP
F00780
F80F80
781F00
7C1E00
3E3E00
1F7C00
1FF800
0FF800
07F000
07E000
ENDCHAR
STARTCHAR 02C9
ENCODING 713
SWIDTH 328 0
DWIDTH 21 0
BBX 17 4 2 41
BITMAP
FFFF80
FFFF80
FFFF80
FFFF80
ENDCHAR
STARTCHAR 02D8
ENCODING 728
SWIDTH 328 0
DWIDTH 21 0
BBX 19 8 1 39
BITMAP
F001E0
F001E0
F803E0
7C07C0
7FFFC0
3FFF80
1FFF00
07FC00
ENDCHAR
STARTCHAR 02D9
ENCODING 729
SWIDTH 328 0
DWIDTH 21 0
BBX 7 7 7 39
BITMAP
FE
FE
FE
FE
FE
FE
FE
ENDCHAR
STARTCHAR 02DA
ENCODING 730
SWIDTH 328 0
DWIDTH 21 0
BBX 11 11 5 37
BITMAP
1F00
3FC0
7FC0
F0E0
E0E0
E0E0
E0E0
F0E0
7FC0
3F80
1F00
ENDCHAR
STARTCHAR 02DB
ENCODING 731
SWIDTH 328 0
DWIDTH 21 0
BBX 13 13 4 -13
BITMAP
0780
1F00
3C00
7800
F800
F000
F000
F000
F800
FC00
7FF8
3FF8
07F0
ENDCHAR
STARTCHAR 02DC
ENCODING 732
SWIDTH 328 0
DWIDTH 21 0
BBX 20 7 0 39
BITMAP
0F80F0
3FF0F0
3FFFF0
7FFFE0
79FFE0
703FC0
F00000
ENDCHAR
STARTCHAR 02DD
ENCODING 733
SWIDTH 328 0
DWIDTH 21 0
BBX 24 10 -2 38
BITMAP
03F87F
07F0FE
0FE1FC
0FC1F8
1F83F0
3F07E0
3E07C0
7C0F80
F80F00
F01E00
ENDCHAR
STARTCHAR 0384
ENCODING 900
SWIDTH 328 0
DWIDTH 21 0
BBX 5 13 8 37
BITMAP
F8
F8
F8
F8
F8
F8
F8
F8
78
70
70
70
30
ENDCHAR
STARTCHAR 0385
ENCODING 901
SWIDTH 328 0
DWIDTH 21 0
BBX 17 17 2 38
BITMAP
03E000
03E000
03E000
03E000
03E000
03E000
03E000
03E000
01E000
01C000
FDDF80
FDDF80
FCDF80
FC1F80
FC1F80
FC1F80
FC1F80
ENDCHAR
STARTCHAR 0386
ENCODING 902
SWIDTH 673 0
DWIDTH 43 0
BBX 41 47 1 0
BITMAP
3F007F800000
3F00FF800000
3F00FF800000
3F01FFC00000
3F01FFC00000
3F01FFC00000
1F03FFE00000
1E03F7E00000
1E03F7E00000
1E07E7F00000
0E07E3F00000
0C07E3F00000
0C0FC3F80000
000FC1F80000
000FC1F80000
001F81FC0000
001F80FC0000
001F80FC0000
003F00FE0000
003F007E0000
007E007F0000
007E007F0000
007E003F0000
00FC003F8000
00FC003F8000
00FC001F8000
01F8001FC000
01F8001FC000
01FFFFFFC000
03FFFFFFE000
03FFFFFFE000
03FFFFFFE000
07FFFFFFF000
07E00007F000
07E00003F000
0FC00003F800
0FC00003F800
1FC00001F800
1F800001FC00
1F800001FC00
3F800000FC00
3F000000FE00
3F0000007E00
7F0000007F00
7E0000007F00
7E0000003F00
FE0000003F80
ENDCHAR
STARTCHAR 0387
ENCODING 903
SWIDTH 281 0
DWIDTH 18 0
BBX 7 7 7 14
BITMAP
FE
FE
FE
FE
FE
FE
FE
ENDCHAR
STARTCHAR 0388
ENCODING 904
SWIDTH 782 0
DWIDTH 50 0
BBX 42 47 2 0
BITMAP
F8FFFFFFFF80
F8FFFFFFFF80
F8FFFFFFFF80
F8FFFFFFFF80
F8FFFFFFFF80
F8FC00000000
F8FC00000000
F8FC00000000
F0FC00000000
70FC00000000
70FC00000000
70FC00000000
00FC00000000
00FC00000000
00FC00000000
00FC00000000
00FC00000000
00FC00000000
00FC00000000
00FC00000000
00FFFFFFFF00
00FFFFFFFF00
00FFFFFFFF00
00FFFFFFFF00
00FFFFFFFF00
00FC00000000
00FC00000000
00FC00000000
00FC00000000
00FC00000000
00FC00000000
00FC00000000
00FC00000000
00FC00000000
00FC00000000
00FC00000000
00FC00000000
00FC00000000
00FC00000000
00FC00000000
00FC00000000
00FC00000000
00FFFFFFFFC0
00FFFFFFFFC0
00FFFFFFFFC0
00FFFFFFFFC0
00FFFFFFFFC0
ENDCHAR
STARTCHAR 0389
ENCODING 905
SWIDTH 845 0
DWIDTH 54 0
BBX 45 47 1 0
BITMAP
FC7E000001F8
FC7E000001F8
FC7E000001F8
FC7E000001F8
FC7E000001F8
FC7E000001F8
F87E000001F8
787E000001F8
787E000001F8
787E000001F8
707E000001F8
307E000001F8
007E000001F8
007E000001F8
007E000001F8
007E000001F8
007E000001F8
007E000001F8
007E000001F8
007E000001F8
007FFFFFFFF8
007FFFFFFFF8
007FFFFFFFF8
007FFFFFFFF8
007FFFFFFFF8
007E000001F8
007E000001F8
007E000001F8
007E000001F8
007E000001F8
007E000001F8
007E000001F8
007E000001F8
007E000001F8
007E000001F8
007E000001F8
007E000001F8
007E000001F8
007E000001F8
007E000001F8
007E000001F8
007E000001F8
007E000001F8
007E000001F8
007E000001F8
007E000001F8
007E000001F8
ENDCHAR
STARTCHAR 038A
ENCODING 906
SWIDTH 391 0
DWIDTH 25 0
BBX 14 47 2 0
BITMAP
F8FC
F8FC
F8FC
F8FC
F8FC
F8FC
F8FC
F0FC
F0FC
70FC
70FC
60FC
60FC
00FC
00FC
00FC
00FC
00FC
00FC
00FC
00FC
00FC
00FC
00FC
00FC
00FC
00FC
00FC
00FC
00FC
00FC
00FC
00FC
00FC
00FC
00FC
00FC
00FC
00FC
00FC
00FC
00FC
00FC
00FC
00FC
00FC
00FC
ENDCHAR
STARTCHAR 038C
ENCODING 908
SWIDTH 766 0
DWIDTH 49 0
BBX 49 49 -2 -1
BITMAP
000003FF000000
FC003FFFE00000
FC00FFFFFC0000
FC03FFFFFE0000
FC07FFFFFF8000
FC0FFF07FFC000
FC1FF0007FE000
7C3FC0001FF000
787F800007F800
78FF000003F800
78FE000001FC00
39FC000001FC00
31F8000000FE00
03F80000007E00
03F00000007F00
03F00000003F00
07E00000003F00
07E00000003F00
07E00000001F80
07E00000001F80
07C00000001F80
0FC00000001F80
0FC00000001F80
0FC00000001F80
0FC00000001F80
0FC00000001F80
0FC00000001F80
0FC00000001F80
0FC00000001F80
07E00000001F80
07E00000001F80
07E00000003F00
07E00000003F00
03F00000003F00
03F00000007F00
03F80000007E00
01F8000000FE00
01FC000000FC00
00FE000001FC00
00FF000003F800
007F800007F000
003FC0001FF000
001FF0007FE000
000FFF03FFC000
0007FFFFFF8000
0003FFFFFE0000
0000FFFFFC0000
00003FFFE00000
000003FF000000
ENDCHAR
STARTCHAR 038E
ENCODING 910
SWIDTH 860 0
DWIDTH 55 0
BBX 48 47 2 0
BITMAP
F8FE0000007F
F8FF0000007F
F87F000000FE
F87F800000FE
F83F800001FC
F81FC00003F8
F81FE00003F8
F80FE00007F0
7807F00007E0
7007F0000FE0
7003F8001FC0
7003F8001FC0
3001FC003F80
0000FE003F00
0000FE007F00
00007F007E00
00003F00FE00
00003F81FC00
00001FC1F800
00001FC3F800
00000FE3F000
000007E7E000
000007F7E000
000003FFC000
000001FFC000
000001FF8000
000000FF0000
0000007F0000
0000007E0000
0000007E0000
0000007E0000
0000007E0000
0000007E0000
0000007E0000
0000007E0000
0000007E0000
0000007E0000
0000007E0000
0000007E0000
0000007E0000
0000007E0000
0000007E0000
0000007E0000
0000007E0000
0000007E0000
0000007E0000
0000007E0000
ENDCHAR
STARTCHAR 038F
ENCODING 911
SWIDTH 751 0
DWIDTH 48 0
BBX 47 48 -1 0
BITMAP
00000FFC0000
F8007FFF8000
F801FFFFE000
F807FFFFF800
F80FFFFFFE00
F83FFC0FFF00
F87FE001FF80
F8FF80007FC0
F0FE00001FC0
F1FC00000FE0
F3F8000007F0
73F8000007F0
63F0000003F8
07F0000003F8
07E0000001F8
07E0000001F8
0FE0000000FC
0FC0000000FC
0FC0000000FC
0FC0000000FC
0FC0000000FC
0FC0000000FC
0FC0000000FC
0FC0000000FC
0FC0000000FC
0FC0000000FC
0FC0000000FC
0FC0000000FC
0FC0000000FC
07E0000001F8
07E0000001F8
07E0000001F8
03F0000003F0
03F0000003F0
01F8000007E0
01F8000007E0
00FC00000FC0
007E00001F80
007F00001F00
003F80007E00
000FC000FC00
0007E001F800
0001F807E000
1FFFF807FFFE
1FFFF807FFFE
1FFFF807FFFE
1FFFF807FFFE
1FFFF807FFFE
ENDCHAR
STARTCHAR 0390
ENCODING 912
SWIDTH 219 0
DWIDTH 14 0
BBX 17 55 -1 0
BITMAP
07E000
07E000
07E000
07E000
07E000
07E000
03E000
03C000
03C000
03C000
F9DF80
F99F80
F99F80
F81F80
F81F80
F81F80
F81F80
000000
000000
000000
000000
000000
07E000
07E000
07E000
07E000
07E000
07E000
07E000
07E000
07E000
07E000
07E000
07E000
07E000
07E000
07E000
07E000
07E000
07E000
07E000
07E000
07E000
07E000
07E000
07E000
07E000
07E000
07E000
07E000
07E000
07E000
07E000
07E000
07E000
ENDCHAR
STARTCHAR 0391
ENCODING 913
SWIDTH 673 0
DWIDTH 43 0
BBX 41 47 1 0
BITMAP
00007F800000
0000FF800000
0000FF800000
0001FFC00000
0001FFC00000
0001FFC00000
0003FFE00000
0003F7E00000
0003F7E00000
0007E7F00000
0007E3F00000
0007E3F00000
000FC3F80000
000FC1F80000
000FC1F80000
001F81FC0000
001F80FC0000
001F80FC0000
003F00FE0000
003F007E0000
007E007F0000
007E007F0000
007E003F0000
00FC003F8000
00FC003F8000
00FC001F8000
01F8001FC000
01F8001FC000
01FFFFFFC000
03FFFFFFE000
03FFFFFFE000
03FFFFFFE000
07FFFFFFF000
07E00007F000
07E00003F000
0FC00003F800
0FC00003F800
1FC00001F800
1F800001FC00
1F800001FC00
3F800000FC00
3F000000FE00
3F0000007E00
7F0000007F00
7E0000007F00
7E0000003F00
FE0000003F80
ENDCHAR
STARTCHAR 0392
ENCODING 914
SWIDTH 673 0
DWIDTH 43 0
BBX 35 47 5 0
BITMAP
FFFFFF0000
FFFFFFE000
FFFFFFF000
FFFFFFF800
FFFFFFFC00
FC000FFE00
FC0000FF00
FC00007F00
FC00003F00
FC00003F80
FC00001F80
FC00001F80
FC00001F80
FC00001F80
FC00001F80
FC00003F00
FC00003F00
FC00007E00
FC0000FE00
FC0003FC00
FFFFFFF800
FFFFFFE000
FFFFFFF000
FFFFFFFC00
FFFFFFFE00
FC0001FF00
FC00007F80
FC00001FC0
FC00001FC0
FC00000FC0
FC00000FE0
FC000007E0
FC000007E0
FC000007E0
FC000007E0
FC000007E0
FC00000FE0
FC00000FC0
FC00000FC0
FC00001FC0
FC00003F80
FC0001FF80
FFFFFFFF00
FFFFFFFE00
FFFFFFFC00
FFFFFFF000
FFFFFF8000
ENDCHAR
STARTCHAR 0393
ENCODING 915
SWIDTH 547 0
DWIDTH 35 0
BBX 30 47 5 0
BITMAP
FFFFFFFC
FFFFFFFC
FFFFFFFC
FFFFFFFC
FFFFFFFC
FC000000
FC000000
FC000000
FC000000
FC000000
FC000000
FC000000
FC000000
FC000000
FC000000
FC000000
FC000000
FC000000
FC000000
FC000000
FC000000
FC000000
FC000000
FC000000
FC000000
FC000000
FC000000
FC000000
FC000000
FC000000
FC000000
FC000000
FC000000
FC000000
FC000000
FC000000
FC000000
FC000000
FC000000
FC000000
FC000000
FC000000
FC000000
FC000000
FC000000
FC000000
FC000000
ENDCHAR
STARTCHAR 0394
ENCODING 916
SWIDTH 673 0
DWIDTH 43 0
BBX 44 47 -1 0
BITMAP
00001FC00000
00003FC00000
00003FC00000
00003FE00000
00007FE00000
00007FF00000
0000FFF00000
0000FFF00000
0000FDF80000
0001F9F80000
0001F8FC0000
0003F8FC0000
0003F0FC0000
0003F07E0000
0007E07E0000
0007E07F0000
000FE03F0000
000FC03F0000
000FC01F8000
001F801F8000
001F801FC000
003F800FC000
003F000FC000
003F0007E000
007F0007E000
007E0007F000
00FE0003F000
00FC0003F800
00FC0001F800
01FC0001F800
01F80001FC00
03F80000FC00
03F00000FE00
03F00000FE00
07F000007E00
07E000007F00
0FE000003F00
0FC000003F80
0FC000003F80
1FC000001F80
1F8000001FC0
3F8000000FC0
3FFFFFFFFFE0
3FFFFFFFFFE0
7FFFFFFFFFE0
7FFFFFFFFFF0
FFFFFFFFFFF0
ENDCHAR
STARTCHAR 0395
ENCODING 917
SWIDTH 673 0
DWIDTH 43 0
BBX 33 47 6 0
BITMAP
FFFFFFFF00
FFFFFFFF00
FFFFFFFF00
FFFFFFFF00
FFFFFFFF00
FC00000000
FC00000000
FC00000000
FC00000000
FC00000000
FC00000000
FC00000000
FC00000000
FC00000000
FC00000000
FC00000000
FC00000000
FC00000000
FC00000000
FC00000000
FFFFFFFE00
FFFFFFFE00
FFFFFFFE00
FFFFFFFE00
FFFFFFFE00
FC00000000
FC00000000
FC00000000
FC00000000
FC00000000
FC00000000
FC00000000
FC00000000
FC00000000
FC00000000
FC00000000
FC00000000
FC00000000
FC00000000
FC00000000
FC00000000
FC00000000
FFFFFFFF80
FFFFFFFF80
FFFFFFFF80
FFFFFFFF80
FFFFFFFF80
ENDCHAR
STARTCHAR 0396
ENCODING 918
SWIDTH 610 0
DWIDTH 39 0
BBX 35 47 2 0
BITMAP
3FFFFFFFE0
3FFFFFFFE0
3FFFFFFFE0
3FFFFFFFE0
3FFFFFFFE0
0000000FE0
0000001FC0
0000003F80
0000007F80
0000007F00
000000FE00
000001FC00
000003FC00
000007F800
000007F000
00000FE000
00001FE000
00003FC000
00003F8000
00007F0000
0000FF0000
0001FE0000
0001FC0000
0003F80000
0007F00000
000FF00000
001FE00000
001FC00000
003F800000
007F800000
00FF000000
00FE000000
01FC000000
03FC000000
07F8000000
07F0000000
0FE0000000
1FE0000000
3FC0000000
3F80000000
7F00000000
FE00000000
FFFFFFFFE0
FFFFFFFFE0
FFFFFFFFE0
FFFFFFFFE0
FFFFFFFFE0
ENDCHAR
STARTCHAR 0397
ENCODING 919
SWIDTH 720 0
DWIDTH 46 0
BBX 36 47 5 0
BITMAP
FC000003F0
FC000003F0
FC000003F0
FC000003F0
FC000003F0
FC000003F0
FC000003F0
FC000003F0
FC000003F0
FC000003F0
FC000003F0
FC000003F0
FC000003F0
FC000003F0
FC000003F0
FC000003F0
FC000003F0
FC000003F0
FC000003F0
FC000003F0
FFFFFFFFF0
FFFFFFFFF0
FFFFFFFFF0
FFFFFFFFF0
FFFFFFFFF0
FC000003F0
FC000003F0
FC000003F0
FC000003F0
FC000003F0
FC000003F0
FC000003F0
FC000003F0
FC000003F0
FC000003F0
FC000003F0
FC000003F0
FC000003F0
FC000003F0
FC000003F0
FC000003F0
FC000003F0
FC000003F0
FC000003F0
FC000003F0
FC000003F0
FC000003F0
ENDCHAR
STARTCHAR 0398
ENCODING 920
SWIDTH 782 0
DWIDTH 50 0
BBX 45 49 2 -1
BITMAP
00003FF00000
0003FFFE0000
000FFFFFC000
003FFFFFE000
007FFFFFF800
00FFF07FFC00
01FF0007FE00
03FC0001FF00
07F800007F80
0FF000003F80
0FE000001FC0
1FC000000FE0
1F8000000FE0
3F80000007E0
3F00000007F0
3F00000003F0
7F00000003F0
7E00000003F8
7E00000001F8
7E00000001F8
7E00000001F8
7C00000001F8
FC07FFFF01F8
FC07FFFF01F8
FC07FFFF01F8
FC07FFFF01F8
FC07FFFF01F8
7E00000001F8
7E00000001F8
7E00000001F8
7E00000001F8
7E00000001F8
7F00000003F0
3F00000003F0
3F00000007F0
3F80000007E0
1FC000000FE0
1FC000000FC0
0FE000001FC0
0FF000003F80
07F800007F80
03FE0001FF00
01FF0007FE00
00FFF03FFC00
007FFFFFF800
003FFFFFE000
000FFFFFC000
0003FFFE0000
00003FF00000
ENDCHAR
STARTCHAR 0399
ENCODING 921
SWIDTH 281 0
DWIDTH 18 0
BBX 6 47 6 0
BITMAP
FC
FC
FC
FC
FC
FC
FC
FC
FC
FC
FC
FC
FC
FC
FC
FC
FC
FC
FC
FC
FC
FC
FC
FC
FC
FC
FC
FC
FC
FC
FC
FC
FC
FC
FC
FC
FC
FC
FC
FC
FC
FC
FC
FC
FC
FC
FC
ENDCHAR
STARTCHAR 039A
ENCODING 922
SWIDTH 673 0
DWIDTH 43 0
BBX 37 47 5 0
BITMAP
FC000007F0
FC00000FE0
FC00001FC0
FC00003F80
FC00007F00
FC0000FE00
FC0001FC00
FC0003F800
FC0007F000
FC000FE000
FC001FC000
FC003F8000
FC007F0000
FC00FE0000
FC01FC0000
FC03F80000
FC07F00000
FC0FF00000
FC1FE00000
FC3FC00000
FC7FE00000
FCFFE00000
FDFFF00000
FFFBF80000
FFF1FC0000
FFE1FC0000
FFC0FE0000
FF807F0000
FF007F0000
FE003F8000
FC001FC000
FC001FC000
FC000FE000
FC0007F000
FC0007F000
FC0003F800
FC0001FC00
FC0000FE00
FC0000FE00
FC00007F00
FC00003F80
FC00003F80
FC00001FC0
FC00000FE0
FC00000FE0
FC000007F0
FC000003F8
ENDCHAR
STARTCHAR 039B
ENCODING 923
SWIDTH 673 0
DWIDTH 43 0
BBX 40 47 1 0
BITMAP
0000FF0000
0000FF8000
0000FF8000
0001FFC000
0001FFC000
0003FFC000
0003FFE000
0003F7E000
0007F7E000
0007E7F000
0007E3F000
000FE3F000
000FC3F800
000FC1F800
001FC1F800
001F81FC00
001F80FC00
003F80FC00
003F00FE00
003F007E00
007F007E00
007E007F00
007E003F00
00FE003F00
00FC003F80
00FC001F80
01FC001FC0
01F8001FC0
03F8000FC0
03F8000FE0
03F0000FE0
07F00007E0
07F00007F0
07E00007F0
0FE00003F0
0FE00003F8
0FC00003F8
1FC00001F8
1FC00001FC
1F800001FC
3F800000FC
3F800000FE
3F000000FE
7F0000007E
7F0000007F
7E0000007F
FE0000003F
ENDCHAR
STARTCHAR 039C
ENCODING 924
SWIDTH 829 0
DWIDTH 53 0
BBX 44 47 5 0
BITMAP
FF0000001FF0
FF8000001FF0
FF8000001FF0
FF8000003FF0
FFC000003FF0
FFC000003FF0
FFC000007FF0
FFE000007FF0
FBE000007FF0
FBE00000FBF0
FBF00000FBF0
F9F00000FBF0
F9F00001F3F0
F9F80001F3F0
F8F80001F3F0
F8F80003E3F0
F8FC0003E3F0
F87C0003E3F0
F87C0007C3F0
F87E0007C3F0
F83E0007C3F0
F83E000F83F0
F83F000F83F0
F81F000F83F0
F81F001F03F0
F81F801F03F0
F80F801F03F0
F80F803E03F0
F80FC03E03F0
F807C03E03F0
F807C07C03F0
F807E07C03F0
F803E07C03F0
F803E0F803F0
F803F0F803F0
F801F0F803F0
F801F1F003F0
F801F9F003F0
F800F9F003F0
F800FBE003F0
F800FFE003F0
F8007FE003F0
F8007FC003F0
F8007FC003F0
F8003FC003F0
F8003F8003F0
F8003F8003F0
ENDCHAR
STARTCHAR 039D
ENCODING 925
SWIDTH 720 0
DWIDTH 46 0
BBX 36 47 5 0
BITMAP
FE000001F0
FE000001F0
FF000001F0
FF800001F0
FF800001F0
FFC00001F0
FFC00001F0
FFE00001F0
FFF00001F0
FBF00001F0
FBF80001F0
F9FC0001F0
F8FC0001F0
F8FE0001F0
F87E0001F0
F83F0001F0
F83F8001F0
F81F8001F0
F80FC001F0
F80FE001F0
F807E001F0
F807F001F0
F803F801F0
F801F801F0
F801FC01F0
F800FC01F0
F8007E01F0
F8007F01F0
F8003F01F0
F8003F81F0
F8001FC1F0
F8000FC1F0
F8000FE1F0
F80007F1F0
F80003F1F0
F80003F9F0
F80001F9F0
F80000FDF0
F80000FFF0
F800007FF0
F800007FF0
F800003FF0
F800001FF0
F800001FF0
F800000FF0
F8000007F0
F8000007F0
ENDCHAR
STARTCHAR 039E
ENCODING 926
SWIDTH 657 0
DWIDTH 42 0
BBX 34 47 4 0
BITMAP
FFFFFFFF80
FFFFFFFF80
FFFFFFFF80
FFFFFFFF80
FFFFFFFF80
0000000000
0000000000
0000000000
0000000000
0000000000
0000000000
0000000000
0000000000
0000000000
0000000000
0000000000
0000000000
0000000000
0000000000
0000000000
3FFFFFFE00
3FFFFFFE00
3FFFFFFE00
3FFFFFFE00
3FFFFFFE00
0000000000
0000000000
0000000000
0000000000
0000000000
0000000000
0000000000
0000000000
0000000000
0000000000
0000000000
0000000000
0000000000
0000000000
0000000000
0000000000
0000000000
FFFFFFFFC0
FFFFFFFFC0
FFFFFFFFC0
FFFFFFFFC0
FFFFFFFFC0
ENDCHAR
STARTCHAR 039F
ENCODING 927
SWIDTH 782 0
DWIDTH 50 0
BBX 45 49 2 -1
BITMAP
00003FF00000
0003FFFF0000
000FFFFFC000
001FFFFFF000
007FFFFFF800
00FFF07FFC00
01FF0007FE00
03FC0001FF00
07F800007F80
07F000003F80
0FE000001FC0
1FC000000FE0
1F8000000FE0
3F80000007E0
3F00000007F0
3F00000003F0
7F00000003F0
7E00000001F8
7E00000001F8
7E00000001F8
7E00000001F8
7E00000001F8
7C00000001F8
FC00000001F8
FC00000001F8
FC00000001F8
7C00000001F8
7E00000001F8
7E00000001F8
7E00000001F8
7E00000001F8
7E00000001F8
7F00000003F0
3F00000003F0
3F00000007F0
3F80000007E0
1FC000000FE0
1FC000000FC0
0FE000001FC0
0FF000003F80
07F800007F80
03FE0001FF00
01FF0007FE00
00FFF03FFC00
007FFFFFF800
003FFFFFE000
000FFFFFC000
0003FFFE0000
00003FF00000
ENDCHAR
STARTCHAR 03A0
ENCODING 928
SWIDTH 720 0
DWIDTH 46 0
BBX 36 47 5 0
BITMAP
FFFFFFFFF0
FFFFFFFFF0
FFFFFFFFF0
FFFFFFFFF0
FFFFFFFFF0
FC000003F0
FC000003F0
FC000003F0
FC000003F0
FC000003F0
FC000003F0
FC000003F0
FC000003F0
FC000003F0
FC000003F0
FC000003F0
FC000003F0
FC000003F0
FC000003F0
FC000003F0
FC000003F0
FC000003F0
FC000003F0
FC000003F0
FC000003F0
FC000003F0
FC000003F0
FC000003F0
FC000003F0
FC000003F0
FC000003F0
FC000003F0
FC000003F0
FC000003F0
FC000003F0
FC000003F0
FC000003F0
FC000003F0
FC000003F0
FC000003F0
FC000003F0
FC000003F0
FC000003F0
FC000003F0
FC000003F0
FC000003F0
FC000003F0
ENDCHAR
STARTCHAR 03A1
ENCODING 929
SWIDTH 673 0
DWIDTH 43 0
BBX 33 47 6 0
BITMAP
FFFFFF0000
FFFFFFE000
FFFFFFF000
FFFFFFFC00
FFFFFFFE00
FC0007FE00
FC0001FF00
FC00007F00
FC00003F80
FC00003F80
FC00001F80
FC00001F80
FC00001F80
FC00001F80
FC00001F80
FC00001F80
FC00001F80
FC00003F80
FC00003F80
FC00007F00
FC0000FF00
FC0007FE00
FFFFFFFE00
FFFFFFFC00
FFFFFFF000
FFFFFFE000
FFFFFF0000
FC00000000
FC00000000
FC00000000
FC00000000
FC00000000
FC00000000
FC00000000
FC00000000
FC00000000
FC00000000
FC00000000
FC00000000
FC00000000
FC00000000
FC00000000
FC00000000
FC00000000
FC00000000
FC00000000
FC00000000
ENDCHAR
STARTCHAR 03A3
ENCODING 931
SWIDTH 610 0
DWIDTH 39 0
BBX 34 47 3 0
BITMAP
FFFFFFFF80
FFFFFFFF80
FFFFFFFF80
FFFFFFFF80
FFFFFFFF80
FF00000000
7F80000000
3FC0000000
1FE0000000
0FF0000000
07F8000000
03FC000000
01FE000000
00FF000000
007F800000
003FC00000
001FE00000
000FF00000
0007F80000
0003FC0000
0001FE0000
0000FF0000
00007F8000
00007F8000
0000FF0000
0001FE0000
0001FC0000
0003F80000
0007F00000
000FE00000
001FC00000
003F800000
007F000000
00FE000000
01FC000000
03F8000000
07F0000000
0FE0000000
1FC0000000
3FC0000000
7F80000000
FF00000000
FFFFFFFFC0
FFFFFFFFC0
FFFFFFFFC0
FFFFFFFFC0
FFFFFFFFC0
ENDCHAR
STARTCHAR 03A4
ENCODING 932
SWIDTH 610 0
DWIDTH 39 0
BBX 37 47 1 0
BITMAP
FFFFFFFFF8
FFFFFFFFF8
FFFFFFFFF8
FFFFFFFFF8
FFFFFFFFF8
0000FC0000
0000FC0000
0000FC0000
0000FC0000
0000FC0000
0000FC0000
0000FC0000
0000FC0000
0000FC0000
0000FC0000
0000FC0000
0000FC0000
0000FC0000
0000FC0000
0000FC0000
0000FC0000
0000FC0000
0000FC0000
0000FC0000
0000FC0000
0000FC0000
0000FC0000
0000FC0000
0000FC0000
0000FC0000
0000FC0000
0000FC0000
0000FC0000
0000FC0000
0000FC0000
0000FC0000
0000FC0000
0000FC0000
0000FC0000
0000FC0000
0000FC0000
0000FC0000
0000FC0000
0000FC0000
0000FC0000
0000FC0000
0000FC0000
ENDCHAR
ENDFONT
